<?xml version="1.0" standalone="no"?>
<!DOCTYPE svg PUBLIC "-//W3C//DTD SVG 1.1//EN" "http://www.w3.org/Graphics/SVG/1.1/DTD/svg11.dtd" >
<svg>
<metadata>
Created by FontForge 20090914 at Tue Jul  1 07:14:35 2014
 By www-data
Copyright (c) 2011 by Vernon Adams. All rights reserved.
</metadata>
<defs>
<font id="Pacifico-Regular" horiz-adv-x="1248" >
  <font-face 
    font-family="Pacifico"
    font-weight="400"
    font-stretch="normal"
    units-per-em="2048"
    panose-1="2 0 0 0 0 0 0 0 0 0"
    ascent="1638"
    descent="-410"
    x-height="895.998"
    cap-height="1730"
    bbox="-182.997 -928 3073.99 2668"
    underline-thickness="102"
    underline-position="-103"
    unicode-range="U+0020-U+FB02"
  />
<missing-glyph horiz-adv-x="447" 
 />
    <glyph glyph-name=".notdef" horiz-adv-x="447" 
 />
    <glyph glyph-name="space" unicode=" " horiz-adv-x="545" 
 />
    <glyph glyph-name="space" unicode="&#xa0;" horiz-adv-x="545" 
 />
    <glyph glyph-name="exclam" unicode="!" horiz-adv-x="1184" 
d="M416 512c6.66699 68.667 16.668 139.496 30.001 212.496s28.666 146 45.999 219s35.833 145.167 55.5 216.5l58.5 205l55.5 184l46.5 155c8.66699 32 21.167 57.833 37.5 77.5s34.5 35 54.5 46s41.167 18.5 63.5 22.5s43.833 6 64.5 6c10.667 0 20.667 -1.33301 30 -4
s17.333 -7.5 24 -14.5s11.834 -16.667 15.501 -29s5.5 -28.166 5.5 -47.499c0 -13.333 -0.833008 -27.833 -2.5 -43.5s-4.5 -33.5 -8.5 -53.5c-16.667 -78 -38.334 -156.167 -65.001 -234.5s-58.667 -162.5 -96 -252.5l-127.5 -296.5l-159.5 -368.5
c-1.33301 -7.33301 -4.83301 -14.166 -10.5 -20.499s-12.5 -11.666 -20.5 -15.999s-16.667 -7.66602 -26 -9.99902s-18.333 -3.5 -27 -3.5c-12.667 0 -23.5 2.66699 -32.5 8s-13.5 14.333 -13.5 27c0 3.33301 0.666992 8.33301 2 15zM590.001 184.996
c-1.33301 -2.66699 -2.49902 -9 -3.49902 -19s-3.33301 -22 -7 -36s-8.83398 -28.667 -15.501 -44s-16.5 -29.5 -29.5 -42.5s-29.5 -23.833 -49.5 -32.5s-45 -13 -75 -13c-24.667 0 -47 3.16699 -67 9.5s-37.167 16.166 -51.5 29.499s-25.5 30.333 -33.5 51
s-12 45.334 -12 74.001c0 24 3.5 47.5 10.5 70.5s17.833 43.5 32.5 61.5s33.667 32.333 57 43s51 16 83 16c52 0 92 -14 120 -42s42 -68 42 -120c0 -2.66699 -0.333008 -4.66699 -1 -6z" />
    <glyph glyph-name="quotedbl" unicode="&#x22;" horiz-adv-x="1184" 
d="M160 1283c0 12 0.5 27.499 1.5 46.499s2.16699 40 3.5 63s3 47.333 5 73l6 75.5c4.66699 58 10 120.333 16 187c0 20 5 37.833 15 53.5s23 29 39 40s34 19.5 54 25.5s40 9 60 9c16.667 0 32.667 -2.16699 48 -6.5s29 -10.833 41 -19.5s21.5 -20 28.5 -34
s10.5 -30.333 10.5 -49c0 -8 -0.666992 -16.167 -2 -24.5s-3.33301 -17.166 -6 -26.499l-30.5 -105.5l-34 -114.5l-34 -108.5c-11 -34.333 -20.833 -63.5 -29.5 -87.5c-11.333 -32 -27.5 -55.833 -48.5 -71.5s-42.167 -23.5 -63.5 -23.5s-40 8.16699 -56 24.5
s-24 40.833 -24 73.5zM544 1283c0 12 0.5 27.499 1.5 46.499s2.16699 40 3.5 63s3 47.333 5 73l6 75.5c4.66699 58 10 120.333 16 187c0 20 5 37.833 15 53.5s23 29 39 40s34 19.5 54 25.5s40 9 60 9c16.667 0 32.667 -2.16699 48 -6.5s29 -10.833 41 -19.5
s21.5 -20 28.5 -34s10.5 -30.333 10.5 -49c0 -8 -0.666992 -16.167 -2 -24.5s-3.33301 -17.166 -6 -26.499l-30.5 -105.5l-34 -114.5l-34 -108.5c-11 -34.333 -20.833 -63.5 -29.5 -87.5c-11.333 -32 -27.5 -55.833 -48.5 -71.5s-42.167 -23.5 -63.5 -23.5
s-40 8.16699 -56 24.5s-24 40.833 -24 73.5z" />
    <glyph glyph-name="numbersign" unicode="#" 
d="M483 960c-16 0 -31.998 2.00293 -47.998 6.00293s-30.333 10.333 -43 19s-23 19.834 -31 33.501s-12 30.167 -12 49.5c0 25.333 6.5 45.666 19.5 60.999s30.667 27 53 35s48.166 13.333 77.499 16s60 4 92 4h53l138 306c6.66699 16 16.334 32.5 29.001 49.5
s27.834 32.167 45.501 45.5s37.5 24.333 59.5 33s45.667 13 71 13c14 0 25 -2.83301 33 -8.5s13.667 -12.667 17 -21s5.33301 -17.5 6 -27.5s1 -19.333 1 -28c0 -4.66699 -1.66699 -12 -5 -22s-7.5 -21 -12.5 -33l-15 -36c-5 -12 -9.5 -22 -13.5 -30l-49 -111l-55 -130
c42.667 0 86.667 0.166992 132 0.5s91 0.5 137 0.5l62 172.5l50 136.5c6 16 14.5 32.5 25.5 49.5s24.667 32.167 41 45.5s35.166 24.333 56.499 33s44.666 13 69.999 13c14 0 25.167 -2.83301 33.5 -8.5s14.666 -12.667 18.999 -21s7.16602 -17.5 8.49902 -27.5
s2.66602 -19.333 3.99902 -28c0 -5.33301 -1.33301 -13 -4 -23s-5.83398 -20.833 -9.50098 -32.5l-11.5 -35c-4 -11.667 -7.66699 -21.834 -11 -30.501l-40 -112l-44 -132h126c16.667 0 30.334 -1.66699 41.001 -5s19 -8 25 -14s10.167 -12.667 12.5 -20s3.5 -15 3.5 -23
c0 -23.333 -3.83301 -44.833 -11.5 -64.5s-21 -36.834 -40 -51.501s-44.333 -26.167 -76 -34.5s-71.167 -12.5 -118.5 -12.5h-36l-46.5 -139.5l-51.5 -147.5h87c16.667 -1.33301 30.334 -4 41.001 -8s19 -8.83301 25 -14.5s10.167 -12.167 12.5 -19.5
s3.5 -14.666 3.5 -21.999c0 -22.667 -4 -43.834 -12 -63.501s-21.5 -36.667 -40.5 -51s-44.333 -25.666 -76 -33.999s-70.834 -12.5 -117.501 -12.5h-3l-73.5 -193l-80.5 -200c-8 -19.333 -17 -34.666 -27 -45.999s-20.333 -20 -31 -26s-21.5 -9.83301 -32.5 -11.5
s-21.5 -2.5 -31.5 -2.5c-13.333 0 -26.333 1.16699 -39 3.5s-24 6.66602 -34 12.999s-18 15.5 -24 27.5s-9 27.667 -9 47c0 28.667 8 66 24 112l97 275c-49.333 -0.666992 -101.166 -1.16699 -155.499 -1.5s-110.5 -0.5 -168.5 -0.5l-91 -193.5l-98 -200.5
c-10 -19.333 -20.5 -34.666 -31.5 -45.999s-22.167 -20 -33.5 -26s-22.5 -9.83301 -33.5 -11.5s-21.5 -2.5 -31.5 -2.5c-11.333 0 -22.833 0.833008 -34.5 2.5s-22.167 5.16699 -31.5 10.5s-17 13.166 -23 23.499s-9 24.166 -9 41.499c0 14.667 2.66699 32.5 8 53.5
s14 44.833 26 71.5l124 279c-3.33301 0 -6.33301 0.166992 -9 0.5s-5.33398 0.5 -8.00098 0.5c-16 0 -32 2 -48 6s-30.333 10.333 -43 19s-23 19.834 -31 33.501s-12 30.167 -12 49.5c0 18 3.33301 33 10 45s15.167 22.167 25.5 30.5s21.833 15.166 34.5 20.499
s25.334 10 38.001 14c8.66699 3.33301 23.334 5.16602 44.001 5.49902s40.667 0.5 60 0.5h38l129 288h-62zM800.002 960.003l-59.499 -141l-64.5 -150h1h150.5c50.333 0 101.166 0.333008 152.499 1l51 144l52 146h-283z" />
    <glyph glyph-name="dollar" unicode="$" horiz-adv-x="1735" 
d="M1106 1872c2 12.667 6.33203 25.6729 12.999 39.0059s16 25.333 28 36s26.667 19.5 44 26.5s37 10.5 59 10.5c12 0 22.167 -2.83301 30.5 -8.5s15.166 -12.5 20.499 -20.5s9.33301 -16.5 12 -25.5s4 -16.833 4 -23.5c0 -5.33301 -0.333008 -11.666 -1 -18.999
s-1.5 -15 -2.5 -23l-3 -23.5c-1 -7.66699 -1.83301 -14.5 -2.5 -20.5l-15 -92c54 -10.667 105.333 -26.334 154 -47.001s91.5 -46 128.5 -76s66.5 -64.333 88.5 -103s33 -81.334 33 -128.001c0 -25.333 -3.16699 -47.166 -9.5 -65.499s-14.833 -33.5 -25.5 -45.5
s-22.834 -21 -36.501 -27s-27.5 -9 -41.5 -9c-15.333 0 -30.666 3.16699 -45.999 9.5s-29 15.833 -41 28.5s-21.667 28.167 -29 46.5s-11 39.166 -11 62.499c0 33.333 -17.333 63.5 -52 90.5s-83.334 46.5 -146.001 58.5l-96 -557c47.333 -27.333 93.333 -56.333 138 -87
s84.5 -64.334 119.5 -101.001s63.167 -77.334 84.5 -122.001s32 -94.334 32 -149.001c0 -74 -13.167 -140.5 -39.5 -199.5s-63.333 -109.667 -111 -152s-105 -76.333 -172 -102s-141.167 -42.167 -222.5 -49.5l-30 -162c-4.66699 -15.333 -10.667 -27.333 -18 -36
s-15.5 -15.334 -24.5 -20.001s-18.5 -7.66699 -28.5 -9s-19.667 -2 -29 -2c-6.66699 0 -12.834 0.166992 -18.501 0.5s-11.167 0.5 -16.5 0.5c-10.667 0 -20.5 2.83301 -29.5 8.5s-16.667 13.5 -23 23.5s-11.333 21.667 -15 35s-5.5 27.666 -5.5 42.999
c0 7.33301 0.333008 15 1 23s1.66699 16.667 3 26c0.666992 5.33301 2 14 4 26s4.66699 26.333 8 43c-71.333 6 -138.166 18.667 -200.499 38s-116.666 45.666 -162.999 78.999s-82.833 74.5 -109.5 123.5s-40 106.5 -40 172.5c0 24 2.5 49.5 7.5 76.5s13 53.833 24 80.5
s25.667 52.334 44 77.001s40.833 46.334 67.5 65.001s57.834 33.667 93.501 45s76.834 17 123.501 17c20 0 37.167 -2.83301 51.5 -8.5s26.333 -13.167 36 -22.5s16.834 -19.833 21.501 -31.5s7 -23.5 7 -35.5c0 -21.333 -7.16699 -40.333 -21.5 -57s-35.833 -25 -64.5 -25
c-15.333 0 -31.833 -2.16699 -49.5 -6.5s-34 -13 -49 -26s-27.5 -31 -37.5 -54s-15 -53.5 -15 -91.5c0 -63.333 27.667 -112.333 83 -147s131.333 -55.667 228 -63l116 643l-154.5 85c-51 29.333 -96.667 61.5 -137 96.5s-73 73.667 -98 116s-37.5 90.166 -37.5 143.499
c0 51.333 12.5 102.833 37.5 154.5s62.167 98.667 111.5 141s110.666 77.5 183.999 105.5s158.333 44 255 48zM1297 507.006c0 24 -4.33301 46.668 -13 68.001s-20.667 41.5 -36 60.5s-33.5 37.167 -54.5 54.5s-44.167 34.333 -69.5 51l-91 -517
c40 10 76.167 23.667 108.5 41s60 38 83 62s40.833 51.167 53.5 81.5s19 63.166 19 98.499zM766.999 1324.01c0 -24.667 5 -47.833 15 -69.5s23.833 -42.5 41.5 -62.5s38.5 -39 62.5 -57s50.333 -36 79 -54l43 236l38 214c-50 -5.33301 -92.5 -14.666 -127.5 -27.999
s-63.833 -29.5 -86.5 -48.5s-39.167 -39.833 -49.5 -62.5s-15.5 -45.334 -15.5 -68.001z" />
    <glyph glyph-name="percent" unicode="%" horiz-adv-x="2208" 
d="M455 672c-59.333 0 -111.331 12.166 -155.998 36.499s-82.334 57.166 -113.001 98.499s-53.667 89 -69 143s-23 110.667 -23 170c0 48.667 4.66699 97.334 14 146.001s23.166 95.5 41.499 140.5s41.333 87 69 126s60 73 97 102s78.667 51.833 125 68.5s97.5 25 153.5 25
c62.667 0 116.334 -11 161.001 -33s81.5 -52 110.5 -90s50.333 -82.167 64 -132.5s20.5 -103.833 20.5 -160.5c0 -48.667 -5.33301 -98.167 -16 -148.5s-26 -99.166 -46 -146.499s-44.5 -92 -73.5 -134s-61.833 -78.667 -98.5 -110s-76.834 -56 -120.501 -74
s-90.5 -27 -140.5 -27zM473.002 863.999c30.667 0 59.998 14 87.998 42s52.833 64 74.5 108s38.834 92.5 51.501 145.5s19 104.5 19 154.5c0 30 -2.5 58.5 -7.5 85.5s-13 50.667 -24 71s-25.333 36.333 -43 48s-38.834 17.5 -63.501 17.5
c-35.333 0 -66.666 -11.667 -93.999 -35s-50.166 -53.833 -68.499 -91.5s-32.166 -80 -41.499 -127s-14 -94.167 -14 -141.5c0 -36.667 2.5 -71.667 7.5 -105s12.667 -62.833 23 -88.5s23.166 -46 38.499 -61s33.333 -22.5 54 -22.5zM1372 1696
c6.66699 12 15.333 23.667 26 35s23.834 21.5 39.501 30.5s34.334 16.333 56.001 22s46.5 8.5 74.5 8.5c17.333 0 29.166 -6 35.499 -18s9.5 -26.667 9.5 -44c0 -12 -1.16699 -24.667 -3.5 -38s-5.16602 -26.333 -8.49902 -39s-7 -24.5 -11 -35.5s-7.33301 -19.5 -10 -25.5
l-90 -187.5l-113 -243l-127.5 -275.5l-133.5 -285l-131.5 -271l-120.5 -234c-10.667 -20 -24.334 -36.167 -41.001 -48.5s-34 -22 -52 -29s-35.833 -11.833 -53.5 -14.5s-32.834 -4 -45.501 -4c-17.333 0 -32 2.5 -44 7.5s-21.5 11.833 -28.5 20.5s-12 18.834 -15 30.501
s-4.5 24.167 -4.5 37.5c0 23.333 3.5 47.666 10.5 72.999s15.167 48 24.5 68l49 95.5l78 152l99.5 193l113 218l117.5 227l114 220l103 196.5zM1669 63.999c-59.333 0 -111.169 11.335 -155.502 34.002s-81.5 53.167 -111.5 91.5s-52.5 82.833 -67.5 133.5
s-22.5 103.667 -22.5 159c0 50.667 4.5 101.667 13.5 153s22.667 100.666 41 147.999s41.166 91.5 68.499 132.5s59.333 76.667 96 107s78 54.166 124 71.499s97 26 153 26c58.667 0 109.334 -12 152.001 -36s77.834 -56.333 105.501 -97s48 -88 61 -142
s19.5 -111 19.5 -171c0 -46 -5.16699 -93 -15.5 -141s-25.166 -94.667 -44.499 -140s-43 -87.833 -71 -127.5s-59.667 -74.5 -95 -104.5s-74 -53.667 -116 -71s-87 -26 -135 -26zM1687 256.001c28 0 54.998 12.333 80.998 37s48.667 56.5 68 95.5s34.833 82 46.5 129
s17.5 93.167 17.5 138.5c0 36.667 -2.16699 71.334 -6.5 104.001s-11.166 61.5 -20.499 86.5s-21.5 44.833 -36.5 59.5s-33.167 22 -54.5 22c-35.333 0 -66.333 -12.5 -93 -37.5s-49 -58 -67 -99s-31.5 -87.5 -40.5 -139.5s-13.5 -104.667 -13.5 -158
c0 -30.667 2.33301 -60.334 7 -89.001s11.834 -54 21.501 -76s22 -39.667 37 -53s32.833 -20 53.5 -20z" />
    <glyph glyph-name="ampersand" unicode="&#x26;" horiz-adv-x="1472" 
d="M471 857c-12.667 23.333 -25.8291 50.6641 -39.4961 81.9971s-26.334 64.333 -38.001 99s-21.334 69.5 -29.001 104.5s-11.5 68.167 -11.5 99.5c0 54 11.667 105.667 35 155s54.666 93 93.999 131s84.833 68.167 136.5 90.5s106.167 33.5 163.5 33.5
c48.667 0 93.5 -7.5 134.5 -22.5s76.167 -35.833 105.5 -62.5s52.166 -58 68.499 -94s24.5 -75.333 24.5 -118c0 -37.333 -6.33301 -76.5 -19 -117.5s-33.334 -82.667 -62.001 -125s-65.667 -84.5 -111 -126.5s-100.333 -82.667 -165 -122c8 -16 21.5 -39.167 40.5 -69.5
l64 -101.5l74 -117.5l71.5 -118.5c14 10 25.167 20.333 33.5 31s14.5 21.334 18.5 32.001s6.5 21.5 7.5 32.5s1.5 22.167 1.5 33.5c0 25.333 -3 47 -9 65s-14.5 35.667 -25.5 53s-24.167 35.833 -39.5 55.5s-32 43.834 -50 72.501c0 0.666992 1.66699 2.66699 5 6l11.5 11
c4.33301 4 8.5 7.5 12.5 10.5s6.66699 4.5 8 4.5c10 0 24.333 -4.16699 43 -12.5s39 -20 61 -35s44.667 -33 68 -54s44.333 -44.5 63 -70.5s34 -54.167 46 -84.5s18 -61.833 18 -94.5c0 -40.667 -11.167 -82.834 -33.5 -126.501s-60.166 -87.167 -113.499 -130.5
c2 0 9 -4.5 21 -13.5l41 -31.5l45.5 -36c15 -12 26.167 -21.333 33.5 -28c10.667 -10 16 -23.667 16 -41c0 -15.333 -4.5 -31.833 -13.5 -49.5s-20.5 -34 -34.5 -49s-29.5 -27.5 -46.5 -37.5s-33.5 -15 -49.5 -15c-15.333 0 -29 5 -41 15
c-8.66699 7.33301 -21.167 19.5 -37.5 36.5l-48.5 52.5l-42 47.5c-12 13.667 -18 20.834 -18 21.501c-31.333 -24 -67.333 -45.333 -108 -64c-35.333 -16 -77.5 -30.667 -126.5 -44s-104.833 -20 -167.5 -20c-81.333 0 -152.833 9 -214.5 27s-113.167 42.667 -154.5 74
s-72.5 67.833 -93.5 109.5s-31.5 86.5 -31.5 134.5c0 42 8.5 85.333 25.5 130s42.5 89.334 76.5 134.001s76.333 88 127 130s110 81.333 178 118zM566.005 201.998c43.333 0 85.666 7.5 126.999 22.5s80 34.167 116 57.5l-76 93.5c-22 28.333 -43.5 58 -64.5 89
s-42.833 65.333 -65.5 103s-48.667 83.167 -78 136.5c-32 -24 -60.667 -49.5 -86 -76.5s-46.666 -54.5 -63.999 -82.5s-30.5 -55.833 -39.5 -83.5s-13.5 -54.5 -13.5 -80.5c0 -25.333 4.83301 -48.833 14.5 -70.5s24.5 -40.5 44.5 -56.5s45.333 -28.667 76 -38
s67 -14 109 -14zM794.005 1440c-14 0 -29.667 -4.49902 -47 -13.499s-33.5 -21.5 -48.5 -37.5s-27.5 -34.833 -37.5 -56.5s-15 -45.167 -15 -70.5c0 -22 3.16699 -48.333 9.5 -79s13.5 -60.167 21.5 -88.5s15.333 -52.333 22 -72s10.667 -29.5 12 -29.5
c32.667 30 62.5 58.833 89.5 86.5s49.833 55.167 68.5 82.5s33.167 55 43.5 83s15.5 57 15.5 87c0 16.667 -2.16699 31.667 -6.5 45s-11.5 24.666 -21.5 33.999s-23.667 16.5 -41 21.5s-39 7.5 -65 7.5z" />
    <glyph glyph-name="quotesingle" unicode="'" horiz-adv-x="609" 
d="M160 1283c0 12 0.5 27.499 1.5 46.499s2.16699 40 3.5 63s3 47.333 5 73l6 75.5c4.66699 58 10 120.333 16 187c0 20 5 37.833 15 53.5s23 29 39 40s34 19.5 54 25.5s40 9 60 9c16.667 0 32.667 -2.16699 48 -6.5s29 -10.833 41 -19.5s21.5 -20 28.5 -34
s10.5 -30.333 10.5 -49c0 -8 -0.666992 -16.167 -2 -24.5s-3.33301 -17.166 -6 -26.499l-30.5 -105.5l-34 -114.5l-34 -108.5c-11 -34.333 -20.833 -63.5 -29.5 -87.5c-11.333 -32 -27.5 -55.833 -48.5 -71.5s-42.167 -23.5 -63.5 -23.5s-40 8.16699 -56 24.5
s-24 40.833 -24 73.5z" />
    <glyph glyph-name="parenleft" unicode="(" horiz-adv-x="1377" 
d="M704 -384c-55.333 0 -103.17 13.4961 -143.503 40.4961s-73.5 64.667 -99.5 113s-45.333 105.833 -58 172.5s-19 139.334 -19 218.001c0 77.333 6 159.166 18 245.499s29.167 173.5 51.5 261.5s49.166 175.333 80.499 262s66.833 169.167 106.5 247.5
s82.5 151.166 128.5 218.499s94.833 125.666 146.5 174.999s105.334 88 161.001 116s112.834 42 171.501 42c42.667 0 87 -7.33301 133 -22s88.5 -34 127.5 -58s72.667 -51.333 101 -82s46.5 -62 54.5 -94c0 -1.33301 0.166992 -2.66602 0.5 -3.99902
s0.5 -2.66602 0.5 -3.99902c0 -11.333 -4.83301 -24.333 -14.5 -39s-21.667 -28.5 -36 -41.5s-29.666 -23.833 -45.999 -32.5s-30.833 -13 -43.5 -13c-9.33301 0 -16.333 2 -21 6c-16 12 -32.333 27 -49 45s-35 35.5 -55 52.5s-42.333 31.667 -67 44s-53 18.5 -85 18.5
c-40.667 0 -80.5 -12.833 -119.5 -38.5s-76.667 -60.667 -113 -105s-70.833 -96.5 -103.5 -156.5s-62.834 -124.667 -90.501 -194s-52.667 -141.333 -75 -216s-41.333 -149.167 -57 -223.5s-27.834 -146.5 -36.501 -216.5s-13 -134.667 -13 -194
c0 -46.667 2.16699 -89.667 6.5 -129s11.5 -73.166 21.5 -101.499s23.167 -50.333 39.5 -66s36.5 -23.5 60.5 -23.5c17.333 0 36 1.5 56 4.5s42.833 10.833 68.5 23.5s54.334 31.834 86.001 57.501s68.167 61.167 109.5 106.5c8.66699 9.33301 17.834 16 27.501 20
s18.834 6 27.501 6c12.667 0 24.834 -4 36.501 -12s21.667 -18.167 30 -30.5s15 -26.166 20 -41.499s7.5 -30.333 7.5 -45c0 -11.333 -1.5 -22 -4.5 -32s-8.16699 -18.667 -15.5 -26c-88.667 -91.333 -176.334 -156.666 -263.001 -195.999s-170 -59 -250 -59z" />
    <glyph glyph-name="parenright" unicode=")" horiz-adv-x="1279" 
d="M766 1728c66.667 0 124.33 -18.8311 172.997 -56.498s88.5 -89 119.5 -154s54 -140.833 69 -227.5s22.5 -178.667 22.5 -276c0 -98.667 -7.16699 -200 -21.5 -304s-35.166 -205.333 -62.499 -304s-60.666 -192 -99.999 -280s-83.833 -165 -133.5 -231
s-104.334 -118.167 -164.001 -156.5s-123.167 -57.5 -190.5 -57.5c-43.333 0 -87.833 5.33301 -133.5 16s-88 24.834 -127 42.501s-72.667 38 -101 61s-46.5 46.833 -54.5 71.5c0 1.33301 -0.166992 2.66602 -0.5 3.99902s-0.5 2.66602 -0.5 3.99902
c0 11.333 4.83301 24.333 14.5 39s21.667 28.5 36 41.5s29.666 23.833 45.999 32.5s30.833 13 43.5 13c9.33301 0 16.333 -2 21 -6c16 -7.33301 32.333 -16.5 49 -27.5s35 -21.5 55 -31.5s42.333 -18.5 67 -25.5s53 -10.5 85 -10.5c40 0 78.167 17.667 114.5 53
s70 82.666 101 141.999s59 128 84 206s46.333 159.833 64 245.5s31.334 172.5 41.001 260.5s14.5 171.333 14.5 250c0 62.667 -3.16699 120.834 -9.5 174.501s-16.333 100.334 -30 140.001s-31.167 70.834 -52.5 93.501s-46.666 34 -75.999 34
c-17.333 0 -37.5 -1.5 -60.5 -4.5s-48.833 -10.833 -77.5 -23.5s-60.5 -31.834 -95.5 -57.501s-72.833 -61.167 -113.5 -106.5c-8.66699 -9.33301 -17.834 -16 -27.501 -20s-18.834 -6 -27.501 -6c-13.333 0 -25.666 4 -36.999 12s-21.166 18.167 -29.499 30.5
s-15 26.166 -20 41.499s-7.5 30.333 -7.5 45c0 24.667 6.66699 44 20 58c88.667 91.333 176.334 156.666 263.001 195.999s170 59 250 59z" />
    <glyph glyph-name="asterisk" unicode="*" horiz-adv-x="1024" 
d="M689 1708l-24 -68.501l-27 -75l-27.5 -73l-24.5 -62.5l74.5 41l81.5 45l93 51c6 4 12 6.66699 18 8s12.667 2 20 2c14.667 0 29.334 -3.66699 44.001 -11s27.5 -17 38.5 -29s20 -25.333 27 -40s10.5 -29.334 10.5 -44.001c0 -16.667 -5.66699 -31.834 -17 -45.501
s-30.666 -24.167 -57.999 -31.5l-66 -13l-72.5 -13.5l-72 -12.5c-23.667 -4 -45.5 -7.33301 -65.5 -10l60 -27l67 -31l67 -31.5l61 -28.5c19.333 -11.333 33.166 -23.333 41.499 -36s12.5 -25.667 12.5 -39c0 -14 -3.83301 -27.667 -11.5 -41s-17.667 -25.166 -30 -35.499
s-26.166 -18.666 -41.499 -24.999s-30.333 -9.5 -45 -9.5c-23.333 0 -42.666 7.66699 -57.999 23l-82 77l-70 66.5c-24 23 -44 42.833 -60 59.5c-0.666992 -23.333 -1.16699 -51.5 -1.5 -84.5s-0.833008 -64.833 -1.5 -95.5l-2 -111c0 -14.667 -3.66699 -27.667 -11 -39
s-17 -21 -29 -29s-25.333 -14.167 -40 -18.5s-29.334 -6.5 -44.001 -6.5c-12 0 -23.5 1.5 -34.5 4.5s-20.833 7.83301 -29.5 14.5s-15.667 14.834 -21 24.501s-8 21.5 -8 35.5c0 5.33301 0.333008 11.166 1 17.499s2 12.833 4 19.5c6.66699 20.667 14.5 43.167 23.5 67.5
l27 73.5l27 72l24.5 62l-74.5 -41l-80.5 -44l-92 -50c-11.333 -6.66699 -24 -10 -38 -10c-15.333 0 -30.166 3.83301 -44.499 11.5s-27.166 17.5 -38.499 29.5s-20.5 25.333 -27.5 40s-10.5 29.334 -10.5 44.001c0 17.333 5.66699 32.666 17 45.999
s30.666 23.666 57.999 30.999l65 12.5l72 13c24.667 4.33301 48.667 8.33301 72 12l65 10.5l-60 27l-66.5 30.5l-66.5 31l-60 28.5c-36 20.667 -54 45.334 -54 74.001c0 14 3.83301 27.667 11.5 41s17.667 25.333 30 36s26.166 19.167 41.499 25.5s30.666 9.5 45.999 9.5
c23.333 0 42.333 -7.66699 57 -23l82 -77l70 -67l61 -59c0 23.333 0.333008 51.5 1 84.5l2 96.5l2 113c0 14.667 3.66699 27.834 11 39.501s16.666 21.5 27.999 29.5s24.333 14 39 18s29.667 6 45 6c24 0 45.5 -6.33301 64.5 -19s28.5 -32.667 28.5 -60
c0 -5.33301 -0.5 -11 -1.5 -17z" />
    <glyph glyph-name="plus" unicode="+" horiz-adv-x="1503" 
d="M673 416l-224.002 0.00195312c-21.333 0 -40.166 2.66699 -56.499 8s-29.833 12.5 -40.5 21.5s-18.667 19.167 -24 30.5s-8 23 -8 35s2.83301 23.833 8.5 35.5s14 22 25 31s24.833 16.333 41.5 22s36 8.5 58 8.5h220v228c0 18.667 3.16699 35.334 9.5 50.001
s14.833 27.167 25.5 37.5s22.334 18.166 35.001 23.499s25.667 8 39 8c21.333 0 40.5 -8 57.5 -24s25.5 -41.333 25.5 -76v-247h250c34.667 0 60 -8.5 76 -25.5s24 -36.167 24 -57.5c0 -13.333 -2.66699 -26.333 -8 -39s-13.166 -24.334 -23.499 -35.001
s-22.833 -19.167 -37.5 -25.5s-31.334 -9.5 -50.001 -9.5h-231v-223c0 -22 -2.83301 -41.333 -8.5 -58s-13 -30.5 -22 -41.5s-19.333 -19.333 -31 -25s-23.5 -8.5 -35.5 -8.5s-23.667 2.66699 -35 8s-21.5 13.333 -30.5 24s-16.167 24.167 -21.5 40.5s-8 35.166 -8 56.499
v227z" />
    <glyph glyph-name="comma" unicode="," horiz-adv-x="609" 
d="M293 -72l8 33.501c3.33301 13.667 7.16602 28.5 11.499 44.5l14 50.5l14.5 52.5l36 128c4 14 10.5 26.333 19.5 37s19.667 19.5 32 26.5s25.833 12.167 40.5 15.5s29.667 5 45 5c18.667 0 37.334 -2.5 56.001 -7.5s35.5 -12.5 50.5 -22.5s27.167 -22.167 36.5 -36.5
s14 -30.833 14 -49.5c0 -13.333 -2.33301 -26.333 -7 -39s-11 -26.334 -19 -41.001l-41.5 -64.5l-45 -69l-44 -66l-37.5 -54.5c-16 -22 -33.667 -37.833 -53 -47.5s-38 -14.5 -56 -14.5c-22 0 -41 7.16699 -57 21.5s-24 34.5 -24 60.5c0 10.667 2 23 6 37z" />
    <glyph glyph-name="hyphen" unicode="-" horiz-adv-x="768" 
d="M608 704c8.66699 0 18.668 -0.999023 30.001 -2.99902s21.666 -5.83301 30.999 -11.5s17.333 -13.334 24 -23.001s10 -22.5 10 -38.5c0 -13.333 -1.5 -26.833 -4.5 -40.5s-9 -26 -18 -37s-21.833 -20.167 -38.5 -27.5s-39 -11 -67 -11h-415
c-21.333 0 -38.333 3.83301 -51 11.5s-22.5 17 -29.5 28s-11.5 22.833 -13.5 35.5s-3 24 -3 34c0 8.66699 1 17.834 3 27.501s6.33301 18.667 13 27s16.5 15.166 29.5 20.499s30.167 8 51.5 8h448z" />
    <glyph glyph-name="period" unicode="." horiz-adv-x="704" 
d="M672 191c0 -2.66699 -0.331055 -9.33301 -0.998047 -20s-2.83398 -23 -6.50098 -37s-9.33398 -28.833 -17.001 -44.5s-18.5 -30.167 -32.5 -43.5s-31.667 -24.333 -53 -33s-47.333 -13 -78 -13c-24.667 0 -47 3.16699 -67 9.5s-37.167 16 -51.5 29s-25.5 29.667 -33.5 50
s-12 44.833 -12 73.5c0 24 3.5 47.5 10.5 70.5s17.833 43.5 32.5 61.5s33.667 32.333 57 43s51 16 83 16c55.333 0 97.333 -14 126 -42s43 -68 43 -120z" />
    <glyph glyph-name="slash" unicode="/" 
d="M928 1696c8.66699 18.667 20.833 37.501 36.5 56.501s34.5 36.167 56.5 51.5s46.667 27.833 74 37.5s57 14.5 89 14.5c16 0 28.333 -3.16699 37 -9.5s15 -14.333 19 -24s6.33301 -20 7 -31s1 -21.5 1 -31.5c0 -5.33301 -1.83301 -13.833 -5.5 -25.5
s-8.33398 -24.167 -14.001 -37.5l-17.5 -40.5l-15 -34.5c-35.333 -77.333 -75.333 -170.833 -120 -280.5l-151 -365.5l-186 -432c-68 -154 -143 -314 -225 -480c-13.333 -22 -27.166 -39.333 -41.499 -52s-29 -22.334 -44 -29.001s-29.833 -11 -44.5 -13s-29 -3 -43 -3
s-28 0.666992 -42 2s-26.667 4.83301 -38 10.5s-20.666 14.334 -27.999 26.001s-11 28.167 -11 49.5c0 17.333 3.16699 37.666 9.5 60.999s16.166 50.333 29.499 81l43.5 98l70 157.5l88.5 199.5l99.5 225l104 234l100.5 226l89.5 200.5z" />
    <glyph glyph-name="zero" unicode="0" horiz-adv-x="863" 
d="M345 0c-51.333 0 -96.168 11.167 -134.501 33.5s-70.166 52.333 -95.499 90s-44.333 81.334 -57 131.001s-19 102.167 -19 157.5c0 48.667 4.5 98.5 13.5 149.5s22.167 100.333 39.5 148s38.833 92.667 64.5 135s55.167 79.333 88.5 111s70.5 56.667 111.5 75
s85.5 27.5 133.5 27.5c55.333 0 103.166 -10.5 143.499 -31.5s73.5 -49.5 99.5 -85.5s45.167 -77.833 57.5 -125.5s18.5 -98.167 18.5 -151.5c0 -49.333 -4.83301 -100 -14.5 -152s-23.834 -102.667 -42.501 -152s-41.5 -95.833 -68.5 -139.5s-57.667 -81.834 -92 -114.501
s-72.166 -58.5 -113.499 -77.5s-85.666 -28.5 -132.999 -28.5zM360.998 182c18 0 35.667 8.16992 53 24.5029s33.666 38.166 48.999 65.499s29.5 58.666 42.5 93.999s24.167 71.833 33.5 109.5s16.666 75.167 21.999 112.5s8 71.666 8 102.999c0 26 -1.66699 50.333 -5 73
s-8.33301 42.334 -15 59.001s-15.167 29.834 -25.5 39.501s-22.833 14.5 -37.5 14.5c-20 0 -38.833 -8.16699 -56.5 -24.5s-34 -37.833 -49 -64.5s-28.333 -57.334 -40 -92.001s-21.667 -70.5 -30 -107.5s-14.666 -73.667 -18.999 -110s-6.5 -69.833 -6.5 -100.5
c0 -28 1.5 -53.833 4.5 -77.5s7.66699 -44.334 14 -62.001s14.333 -31.5 24 -41.5s20.834 -15 33.501 -15z" />
    <glyph glyph-name="one" unicode="1" horiz-adv-x="672" 
d="M320 850c-10 -10.667 -20.833 -21.502 -32.5 -32.502s-23 -21 -34 -30s-21.167 -16.333 -30.5 -22s-16.333 -8.5 -21 -8.5c-62.667 0 -110.667 5.5 -144 16.5s-50 22.167 -50 33.5c0 7.33301 7 13.333 21 18s35.667 7 65 7c7.33301 0 18.333 5.5 33 16.5
s32.167 24.833 52.5 41.5l67.5 54c24.667 19.333 50 37.333 76 54s52.333 30.5 79 41.5s52.667 16.5 78 16.5c36 0 60 -2.5 72 -7.5s18 -12.167 18 -21.5c0 -10 -1.33301 -22.333 -4 -37s-4 -32 -4 -52l-5.5 -36l-14.5 -94l-20.5 -131.5l-22.5 -149l-21 -147l-17 -124.5
c-2 -8 -4.5 -20 -7.5 -36s-7.16699 -33.5 -12.5 -52.5s-11.833 -38.333 -19.5 -58s-16.834 -37.667 -27.501 -54s-23.167 -29.666 -37.5 -39.999s-30.5 -15.5 -48.5 -15.5c-22 0 -42.667 1.33301 -62 4s-36 6.83398 -50 12.501s-25 13 -33 22s-12 19.833 -12 32.5
c0 5.33301 0.333008 10.666 1 15.999s3.33398 12 8.00098 20c10.667 38.667 21.167 78.834 31.5 120.501l30 125.5l27.5 124.5l24 116.5c17.333 86 33 171.333 47 256z" />
    <glyph glyph-name="two" unicode="2" horiz-adv-x="927" 
d="M753 1c-19.333 0 -38.8291 2.83203 -58.4961 8.49902s-39.334 13.334 -59.001 23.001s-39.334 20.667 -59.001 33s-39.167 25.5 -58.5 39.5c-38.667 -29.333 -79.667 -53.166 -123 -71.499s-89.333 -29.166 -138 -32.499c-34.667 0 -67 6.16699 -97 18.5
s-56.167 28.666 -78.5 48.999s-39.833 43.833 -52.5 70.5s-19 54 -19 82c0 22 3.66699 44.5 11 67.5s18.833 44 34.5 63s35.667 34.5 60 46.5s53.833 18 88.5 18c52.667 0 99.167 -7.66699 139.5 -23s77.5 -33.666 111.5 -54.999c20 24 38.833 49.833 56.5 77.5
s33.167 56.167 46.5 85.5s23.833 58.833 31.5 88.5s11.5 58.834 11.5 87.501c0 48.667 -4.66699 88.5 -14 119.5s-21.5 55.167 -36.5 72.5s-31.5 29.166 -49.5 35.499s-35.667 9.5 -53 9.5c-21.333 0 -41.5 -3.66699 -60.5 -11s-36 -17.5 -51 -30.5
s-26.833 -28.5 -35.5 -46.5s-13 -38 -13 -60c0 -12 9.5 -24.333 28.5 -37s49.5 -25.667 91.5 -39c1.33301 -4 2 -7.33301 2 -10c0 -8 -7.66699 -16.5 -23 -25.5s-34.5 -17.333 -57.5 -25s-48.167 -14 -75.5 -19s-53 -7.5 -77 -7.5c-5.33301 5.33301 -10.5 8.33301 -15.5 9
s-9.5 1 -13.5 1c-28 22.667 -48.333 47.167 -61 73.5s-19 53.5 -19 81.5c0 37.333 10.5 74.5 31.5 111.5s49.667 70.167 86 99.5s79 53 128 71s101.167 27 156.5 27c14.667 0 34.167 -1.5 58.5 -4.5s50.666 -9.16699 78.999 -18.5s57 -22.166 86 -38.499
s55.333 -37.833 79 -64.5s43 -59.334 58 -98.001s22.5 -84.334 22.5 -137.001c0 -29.333 -4.83301 -63.833 -14.5 -103.5s-23.667 -81.667 -42 -126s-41 -89.5 -68 -135.5s-57.5 -89.333 -91.5 -130c22.667 -11.333 46.167 -20.5 70.5 -27.5s51.166 -10.5 80.499 -10.5
c7.33301 0 15.5 5.16699 24.5 15.5s17.5 21.833 25.5 34.5l22.5 34.5c7 10.333 12.167 15.5 15.5 15.5c9.33301 0 16.833 -3.66699 22.5 -11s8.5 -20.333 8.5 -39c0 -24.667 -5.33301 -60.334 -16 -107.001c-3.33301 -13.333 -8 -27.333 -14 -42s-14.333 -28.167 -25 -40.5
s-24.167 -22.5 -40.5 -30.5s-35.833 -12 -58.5 -12zM244.004 190.999c28 0 61.666 14.001 100.999 42.001c-16 10 -31.167 18 -45.5 24s-27.166 9 -38.499 9c-30 0 -51.167 -2.66699 -63.5 -8s-18.5 -12 -18.5 -20c0 -6 1.83301 -11.667 5.5 -17s8.5 -10.333 14.5 -15
s13 -8.33398 21 -11.001s16 -4 24 -4z" />
    <glyph glyph-name="three" unicode="3" horiz-adv-x="831" 
d="M239 249c0 -22.667 2.33105 -42 6.99805 -58s11.167 -29 19.5 -39s18 -17.333 29 -22s22.5 -7 34.5 -7c17.333 0 35 4.16699 53 12.5s34.167 19.833 48.5 34.5s26.166 32.167 35.499 52.5s14 42.166 14 65.499c0 38 -4.66699 69.833 -14 95.5s-23.5 46.667 -42.5 63
s-43 28.833 -72 37.5s-62.833 15 -101.5 19c-21.333 1.33301 -36.666 5.83301 -45.999 13.5s-14 17.167 -14 28.5c0 9.33301 1.16699 19.5 3.5 30.5s6 21.333 11 31s11.833 17.667 20.5 24s19 9.5 31 9.5c26.667 0 50.667 5 72 15s39.5 22.5 54.5 37.5s26.333 31.667 34 50
s11.5 36.166 11.5 53.499c0 22.667 -7.16699 42 -21.5 58s-36.833 24 -67.5 24c-24 0 -44.167 -5.66699 -60.5 -17s-24.5 -24.666 -24.5 -39.999c0 -8 2.83301 -16.333 8.5 -25s15.167 -16.667 28.5 -24c7.33301 -4 11 -8.33301 11 -13
c0 -5.33301 -4.83301 -10.5 -14.5 -15.5s-20.834 -9.33301 -33.501 -13s-24.667 -6.66699 -36 -9s-19 -3.5 -23 -3.5c-8 0 -15.833 1.83301 -23.5 5.5s-14.834 9.83398 -21.501 18.501s-12 20.334 -16 35.001s-6 33 -6 55c0 34.667 7.66699 64.667 23 90
s35.833 46.333 61.5 63s54.834 29 87.501 37s66.334 12 101.001 12c37.333 0 74.166 -4.5 110.499 -13.5s68.666 -22 96.999 -39s51.333 -38 69 -63s26.5 -53.833 26.5 -86.5c0 -18.667 -2.16699 -39.167 -6.5 -61.5s-12.666 -44.5 -24.999 -66.5s-30 -42.833 -53 -62.5
s-52.833 -36.167 -89.5 -49.5c40.667 -10.667 75.5 -26.5 104.5 -47.5s52.667 -45.667 71 -74s31.833 -59 40.5 -92s13 -66.833 13 -101.5c0 -35.333 -9 -70.5 -27 -105.5s-43.167 -66.333 -75.5 -94s-70.666 -50.167 -114.999 -67.5s-92.833 -26 -145.5 -26
c-62 0 -115.167 6.66699 -159.5 20s-80.666 32.333 -108.999 57s-49 54.167 -62 88.5s-19.5 72.166 -19.5 113.499c0 25.333 3.83301 46.5 11.5 63.5s17.834 30.667 30.501 41s27.334 17.666 44.001 21.999s34 6.5 52 6.5c15.333 0 32.666 -1.83301 51.999 -5.5
s37.333 -8.5 54 -14.5s30.667 -12.667 42 -20s17 -14.333 17 -21c0 -5.33301 -5.66699 -9.66602 -17 -12.999s-24 -7.83301 -38 -13.5s-26.667 -13 -38 -22s-17 -21.5 -17 -37.5z" />
    <glyph glyph-name="four" unicode="4" horiz-adv-x="927" 
d="M770 -38c-28.667 0 -57.8291 -1.17285 -87.4961 -3.50586s-58.167 -3.5 -85.5 -3.5c-21.333 0 -40 1.5 -56 4.5s-29.667 8.83301 -41 17.5s-19.833 20.5 -25.5 35.5s-8.5 34.5 -8.5 58.5c0 26.667 3.33301 57.334 10 92.001s15 71.334 25 110.001
c-41.333 0 -79.333 -4.16699 -114 -12.5s-67.334 -17.666 -98.001 -27.999s-59.834 -19.666 -87.501 -27.999s-54.834 -12.5 -81.501 -12.5c-12 0 -20.667 4.33301 -26 13s-8 19.334 -8 32.001c0 17.333 5.33301 37.666 16 60.999s24.667 48 42 74l38.5 102.5
c11.667 31.667 22.167 62.334 31.5 92.001s18 59.5 26 89.5s15.833 61.833 23.5 95.5s15.5 70 23.5 109l26 131.5c4 10.667 12.167 19.667 24.5 27s27.166 13.5 44.499 18.5s36.166 8.66699 56.499 11s40.5 3.5 60.5 3.5c16.667 0 32.5 -0.833008 47.5 -2.5
s28 -3.83398 39 -6.50098s19.833 -6.16699 26.5 -10.5s10 -8.83301 10 -13.5c-7.33301 -51.333 -17.833 -102.333 -31.5 -153s-29.667 -101.667 -48 -153s-38.666 -103.5 -60.999 -156.5l-70.5 -162.5c25.333 -1.33301 46.666 -2.16602 63.999 -2.49902s33 -0.5 47 -0.5h13
l40 126.5l37 115.5c4 17.333 11.5 32.166 22.5 44.499s23.5 22.333 37.5 30s28.5 13.334 43.5 17.001s28.5 5.5 40.5 5.5c31.333 0 52.5 -5 63.5 -15s16.5 -23.667 16.5 -41c0 -10.667 -2.16699 -25 -6.5 -43s-10.166 -38.333 -17.499 -61l-25 -74l-28 -82
c33.333 5.33301 63.333 10.5 90 15.5s49.334 7.5 68.001 7.5c8.66699 0 14.834 -3.66699 18.501 -11s5.5 -17 5.5 -29c0 -28.667 -2.5 -51.667 -7.5 -69s-10.833 -30.833 -17.5 -40.5s-13.334 -16 -20.001 -19s-11.667 -4.5 -15 -4.5c-25.333 0 -51.833 0.5 -79.5 1.5
s-56.5 2.16699 -86.5 3.5c-5.33301 -21.333 -10 -42.166 -14 -62.499s-6.66699 -39.5 -8 -57.5v-19c0 -12 4.83301 -25.667 14.5 -41s20.167 -30.5 31.5 -45.5l31.5 -41.5c9.66699 -12.667 14.5 -22.667 14.5 -30c0 -3.33301 -0.833008 -5.83301 -2.5 -7.5
s-5.83398 -2.5 -12.501 -2.5z" />
    <glyph glyph-name="five" unicode="5" horiz-adv-x="831" 
d="M478 777c-28 2.66699 -51.5088 5.83594 -70.5088 9.50293s-35.5 7 -49.5 10s-26.333 5.5 -37 7.5s-22 3 -34 3c-4 0 -8.33301 -0.166992 -13 -0.5s-9.66699 -0.833008 -15 -1.5c2.66699 -16 5.33398 -33 8.00098 -51c2.66699 -15.333 5.5 -33 8.5 -53
s6.83301 -40.667 11.5 -62c40 4 77.333 6 112 6c64 0 118.333 -5.83301 163 -17.5s81.834 -27 111.501 -46s52.834 -40.833 69.501 -65.5s29.167 -49.834 37.5 -75.501s13.5 -51 15.5 -76s3 -47.5 3 -67.5c0 -38 -10 -75.667 -30 -113s-47.833 -70.833 -83.5 -100.5
s-78.167 -53.667 -127.5 -72s-103.333 -27.5 -162 -27.5c-62 0 -115.167 6.66699 -159.5 20s-80.666 32.333 -108.999 57s-49 54.167 -62 88.5s-19.5 72.166 -19.5 113.499c0 25.333 3.83301 46.5 11.5 63.5s17.834 30.667 30.501 41s27.334 17.666 44.001 21.999
s34 6.5 52 6.5c15.333 0 32.666 -1.83301 51.999 -5.5s37.333 -8.5 54 -14.5s30.667 -12.667 42 -20s17 -14.333 17 -21c0 -5.33301 -5.66699 -9.66602 -17 -12.999s-24 -7.83301 -38 -13.5s-26.667 -13 -38 -22s-17 -21.5 -17 -37.5c0 -22.667 2.33301 -42 7 -58
s11.167 -29 19.5 -39s18 -17.333 29 -22s22.5 -7 34.5 -7c22 0 44.333 4.66699 67 14s43.167 22.166 61.5 38.499s33.333 35.833 45 58.5s17.5 47.334 17.5 74.001c0 32.667 -4.66699 60.167 -14 82.5s-23.5 40.5 -42.5 54.5s-43 24.667 -72 32
s-62.833 12.666 -101.5 15.999c-19.333 3.33301 -35.666 5.83301 -48.999 7.5s-24.5 4.5 -33.5 8.5s-16.333 10.333 -22 19s-10 21.5 -13 38.5s-5.16699 39.167 -6.5 66.5s-2.33301 61.666 -3 102.999c-1.33301 20 -2.5 38.5 -3.5 55.5s-1.5 33.167 -1.5 48.5
c0 51.333 3.66699 89.833 11 115.5s15.833 43.5 25.5 53.5s19.5 15 29.5 15h25c19.333 0 38.833 -1.83301 58.5 -5.5s39.5 -7.66699 59.5 -12s40.5 -8.33301 61.5 -12s42.167 -5.5 63.5 -5.5c6.66699 0 13.167 0.166992 19.5 0.5s12.833 1.16602 19.5 2.49902
c30 6.66699 51.333 12.334 64 17.001s21.334 8.5 26.001 11.5s7.5 5.33301 8.5 7s5.16699 2.5 12.5 2.5c24.667 0 42.5 -11.833 53.5 -35.5s16.5 -54.834 16.5 -93.501v-5c0 -3.33301 -1.83301 -8.16602 -5.5 -14.499s-10 -13.666 -19 -21.999s-22.167 -17.333 -39.5 -27
s-39.666 -19.167 -66.999 -28.5s-61.666 -18.333 -102.999 -27z" />
    <glyph glyph-name="six" unicode="6" horiz-adv-x="928" 
d="M625 432c0 43.333 -7.33496 76.4961 -22.002 99.4961s-33.334 34.5 -56.001 34.5c-16.667 0 -30.667 -4.16699 -42 -12.5s-21 -18.666 -29 -30.999s-15 -25.833 -21 -40.5s-12 -28.167 -18 -40.5s-12.333 -22.666 -19 -30.999s-14.667 -12.5 -24 -12.5
c-3.33301 0 -7.16602 7.83301 -11.499 23.5s-6.5 35.167 -6.5 58.5c0 36.667 7.5 69.667 22.5 99s34.5 54.166 58.5 74.499s51.333 36 82 47s62 16.5 94 16.5c30.667 0 60.334 -5.33301 89.001 -16s54.334 -27.167 77.001 -49.5s40.834 -50.833 54.501 -85.5
s20.5 -76 20.5 -124c0 -53.333 -10.333 -106.333 -31 -159s-50.334 -100 -89.001 -142s-85.667 -76 -141 -102s-118 -39 -188 -39c-48.667 0 -96.334 7.16699 -143.001 21.5s-88.334 37.5 -125.001 69.5s-66.167 73.333 -88.5 124s-33.5 112.334 -33.5 185.001
c0 82.667 15.833 163.334 47.5 242.001s74.834 152.5 129.501 221.5s119 132 193 189s153 105.167 237 144.5c13.333 6 25.833 10.833 37.5 14.5s23.5 5.5 35.5 5.5c29.333 0 52.333 -7.5 69 -22.5s25 -33.167 25 -54.5c0 -15.333 -4.5 -31 -13.5 -47
s-24.167 -31.333 -45.5 -46c-59.333 -35.333 -117.166 -78.166 -173.499 -128.499s-106.333 -105.5 -150 -165.5s-78.834 -123.5 -105.501 -190.5s-40 -134.167 -40 -201.5c0 -26 2.5 -50.667 7.5 -74s13.333 -44 25 -62s26.834 -32.167 45.501 -42.5s42 -15.5 70 -15.5
c28.667 0 55.167 8.16699 79.5 24.5s45 37.333 62 63s30.333 54.167 40 85.5s14.5 62 14.5 92z" />
    <glyph glyph-name="seven" unicode="7" horiz-adv-x="608" 
d="M271 -56c-5.33301 0 -14.6699 1.16895 -28.0029 3.50195s-27.166 7.33301 -41.499 15s-27 18.334 -38 32.001s-16.5 31.834 -16.5 54.501v7.5c0 2.33301 0.333008 5.16602 1 8.49902c10.667 61.333 28.167 123.166 52.5 185.499s53.666 125.166 87.999 188.499
s73.166 127.666 116.499 192.999l139 200c-32 8 -58 15.667 -78 23l-51.5 19c-14.333 5.33301 -27.666 9.66602 -39.999 12.999s-26.5 5 -42.5 5c-21.333 0 -39 -0.333008 -53 -1s-25.833 -3 -35.5 -7s-18.334 -10 -26.001 -18s-16.167 -19.333 -25.5 -34
c-20.667 -32 -38 -55.5 -52 -70.5s-26.667 -22.5 -38 -22.5c-10.667 0 -18.167 4.83301 -22.5 14.5s-6.5 22.5 -6.5 38.5c0 6.66699 0.333008 13.834 1 21.501s1.66699 15.5 3 23.5c10 58 24.333 105 43 141s39.5 63.833 62.5 83.5s47 33 72 40s48.167 10.5 69.5 10.5
c24.667 0 49 -3.83301 73 -11.5s48.5 -16.167 73.5 -25.5s50.5 -17.833 76.5 -25.5s53 -11.834 81 -12.501c13.333 -0.666992 25.5 -1 36.5 -1h30.5c26.667 0 47.834 0.5 63.501 1.5s27.667 2.16699 36 3.5s14.333 2.5 18 3.5s6.5 1.5 8.5 1.5
c23.333 0 40.166 -8.16699 50.499 -24.5s15.5 -38.5 15.5 -66.5c0 -18 -2 -37.333 -6 -58c-0.666992 -4 -6 -10.167 -16 -18.5s-21.5 -17.166 -34.5 -26.499l-39.5 -27.5l-31 -20.5c-44 -60 -81 -119.5 -111 -178.5s-56.5 -119.833 -79.5 -182.5
s-44.5 -128.167 -64.5 -196.5l-65 -220.5c-5.33301 -18.667 -14.666 -33.5 -27.999 -44.5s-28.166 -19.167 -44.499 -24.5s-33.166 -8.83301 -50.499 -10.5s-32.666 -2.5 -45.999 -2.5z" />
    <glyph glyph-name="eight" unicode="8" horiz-adv-x="801" 
d="M148 827c0 48.667 11.832 91.335 35.499 128.002s54.167 67.167 91.5 91.5s79.5 42.5 126.5 54.5s93.5 18 139.5 18c38.667 0 75.667 -4 111 -12s66.333 -20 93 -36s48 -36 64 -60s24 -52 24 -84c0 -58 -8.33301 -108.333 -25 -151s-38.667 -80 -66 -112
s-59.166 -59.833 -95.499 -83.5s-73.833 -45.167 -112.5 -64.5c29.333 -22 57.666 -44.833 84.999 -68.5s51.666 -48.834 72.999 -75.501s38.333 -55.334 51 -86.001s19 -64 19 -100c0 -46.667 -9.5 -89.167 -28.5 -127.5s-45.333 -71.333 -79 -99
s-73.5 -49.167 -119.5 -64.5s-96.333 -23 -151 -23c-38.667 0 -78.667 4 -120 12s-79.166 22.667 -113.499 44s-62.666 50.833 -84.999 88.5s-33.5 86.167 -33.5 145.5c0 50.667 7.83301 95.5 23.5 134.5s36.167 74 61.5 105s54.333 58.5 87 82.5s66 46.667 100 68
c-54 34.667 -93.5 76.5 -118.5 125.5s-37.5 98.833 -37.5 149.5zM498.999 996.001c-19.333 0 -37.832 -3.16992 -55.499 -9.50293s-33 -15.5 -46 -27.5s-23.333 -26.5 -31 -43.5s-11.5 -36.167 -11.5 -57.5c0 -17.333 1.83301 -35.666 5.5 -54.999
s9.16699 -38.666 16.5 -57.999s16.166 -38.166 26.499 -56.499s22.5 -34.833 36.5 -49.5c22.667 14 44.5 31.833 65.5 53.5s39.833 44.5 56.5 68.5s30 48 40 72s15 45.667 15 65c0 16.667 -3.33301 31.167 -10 43.5s-15.5 22.5 -26.5 30.5s-23.667 14 -38 18
s-28.833 6 -43.5 6zM506 236.998c0 34 -8.16992 63.667 -24.5029 89s-36.166 49.666 -59.499 72.999c-26 -12 -50.167 -25 -72.5 -39s-41.666 -29.667 -57.999 -47s-29 -36.833 -38 -58.5s-13.5 -46.167 -13.5 -73.5c0 -21.333 3.16699 -40 9.5 -56s14.5 -29.5 24.5 -40.5
s21 -19.333 33 -25s23.667 -8.5 35 -8.5c20 0 39.833 3.83301 59.5 11.5s37.334 19.334 53.001 35.001s28.167 35 37.5 58s14 50.167 14 81.5z" />
    <glyph glyph-name="nine" unicode="9" horiz-adv-x="927" 
d="M464 511c12.667 14 21.668 21.002 27.001 21.002s8.33301 -1.83301 9 -5.5s1 -8.83398 1 -15.501c0 -21.333 -4.83301 -43.833 -14.5 -67.5s-23 -45.5 -40 -65.5s-37.333 -36.5 -61 -49.5s-49.5 -19.5 -77.5 -19.5c-44 0 -82.167 9.66699 -114.5 29
s-58.833 44.166 -79.5 74.499s-36 64.666 -46 102.999s-15 76.5 -15 114.5c0 34.667 4.33301 70 13 106s21.334 71 38.001 105s37.334 66 62.001 96s53.334 56.167 86.001 78.5s69 40 109 53s83.667 19.5 131 19.5c40.667 0 83.167 -7.66699 127.5 -23
s84.833 -39.5 121.5 -72.5s66.834 -75.167 90.501 -126.5s35.5 -113.333 35.5 -186c0 -107.333 -15.5 -204.333 -46.5 -291s-73.333 -164.167 -127 -232.5s-116.334 -128 -188.001 -179s-148.167 -94.5 -229.5 -130.5c-13.333 -6 -26 -11 -38 -15s-23.667 -6 -35 -6
c-30 0 -53.333 6.5 -70 19.5s-25 28.833 -25 47.5c0 15.333 4.66699 31.166 14 47.499s24.666 31.5 45.999 45.5c66.667 34 127.5 71.833 182.5 113.5s102.167 89.334 141.5 143.001s69.666 113.834 90.999 180.501s32 141.667 32 225c0 32.667 -2.16699 64 -6.5 94
s-11.833 56.5 -22.5 79.5s-24.834 41.333 -42.501 55s-39.834 20.5 -66.501 20.5c-27.333 0 -52.333 -8.5 -75 -25.5s-42.167 -38.667 -58.5 -65s-29 -55.833 -38 -88.5s-13.5 -64.667 -13.5 -96c0 -24 3 -45.333 9 -64s14 -34.5 24 -47.5s21.333 -22.833 34 -29.5
s25.667 -10 39 -10c11.333 0 22.833 3.33301 34.5 10s22.167 16.667 31.5 30z" />
    <glyph glyph-name="colon" unicode=":" horiz-adv-x="704" 
d="M732 863c0 -2.66699 -0.331055 -9.33301 -0.998047 -20s-2.83398 -23 -6.50098 -37s-9.33398 -28.833 -17.001 -44.5s-18.5 -30.167 -32.5 -43.5s-31.667 -24.333 -53 -33s-47.333 -13 -78 -13c-24.667 0 -47 3.16699 -67 9.5s-37.167 16 -51.5 29s-25.5 29.667 -33.5 50
s-12 44.833 -12 73.5c0 24 3.5 47.5 10.5 70.5s17.833 43.5 32.5 61.5s33.667 32.333 57 43s51 16 83 16c55.333 0 97.333 -14 126 -42s43 -68 43 -120zM672.002 191.001c0 -2.66699 -0.331055 -9.33301 -0.998047 -20s-2.83398 -23 -6.50098 -37
s-9.33398 -28.833 -17.001 -44.5s-18.5 -30.167 -32.5 -43.5s-31.667 -24.333 -53 -33s-47.333 -13 -78 -13c-24.667 0 -47 3.16699 -67 9.5s-37.167 16 -51.5 29s-25.5 29.667 -33.5 50s-12 44.833 -12 73.5c0 24 3.5 47.5 10.5 70.5s17.833 43.5 32.5 61.5
s33.667 32.333 57 43s51 16 83 16c55.333 0 97.333 -14 126 -42s43 -68 43 -120z" />
    <glyph glyph-name="semicolon" unicode=";" horiz-adv-x="768" 
d="M293 -72l8 33.501c3.33301 13.667 7.16602 28.5 11.499 44.5l14 50.5l14.5 52.5l36 128c4 14 10.5 26.333 19.5 37s19.667 19.5 32 26.5s25.833 12.167 40.5 15.5s29.667 5 45 5c18.667 0 37.334 -2.5 56.001 -7.5s35.5 -12.5 50.5 -22.5s27.167 -22.167 36.5 -36.5
s14 -30.833 14 -49.5c0 -13.333 -2.33301 -26.333 -7 -39s-11 -26.334 -19 -41.001l-41.5 -64.5l-45 -69l-44 -66l-37.5 -54.5c-16 -22 -33.667 -37.833 -53 -47.5s-38 -14.5 -56 -14.5c-22 0 -41 7.16699 -57 21.5s-24 34.5 -24 60.5c0 10.667 2 23 6 37zM732 863.001
c0 -2.66699 -0.331055 -9.33301 -0.998047 -20s-2.83398 -23 -6.50098 -37s-9.33398 -28.833 -17.001 -44.5s-18.5 -30.167 -32.5 -43.5s-31.667 -24.333 -53 -33s-47.333 -13 -78 -13c-24.667 0 -47 3.16699 -67 9.5s-37.167 16 -51.5 29s-25.5 29.667 -33.5 50
s-12 44.833 -12 73.5c0 24 3.5 47.5 10.5 70.5s17.833 43.5 32.5 61.5s33.667 32.333 57 43s51 16 83 16c55.333 0 97.333 -14 126 -42s43 -68 43 -120z" />
    <glyph glyph-name="less" unicode="&#x3c;" horiz-adv-x="1184" 
d="M493 275c-86.667 29.333 -158.163 56.665 -214.496 81.998s-100.833 51.333 -133.5 78s-55.334 55.167 -68.001 85.5s-19 65.5 -19 105.5c0 38.667 8.5 69.5 25.5 92.5s39.5 42.333 67.5 58s59.833 29.667 95.5 42s72.167 27.166 109.5 44.499
c1.33301 0.666992 14.166 6.33398 38.499 17.001l93.5 40.5l127.5 54l139 57.5l128.5 51c40 15.333 72.333 27 97 35c14.667 4.66699 29.334 7 44.001 7c18 0 33.167 -3.83301 45.5 -11.5s22.666 -17.5 30.999 -29.5s14.666 -24.833 18.999 -38.5
s7.66602 -26.667 9.99902 -39s3.66602 -22.666 3.99902 -30.999s0.5 -12.833 0.5 -13.5c0 -26 -7 -45.667 -21 -59s-33 -23.666 -57 -30.999l-802 -259l655 -240c10.667 -4 23.5 -11 38.5 -21s29.167 -22.167 42.5 -36.5s24.833 -30.833 34.5 -49.5s14.5 -39 14.5 -61
c0 -23.333 -9.16699 -42.333 -27.5 -57s-43.5 -22 -75.5 -22c-28.667 0 -60.5 5.33301 -95.5 16s-71.667 23.667 -110 39l-118 48.5c-40.333 17 -80.166 32.167 -119.499 45.5z" />
    <glyph glyph-name="equal" unicode="=" horiz-adv-x="1707" 
d="M483 382c-16 0 -32 2.00098 -48 6.00098s-30.333 10.333 -43 19s-23 19.834 -31 33.501s-12 30.167 -12 49.5c0 25.333 6.5 45.666 19.5 60.999s30.667 27 53 35s48.166 13.333 77.499 16s60 4 92 4h110.5h150c55 0 113 0.166992 174 0.5s121.833 0.5 182.5 0.5h176.5
h154.5c16.667 0 30.334 -1.66699 41.001 -5s19 -8 25 -14s10.167 -12.667 12.5 -20s3.5 -15 3.5 -23c0 -23.333 -3.83301 -44.833 -11.5 -64.5s-21 -36.834 -40 -51.501s-44.333 -26.167 -76 -34.5s-71.167 -12.5 -118.5 -12.5h-892z" />
    <glyph glyph-name="greater" unicode="&#x3e;" horiz-adv-x="1184" 
d="M709 255c-39.333 -13.333 -79.1611 -28.498 -119.494 -45.498l-118 -48.5c-38.333 -15.333 -75 -28.333 -110 -39s-66.833 -16 -95.5 -16c-32 0 -57.167 7.33301 -75.5 22s-27.5 33.667 -27.5 57c0 22 3.16699 42.333 9.5 61s14.166 35.167 23.499 49.5
s19.166 26.5 29.499 36.5s19.5 17 27.5 21l685 260l-722 219c-24 7.33301 -43 17.666 -57 30.999s-21 33 -21 59c0 0.666992 0.166992 5.16699 0.5 13.5s1.66602 18.666 3.99902 30.999s5.66602 25.333 9.99902 39s10.666 26.5 18.999 38.5s18.666 21.833 30.999 29.5
s27.5 11.5 45.5 11.5c14.667 0 29.334 -2.33301 44.001 -7c22 -6.66699 50.5 -16.334 85.5 -29.001s72.5 -27 112.5 -43l120.5 -49l110 -45.5l81.5 -34c21.333 -9 32.666 -13.833 33.999 -14.5c37.333 -17.333 73.833 -32.166 109.5 -44.499s67.5 -26.333 95.5 -42
s50.5 -35 67.5 -58s25.5 -53.833 25.5 -92.5c0 -42 -6.16699 -79.167 -18.5 -111.5s-34.5 -62.5 -66.5 -90.5s-75.5 -55.5 -130.5 -82.5s-124.833 -55.833 -209.5 -86.5z" />
    <glyph glyph-name="question" unicode="?" horiz-adv-x="1292" 
d="M711 584c-10 -32 -24.167 -56.332 -42.5 -72.999s-38.5 -25 -60.5 -25c-23.333 0 -43.833 5 -61.5 15s-26.5 26.333 -26.5 49c0 60 9.83301 112.167 29.5 156.5s44.167 84 73.5 119s61.166 67.167 95.499 96.5s66.166 59.666 95.499 90.999s53.833 65.5 73.5 102.5
s29.5 80.167 29.5 129.5c0 28 -5.16699 51.667 -15.5 71s-23.666 35.166 -39.999 47.499s-34.5 21.333 -54.5 27s-40 8.5 -60 8.5c-15.333 0 -31.333 -4.66699 -48 -14s-32.334 -20.333 -47.001 -33s-27.334 -25.834 -38.001 -39.501s-17.334 -24.5 -20.001 -32.5
c-11.333 -14 -24.166 -24.167 -38.499 -30.5s-29.166 -9.5 -44.499 -9.5c-12.667 0 -25.167 3.33301 -37.5 10s-23.166 15.834 -32.499 27.501s-17 25.334 -23 41.001s-9 32.834 -9 51.501c0 14.667 5 30 15 46c20 30 43.667 56.667 71 80s56.833 42.833 88.5 58.5
s64.5 27.5 98.5 35.5s67.667 12 101 12c40.667 0 83.334 -6.5 128.001 -19.5s85.5 -33.333 122.5 -61s67.5 -62.834 91.5 -105.501s36 -93.334 36 -152.001c0 -70.667 -8.33301 -131 -25 -181s-38.5 -93.667 -65.5 -131s-57.167 -70.166 -90.5 -98.499l-100 -83
c-33.333 -27 -65 -55.167 -95 -84.5s-54.667 -63.333 -74 -102zM746 191.001c0 -2.66699 -0.331055 -9.33301 -0.998047 -20s-2.83398 -23 -6.50098 -37s-9.33398 -28.833 -17.001 -44.5s-18.5 -30.167 -32.5 -43.5s-31.667 -24.333 -53 -33s-47.333 -13 -78 -13
c-24.667 0 -47 3.16699 -67 9.5s-37.167 16 -51.5 29s-25.5 29.667 -33.5 50s-12 44.833 -12 73.5c0 24 3.5 47.5 10.5 70.5s17.833 43.5 32.5 61.5s33.667 32.333 57 43s51 16 83 16c55.333 0 97.333 -14 126 -42s43 -68 43 -120z" />
    <glyph glyph-name="at" unicode="@" horiz-adv-x="2241" 
d="M1486 1029c-15.333 4 -31.4961 7.16992 -48.4961 9.50293s-33.167 3.5 -48.5 3.5c-42.667 0 -84.334 -11 -125.001 -33s-79.334 -50.833 -116.001 -86.5s-70.334 -76.667 -101.001 -123s-57.167 -94 -79.5 -143s-39.666 -97.167 -51.999 -144.5s-18.5 -90.333 -18.5 -129
c0 -50 10.5 -88.5 31.5 -115.5s53.833 -40.5 98.5 -40.5c30 0 58.5 6.16699 85.5 18.5s52 28.666 75 48.999s44 43.166 63 68.499s35.667 51 50 77s26.166 51.167 35.499 75.5s15.666 45.166 18.999 62.499zM112.004 215.003c0 76 7.99902 153.678 23.999 233.011
s39.167 157.833 69.5 235.5s67.333 153.5 111 227.5s93 143.667 148 209s115.333 125.5 181 180.5s135.667 102.333 210 142s152.333 70.5 234 92.5s166.5 33 254.5 33c64.667 0 129.167 -5.66699 193.5 -17s126 -28.833 185 -52.5s113.667 -54 164 -91
s94.166 -81.333 131.499 -133s66.666 -111 88 -178c21.333 -67 32 -142.5 32 -226.5c0 -17.333 -0.333008 -35 -1 -53s-2.33398 -36.333 -5 -55c-6 -45.333 -18.167 -94.5 -36.5 -147.5s-42 -105.667 -71 -158s-62.833 -102.833 -101.5 -151.5
s-81.334 -91.5 -128.001 -128.5s-97 -66.667 -151 -89s-110.333 -33.5 -169 -33.5c-14.667 0 -29.5 2.5 -44.5 7.5s-28.5 14.167 -40.5 27.5s-21.667 31.666 -29 54.999s-11 53.666 -11 90.999c0 16 1.16699 33 3.5 51s5.5 37.667 9.5 59
c-25.333 -51.333 -53.833 -96.333 -85.5 -135s-65.5 -71.334 -101.5 -98.001s-73.167 -46.667 -111.5 -60s-76.5 -20 -114.5 -20c-44 0 -85.833 7.33301 -125.5 22s-74.667 36.5 -105 65.5s-54.5 65 -72.5 108s-27 93.167 -27 150.5c0 58 9.16699 119.667 27.5 185
s44.333 130 78 194s74.334 125.167 122.001 183.5s101.167 109.833 160.5 154.5s123.833 80.167 193.5 106.5s142.834 39.5 219.501 39.5c15.333 0 27.666 -1.16699 36.999 -3.5s16.333 -5.33301 21 -9s7.66699 -7.5 9 -11.5s2 -7.33301 2 -10
s-0.166992 -4.83398 -0.5 -6.50098s-0.5 -3.16699 -0.5 -4.5v-4c15.333 -6.66699 31.5 -10.667 48.5 -12l49.5 -4c16 -1.33301 31.167 -3.66602 45.5 -6.99902s27 -10.333 38 -21s19.667 -26.334 26 -47.001s9.5 -48.334 9.5 -83.001
c0 -26.667 -2.83301 -56.834 -8.5 -90.501s-13 -68.834 -22 -105.501s-19.167 -73.834 -30.5 -111.501l-33 -110l-29.5 -100.5c-9 -31.333 -15.833 -59 -20.5 -83c-9.33301 -30 -14 -55.667 -14 -77c0 -15.333 2.5 -27.666 7.5 -36.999s13.167 -14 24.5 -14
c24.667 0 49.334 7.5 74.001 22.5s48.5 35.5 71.5 61.5s44.333 56.5 64 91.5s36.834 72.667 51.501 113s26.167 82.166 34.5 125.499s12.5 86.333 12.5 129c0 100 -14.167 184.667 -42.5 254s-67.166 125.5 -116.499 168.5s-107 74 -173 93s-136.667 28.5 -212 28.5
c-94 0 -182.667 -17.333 -266 -52s-160 -81.167 -230 -139.5s-132.667 -125.333 -188 -201s-102.333 -154.834 -141 -237.501s-68.167 -165.834 -88.5 -249.501s-30.5 -162.167 -30.5 -235.5c0 -59.333 10.333 -112.833 31 -160.5s54.334 -88.5 101.001 -122.5
s107.667 -60.167 183 -78.5s167.666 -27.5 276.999 -27.5c159.333 0 300.166 12.167 422.499 36.5s228.5 57.166 318.5 98.499c15.333 6.66699 29.333 10 42 10c11.333 0 21 -2.66699 29 -8s14.667 -12.333 20 -21s9.16602 -18.5 11.499 -29.5s3.5 -22.167 3.5 -33.5
c0 -17.333 -2.66699 -33.833 -8 -49.5s-12.666 -26.167 -21.999 -31.5c-64 -38 -134.5 -71.333 -211.5 -100s-155.833 -52.5 -236.5 -71.5s-161 -33.167 -241 -42.5s-154.667 -14 -224 -14c-130 0 -244 15 -342 45s-179.667 71.5 -245 124.5s-114.5 116.167 -147.5 189.5
s-49.5 153.333 -49.5 240z" />
    <glyph glyph-name="A" unicode="A" horiz-adv-x="1632" 
d="M1872 224c-14 -14.667 -31.8281 -31.3369 -53.4951 -50.0039s-46 -37.5 -73 -56.5s-56.167 -37.5 -87.5 -55.5s-63.333 -34 -96 -48s-65.5 -25.167 -98.5 -33.5s-64.833 -12.5 -95.5 -12.5c-21.333 0 -42.833 3.66699 -64.5 11s-41.334 20.833 -59.001 40.5
s-32.167 46.834 -43.5 81.501s-17 79.667 -17 135c0 23.333 1.66699 48.5 5 75.5s7.66602 56.167 12.999 87.5c-37.333 -75.333 -79.5 -141.833 -126.5 -199.5s-97 -106 -150 -145s-107.833 -68.5 -164.5 -88.5s-113.334 -30 -170.001 -30
c-62 0 -120.833 10.833 -176.5 32.5s-104.834 54 -147.501 97s-76.5 96.5 -101.5 160.5s-37.5 138.667 -37.5 224c0 64.667 7.5 132.334 22.5 203.001s36.833 142 65.5 214s63.334 143.333 104.001 214s87 137.834 139 201.501s108.833 122.667 170.5 177
s127.5 101.333 197.5 141s143.667 70.834 221 93.501s157.666 34 240.999 34c22.667 0 40.834 -1.83301 54.501 -5.5s24 -8.33398 31 -14.001s11.5 -11.5 13.5 -17.5s3 -11.333 3 -16c0 -3.33301 -0.166992 -6.33301 -0.5 -9s-0.5 -4.66699 -0.5 -6v-5
c18 -10.667 36.333 -17.167 55 -19.5s37 -4.33301 55 -6s35 -5.16699 51 -10.5s30 -15.833 42 -31.5s21.5 -38.5 28.5 -68.5s10.5 -70.667 10.5 -122c0 -40 -3.83301 -85 -11.5 -135s-17.834 -102.333 -30.501 -157s-26.834 -110 -42.501 -166l-47 -163l-45.5 -149
c-14.667 -46.667 -27 -87.334 -37 -122.001c-2 -29.333 -3.66699 -56.666 -5 -81.999s-2 -51.666 -2 -78.999c0 -21.333 0.5 -38.833 1.5 -52.5s2.83301 -24.5 5.5 -32.5s6.33398 -13.5 11.001 -16.5s10.667 -4.5 18 -4.5c13.333 0 30.166 3.5 50.499 10.5s42 16 65 27
s47 23.333 72 37l72 41l64.5 37.5l50 28zM1399 1517c-23.333 6.66699 -47.499 11.502 -72.499 14.502s-49.167 4.5 -72.5 4.5c-54 0 -107.333 -10.333 -160 -31s-103.834 -48.834 -153.501 -84.501s-97 -77.667 -142 -126s-87 -100.333 -126 -156
s-74.167 -113.5 -105.5 -173.5s-58.333 -119.833 -81 -179.5s-40 -117.667 -52 -174s-18 -108.166 -18 -155.499c0 -94 18.833 -166.833 56.5 -218.5s96.167 -77.5 175.5 -77.5c49.333 0 96.166 10.333 140.499 31s85.5 47.834 123.5 81.501s72.833 71.667 104.5 114
s59.334 85.166 83.001 128.499s43.167 85.166 58.5 125.499s26.333 75.166 33 104.499z" />
    <glyph glyph-name="B" unicode="B" horiz-adv-x="1292" 
d="M60 1330c-43.333 -78.667 -81.9971 -137.667 -115.997 -177s-61.667 -59 -83 -59c-29.333 0 -44 33.667 -44 101c0 65.333 9.33301 124 28 176s44.834 98.167 78.501 138.5s73.667 74.666 120 102.999s97 51.666 152 69.999s113.167 31.833 174.5 40.5s124.333 13 189 13
c75.333 0 151 -5.5 227 -16.5s149 -26.5 219 -46.5s135.333 -44.167 196 -72.5s113.5 -59.666 158.5 -93.999s80.333 -71.5 106 -111.5s38.5 -81.667 38.5 -125c0 -51.333 -11.167 -102 -33.5 -152s-57.333 -95.167 -105 -135.5s-108.667 -73.5 -183 -99.5
s-163.5 -40 -267.5 -42c66 0 123.667 -10.5 173 -31.5s90.666 -49.333 123.999 -85s58.333 -76.834 75 -123.501s25 -95.667 25 -147c0 -42 -5.66699 -84.667 -17 -128s-28.333 -85 -51 -125s-51 -77.5 -85 -112.5s-73.833 -65.5 -119.5 -91.5s-97.167 -46.5 -154.5 -61.5
s-120.333 -22.5 -189 -22.5c-43.333 0 -89 2.83301 -137 8.5s-96.5 13.334 -145.5 23.001s-97.167 21.167 -144.5 34.5s-92 27.666 -134 42.999c-18.667 4.66699 -35.167 11.667 -49.5 21s-21.5 26 -21.5 50c0 110.667 2.83301 224 8.5 340s17.167 229.333 34.5 340
s42.333 216.167 75 316.5s76 190.166 130 269.499c47.333 32.667 90.333 49 129 49c48.667 0 89.334 -27.333 122.001 -82c-30.667 -41.333 -56.834 -87.333 -78.501 -138s-39.834 -103.834 -54.501 -159.501s-26.5 -112.5 -35.5 -170.5s-16.167 -114.667 -21.5 -170
c-3.33301 -31.333 -6.16602 -64.666 -8.49902 -99.999s-4.5 -71.333 -6.5 -108s-3.5 -73.167 -4.5 -109.5s-1.5 -71.166 -1.5 -104.499c0 -5.33301 0.166992 -12.666 0.5 -21.999s1.16602 -19 2.49902 -29s3.33301 -19.167 6 -27.5s6.66699 -14.5 12 -18.5
c40.667 -13.333 84.334 -24.666 131.001 -33.999s93.334 -14 140.001 -14c56.667 0 111.667 6.83301 165 20.5s100.666 35.334 141.999 65.001s74.5 67.667 99.5 114s37.5 102.5 37.5 168.5c0 38.667 -7.33301 70.834 -22 96.501s-33.834 47.167 -57.501 64.5
s-50.667 31.166 -81 41.499s-61.333 19.666 -93 27.999l-93 24.5c-30.333 8 -57.333 18.167 -81 30.5s-42.834 27.666 -57.501 45.999s-22 42.166 -22 71.499c0 14 0.833008 26.167 2.5 36.5s5.66699 18.833 12 25.5s15.666 11.667 27.999 15s29.166 5 50.499 5
c28.667 0 54.834 -1.16699 78.501 -3.5s49.167 -3.5 76.5 -3.5c64 0 121.833 7.83301 173.5 23.5s95.667 36.834 132 63.501s64.333 57.834 84 93.501s29.5 73.834 29.5 114.501c0 26.667 -7.66699 51.167 -23 73.5s-36.833 42.333 -64.5 60s-60.167 33.167 -97.5 46.5
s-78 24.5 -122 33.5s-90.333 15.667 -139 20s-98 6.5 -148 6.5c-63.333 0 -125.833 -3.5 -187.5 -10.5s-119 -17.667 -172 -32s-100 -32.333 -141 -54s-72.167 -46.834 -93.5 -75.501z" />
    <glyph glyph-name="C" unicode="C" horiz-adv-x="1440" 
d="M1766 338c-32.667 -14 -64.334 -32.5029 -95.001 -55.5029s-61.667 -48.167 -93 -75.5l-97.5 -86.5c-33.667 -30.333 -70 -60.333 -109 -90s-81.5 -58 -127.5 -85s-96.833 -50.667 -152.5 -71s-117 -36.5 -184 -48.5s-141.167 -18 -222.5 -18
c-90 0 -171.167 18.167 -243.5 54.5s-134.166 85.333 -185.499 147s-90.833 133.334 -118.5 215.001s-41.5 167.5 -41.5 257.5c0 61.333 6.66699 127.166 20 197.499s32.5 142 57.5 215s55.5 145.833 91.5 218.5s76.833 142.334 122.5 209.001s95.834 128.5 150.501 185.5
s113 106.667 175 149s127.333 75.5 196 99.5s140 36 214 36c48 0 96.667 -8.5 146 -25.5s93.666 -43.167 132.999 -78.5s71.5 -80 96.5 -134s37.5 -117.667 37.5 -191c0 -49.333 -7.83301 -99.166 -23.5 -149.499s-37.167 -98.666 -64.5 -144.999
s-59.5 -89.833 -96.5 -130.5s-76.833 -75.834 -119.5 -105.501s-87 -53.167 -133 -70.5s-92 -26 -138 -26c-60.667 0 -106 8.16699 -136 24.5s-45 39.833 -45 70.5c0 5.33301 -0.166992 11.666 -0.5 18.999s-0.5 15 -0.5 23c0 12 0.666992 24.5 2 37.5s4 24.833 8 35.5
s9.83301 19.334 17.5 26.001s18.167 10 31.5 10c8 0 15 -1.16699 21 -3.5l20 -7.5c7.33301 -2.66699 16.166 -5.16699 26.499 -7.5s23.5 -3.5 39.5 -3.5c42.667 0 85.834 9.33301 129.501 28s83 45 118 79s63.667 74.5 86 121.5s33.5 98.833 33.5 155.5
c0 30 -4 58.5 -12 85.5s-21 50.667 -39 71s-41.167 36.666 -69.5 48.999s-62.833 18.5 -103.5 18.5c-48 0 -94.833 -10.5 -140.5 -31.5s-89.5 -49.5 -131.5 -85.5s-81.833 -78.667 -119.5 -128s-72.5 -102.166 -104.5 -158.499s-60.833 -115 -86.5 -176
s-47.5 -121.833 -65.5 -182.5s-31.833 -119.5 -41.5 -176.5s-14.5 -109.5 -14.5 -157.5c0 -68.667 8.5 -128.5 25.5 -179.5s41.167 -93.5 72.5 -127.5s69.666 -59.333 114.999 -76s96.333 -25 153 -25c70.667 0 136.5 8.83301 197.5 26.5s119.167 40.834 174.5 69.501
s108.833 61 160.5 97l155 108.5c51.667 36.333 104.334 71 158.001 104s110.5 60.833 170.5 83.5v-215z" />
    <glyph glyph-name="D" unicode="D" horiz-adv-x="1272" 
d="M549 1736c108.667 0 205.337 -8.99121 290.004 -26.9912s158.834 -43 222.501 -75s117.5 -70.167 161.5 -114.5s79.667 -92.666 107 -144.999s47.166 -107.833 59.499 -166.5s18.5 -118.667 18.5 -180c0 -84 -9.33301 -169.167 -28 -255.5s-45.667 -169.833 -81 -250.5
s-78.833 -156.334 -130.5 -227.001s-110.834 -132.334 -177.501 -185.001s-140 -94.167 -220 -124.5s-166.333 -45.5 -259 -45.5c-31.333 0 -63.333 2.33301 -96 7s-64.334 11 -95.001 19s-59.667 17 -87 27s-51.333 20.333 -72 31
c-8.66699 2.66699 -15.5 5.83398 -20.5 9.50098s-8.83301 8 -11.5 13s-4.33398 11.167 -5.00098 18.5s-1 16.666 -1 27.999c0 110.667 2.83301 224 8.5 340s17.167 229.333 34.5 340s42.333 216.167 75 316.5s76 190.166 130 269.499c47.333 32.667 90.333 49 129 49
c48.667 0 89.334 -27.333 122.001 -82c-30.667 -41.333 -56.334 -87.333 -77.001 -138s-38 -103.834 -52 -159.501s-25.667 -112.5 -35 -170.5s-18 -114.667 -26 -170l-23.5 -157.5c-6.33301 -43.667 -11.333 -81.834 -15 -114.501s-6.33398 -61.334 -8.00098 -86.001
s-2.5 -48.667 -2.5 -72c0 -24.667 0.833008 -45.334 2.5 -62.001s5.66699 -30 12 -40s16 -17.167 29 -21.5s30.5 -6.5 52.5 -6.5c66.667 0 130 13.167 190 39.5s115.333 61.666 166 105.999s96.167 95.833 136.5 154.5s74.666 120.667 102.999 186
s50.166 131.833 65.499 199.5s23 132.834 23 195.501c0 77.333 -12.667 146.5 -38 207.5s-60.833 112.667 -106.5 155s-100.5 74.666 -164.5 96.999s-134.333 33.5 -211 33.5c-56 0 -111.5 -3.33301 -166.5 -10s-106 -17 -153 -31s-88.333 -31.833 -124 -53.5
s-62.5 -47.5 -80.5 -77.5c-48.667 -75.333 -88.667 -133.5 -120 -174.5s-57.666 -61.5 -78.999 -61.5c-29.333 0 -44 33.667 -44 101c0 65.333 8.5 124 25.5 176s40.667 98.167 71 138.5s66.333 74.666 108 102.999s87.334 51.666 137.001 69.999s102.5 31.833 158.5 40.5
s113.333 13 172 13z" />
    <glyph glyph-name="E" unicode="E" 
d="M1477 250c-54 -57.333 -114.828 -107.502 -182.495 -150.502s-138.334 -79 -212.001 -108s-148.5 -50.833 -224.5 -65.5s-149.667 -22 -221 -22c-78.667 0 -152.667 9.16699 -222 27.5s-130 46.333 -182 84s-93.167 85.334 -123.5 143.001s-45.5 126.167 -45.5 205.5
c0 67.333 12.167 132 36.5 194s62 117 113 165s116.333 86.667 196 116s175.167 45.333 286.5 48c-73.333 0 -137.333 10.5 -192 31.5s-100 49.333 -136 85s-63 77.334 -81 125.001s-27 98.167 -27 151.5c0 50 8.66699 95.667 26 137s41.166 78.5 71.499 111.5
s66.166 61.833 107.499 86.5s86.166 45.167 134.499 61.5s99 28.666 152 36.999s106.5 12.5 160.5 12.5c78 0 154.333 -8.5 229 -25.5s141 -42.5 199 -76.5s104.667 -76.5 140 -127.5s53 -110.5 53 -178.5c0 -24 -8.16699 -47.667 -24.5 -71s-35.833 -44.166 -58.5 -62.499
s-46.5 -33 -71.5 -44s-45.833 -16.5 -62.5 -16.5c-14 0 -21 12.333 -21 37c0 22 3.5 50.333 10.5 85s18.833 78 35.5 130c-18 14.667 -44.333 29.334 -79 44.001s-73.834 28 -117.501 40s-90.167 21.833 -139.5 29.5s-98 11.5 -146 11.5c-44.667 0 -87.334 -4 -128.001 -12
s-76.5 -21.167 -107.5 -39.5s-55.667 -42.5 -74 -72.5s-27.5 -67 -27.5 -111c0 -36 6.5 -66.333 19.5 -91s30.333 -45.667 52 -63s46.5 -31.5 74.5 -42.5s57 -20.833 87 -29.5l88.5 -25c29 -8 55.667 -17.167 80 -27.5s44.833 -22.833 61.5 -37.5s27.667 -33 33 -55l4 -42.5
c1.33301 -14.333 2 -28.166 2 -41.499c0 -37.333 -7 -64.5 -21 -81.5s-41.333 -25.5 -82 -25.5c-17.333 0 -38.833 1 -64.5 3s-50.167 3 -73.5 3c-53.333 0 -105.666 -6.83301 -156.999 -20.5s-97.333 -34 -138 -61s-73.5 -60.333 -98.5 -100s-37.5 -85.834 -37.5 -138.501
c0 -50 7.16699 -91.667 21.5 -125s34 -60.166 59 -80.499s54.5 -34.833 88.5 -43.5s70.667 -13 110 -13c47.333 0 97 4.66699 149 14s103.833 22.166 155.5 38.499s102 35.666 151 57.999s94.5 46.333 136.5 72s79 52.667 111 81s56.667 56.833 74 85.5z" />
    <glyph glyph-name="F" unicode="F" horiz-adv-x="1376" 
d="M654 1212c0 -1.33301 -0.334961 -6.00293 -1.00195 -14.0029s-4.33398 -16.667 -11.001 -26s-17.5 -17.666 -32.5 -24.999s-36.833 -11 -65.5 -11c-38.667 0 -68.834 2.16699 -90.501 6.5s-37.667 10.333 -48 18s-16.666 16.334 -18.999 26.001s-3.5 19.5 -3.5 29.5
c0 99.333 25 184.5 75 255.5s120.167 129.167 210.5 174.5s198.666 78.666 324.999 99.999s265.833 32 418.5 32c101.333 0 207.5 -3.33301 318.5 -10s225.5 -18.334 343.5 -35.001c34 -9.33301 57.5 -22.666 70.5 -39.999s19.5 -35.666 19.5 -54.999
c0 -12.667 -1.83301 -26 -5.5 -40s-9.16699 -27 -16.5 -39s-17.166 -21.833 -29.5 -29.5c-12.333 -7.66699 -26.833 -11.5 -43.5 -11.5c-2.66699 0 -5.5 0.166992 -8.5 0.5s-6.16699 0.833008 -9.5 1.5c-43.333 7.33301 -90.333 13.833 -141 19.5
s-103.667 10.334 -159 14.001s-112.5 6.33398 -171.5 8.00098s-118.833 2.5 -179.5 2.5c-18 0 -39.5 -1 -64.5 -3s-49.167 -4.33301 -72.5 -7c-26.667 -2.66699 -54.334 -6 -83.001 -10c0 -7.33301 -0.666992 -15.666 -2 -24.999s-3.33301 -22.333 -6 -39
s-5.83398 -38 -9.50098 -64l-13.5 -100.5c-5.33301 -41 -11.333 -90.5 -18 -148.5s-14 -127 -22 -207h555c16 0 28.333 -3.16699 37 -9.5s15 -14.333 19 -24s6.33301 -20 7 -31s1 -21.5 1 -31.5c0 -32 -7 -56 -21 -72s-28.333 -24 -43 -24c-4.66699 0 -20 -0.5 -46 -1.5
l-95 -3.5l-123 -4.5c-44.667 -1.66699 -87.834 -3.16699 -129.501 -4.5s-79.667 -2.5 -114 -3.5s-60.166 -1.5 -77.499 -1.5c-12 -80.667 -25.667 -158.334 -41 -233.001s-34.5 -144.5 -57.5 -209.5s-50.167 -124.167 -81.5 -177.5s-68.666 -99 -111.999 -137
s-93.333 -67.5 -150 -88.5s-121.667 -31.5 -195 -31.5c-15.333 0 -33.666 1 -54.999 3s-43.666 5.33301 -66.999 10s-46.5 10.834 -69.5 18.501s-43.5 17.167 -61.5 28.5s-32.667 24.5 -44 39.5s-17 32.167 -17 51.5c0 10 2.16699 23.167 6.5 39.5s11 32.166 20 47.499
s20.333 28.666 34 39.999s30.167 17 49.5 17c22 0 45.167 -3.66699 69.5 -11s49.5 -15.5 75.5 -24.5s52.667 -17.167 80 -24.5s55 -11 83 -11c22 0 43.333 8.83301 64 26.5s40.167 42 58.5 73s35.833 67.333 52.5 109s32.334 86.667 47.001 135s28.334 98.833 41.001 151.5
s24.334 105.334 35.001 158.001h-123c-11.333 0 -25.333 1.33301 -42 4s-32.667 7.16699 -48 13.5s-28.333 14.833 -39 25.5s-16 24 -16 40c0 11.333 3 22 9 32s16 17.333 30 22l98 21l74.5 15.5l57.5 11.5c16.667 3.33301 32 6 46 8c16 71.333 28.667 133.333 38 186
s17.333 100.5 24 143.5l19 121.5c6 38 13 78.333 21 121c-58 -16.667 -108.333 -36.667 -151 -60s-78 -48.333 -106 -75s-48.667 -54.334 -62 -83.001s-20 -56.667 -20 -84z" />
    <glyph glyph-name="G" unicode="G" horiz-adv-x="1536" 
d="M1536 341c0 -77.333 -4.49805 -157.668 -13.498 -241.001s-23.5 -165 -43.5 -245s-46.5 -155.667 -79.5 -227s-73.5 -134 -121.5 -188s-104.167 -96.833 -168.5 -128.5s-137.833 -47.5 -220.5 -47.5c-15.333 0 -33.666 1 -54.999 3s-43.666 5.33301 -66.999 10
s-46.5 10.834 -69.5 18.501s-43.5 17.167 -61.5 28.5s-32.667 24.5 -44 39.5s-17 32.167 -17 51.5c0 10 2.16699 23.167 6.5 39.5s11 32.166 20 47.499s20.333 28.666 34 39.999s30.167 17 49.5 17c22 0 43.333 -3.66699 64 -11s42 -15.5 64 -24.5s45 -17.167 69 -24.5
s50 -11 78 -11c31.333 0 62.166 16 92.499 48s59 73.667 86 125s51.667 108.833 74 172.5s41.166 127.5 56.499 191.5c-32 -29.333 -65.833 -57.166 -101.5 -83.499s-76.334 -49.333 -122.001 -69s-97.834 -35.334 -156.501 -47.001s-126.667 -17.5 -204 -17.5
c-90 0 -171.167 18.167 -243.5 54.5s-134.166 85.333 -185.499 147s-90.833 133.334 -118.5 215.001s-41.5 167.5 -41.5 257.5c0 118 14.167 230.833 42.5 338.5s67.5 207.667 117.5 300s109 176 177 251s141.333 139 220 192s161.167 94 247.5 123s172.833 43.5 259.5 43.5
c53.333 0 102.833 -8 148.5 -24s85.334 -41 119.001 -75s60 -77 79 -129s28.5 -114 28.5 -186c0 -28 -3.33301 -55.833 -10 -83.5s-17.667 -55.5 -33 -83.5c-21.333 -31.333 -42 -53.5 -62 -66.5s-39 -19.5 -57 -19.5c-14 0 -27 3.66699 -39 11s-22.333 17 -31 29
s-15.5 25.5 -20.5 40.5s-7.5 30.5 -7.5 46.5c0 12.667 2 25 6 37l12.5 36c4.33301 12 8.5 24.5 12.5 37.5s6 26.5 6 40.5c0 66.667 -14.667 116.667 -44 150s-66 50 -110 50c-54 0 -110.833 -11.167 -170.5 -33.5s-118.167 -54.666 -175.5 -96.999
s-111.833 -94.333 -163.5 -156s-97.167 -132.167 -136.5 -211.5s-70.5 -166.833 -93.5 -262.5s-34.5 -198.5 -34.5 -308.5c0 -68.667 8.5 -128.5 25.5 -179.5s41.167 -93.5 72.5 -127.5s69.666 -59.333 114.999 -76s96.333 -25 153 -25c105.333 0 202.333 14.167 291 42.5
s172 68.166 250 119.499c5.33301 20 10 39.167 14 57.5s6 35.166 6 50.499c0 20 -2.66699 35.833 -8 47.5s-12.5 20.334 -21.5 26.001s-19.667 9.16699 -32 10.5s-25.5 2 -39.5 2c-25.333 0 -47.5 3.33301 -66.5 10s-35.167 15.334 -48.5 26.001s-23.333 23 -30 37
s-10 28 -10 42s3.16699 27.5 9.5 40.5s16.166 24.5 29.499 34.5s30.166 18.167 50.499 24.5s44.166 9.5 71.499 9.5c64.667 0 117.834 -6.66699 159.501 -20s74.334 -33 98.001 -59s40 -57.833 49 -95.5s13.5 -80.5 13.5 -128.5z" />
    <glyph glyph-name="H" unicode="H" horiz-adv-x="2111" 
d="M1798 750c-23.333 -82 -41.9922 -158.499 -55.9922 -229.499s-21 -132.5 -21 -184.5c0 -45.333 9.5 -80.833 28.5 -106.5s50.5 -38.5 94.5 -38.5c16.667 0 36.667 4.83301 60 14.5s50 24.834 80 45.501s63.5 47.334 100.5 80.001s78.167 71.667 123.5 117
c2 -4 6 -13.333 12 -28c5.33301 -12.667 12.833 -31.834 22.5 -57.501l40.5 -105.5c-50 -52.667 -100.167 -99 -150.5 -139s-99.333 -73.5 -147 -100.5s-93.334 -47.333 -137.001 -61s-83.834 -20.5 -120.501 -20.5c-42 0 -81 7.83301 -117 23.5s-67.167 38.5 -93.5 68.5
s-47.166 66.833 -62.499 110.5s-23 93.5 -23 149.5c0 19.333 2 43.666 6 72.999s9.83301 62.666 17.5 99.999s17 78.166 28 122.499l36.5 140.5l-257 -26l-245 -23l-55.5 -164.5l-53 -151l-47 -129l-36.5 -99.5c-32.667 -70.667 -64.5 -120.667 -95.5 -150
s-58.833 -44 -83.5 -44c-16 0 -31.667 2.66699 -47 8s-29 13 -41 23s-21.5 22 -28.5 36s-10.5 29.667 -10.5 47c0 10.667 1.33301 21 4 31c28 102 58.5 200.5 91.5 295.5l100.5 277.5c-36.667 0 -71.834 2.83301 -105.501 8.5s-64.834 15.5 -93.501 29.5
s-54.167 33.333 -76.5 58s-40.833 56 -55.5 94c-2.66699 12 -4.83398 22.667 -6.50098 32s-2.5 18.666 -2.5 27.999c0 29.333 10.333 44 31 44c12.667 0 26.667 -6.83301 42 -20.5s35 -35.5 59 -65.5c31.333 1.33301 62.666 2.33301 93.999 3s65 1 101 1h96l68.5 179.5
c21.667 57.667 41.834 114.167 60.501 169.5c11.333 35.333 20.333 70.666 27 105.999s10 69 10 101c0 26 -2.33301 50 -7 72s-12.334 40.667 -23.001 56s-24.334 27.333 -41.001 36s-37.334 13 -62.001 13c-20 0 -43.167 -3.33301 -69.5 -10s-55.5 -17.5 -87.5 -32.5
s-66.833 -34.667 -104.5 -59s-78.5 -54.5 -122.5 -90.5c-15.333 -12.667 -29.5 -21.667 -42.5 -27s-24.833 -8 -35.5 -8c-5.33301 0 -9.33301 8.83301 -12 26.5s-4 39.5 -4 65.5c0 34.667 8.16699 67.667 24.5 99s38.166 60.166 65.499 86.499s58.833 50.333 94.5 72
s72.334 40 110.001 55s75.167 26.5 112.5 34.5s71.666 12 102.999 12c46.667 0 91.334 -6.33301 134.001 -19s80.167 -33 112.5 -61s58 -64.333 77 -109s28.5 -99 28.5 -163c0 -30 -3.5 -66.667 -10.5 -110s-16.5 -90.833 -28.5 -142.5s-26.167 -106.667 -42.5 -165
s-33.833 -117.833 -52.5 -178.5c68.667 4.66699 146 9.33398 232 14.001l259 14c34 111.333 71.5 226.5 112.5 345.5s84.5 235.833 130.5 350.5c15.333 38 35.5 68.333 60.5 91s54.5 34 88.5 34c14 0 27.5 -2 40.5 -6s24.5 -10.167 34.5 -18.5s17.833 -19 23.5 -32
s8.5 -28.167 8.5 -45.5c0 -15.333 -1 -33.166 -3 -53.499s-7.33301 -42.166 -16 -65.499l-49 -132.5l-52.5 -145l-53 -152.5l-50.5 -155c42 2.66699 78.667 5.16699 110 7.5s55 4.16602 71 5.49902c7.33301 0.666992 14.166 1.16699 20.499 1.5s12.166 0.5 17.5 0.5
c20 0 36.167 -2 48.5 -6s22 -9.66699 29 -17s11.833 -16 14.5 -26s4 -21.333 4 -34c0 -14 -3 -25.667 -9 -35s-13.5 -16.833 -22.5 -22.5s-18.5 -9.66699 -28.5 -12s-19.333 -3.83301 -28 -4.5c-18.667 -2 -32 -3.5 -40 -4.5s-13.667 -1.66699 -17 -2
s-5.5 -0.666016 -6.5 -0.999023s-3.5 -0.666016 -7.5 -0.999023s-11 -0.833008 -21 -1.5s-25.333 -2 -46 -4c-24 -2.66699 -47.5 -5 -70.5 -7z" />
    <glyph glyph-name="I" unicode="I" horiz-adv-x="863" 
d="M309 1404l-3.99023 -1.99902c-2 0 -3.83301 11.833 -5.5 35.5s-2.5 55.5 -2.5 95.5c0 8 3.66699 18.5 11 31.5s19.666 26.833 36.999 41.5s40.166 29.334 68.499 44.001s64 28 107 40s93.667 21.667 152 29s125.833 11 202.5 11c66 0 117.5 -3.16699 154.5 -9.5
s64.833 -14.666 83.5 -24.999s30.167 -22.333 34.5 -36s6.5 -27.5 6.5 -41.5c0 -14.667 -1.66699 -29 -5 -43s-12 -26.5 -26 -37.5s-35 -19.833 -63 -26.5s-66.333 -10 -115 -10c-22 0 -44 1 -66 3l-49 -195l-38 -158.5l-31 -136.5l-28.5 -129l-30.5 -136l-36.5 -157
l-48 -192.5l-63.5 -242.5c4 0 13.167 -0.666992 27.5 -2s30.833 -3.66602 49.5 -6.99902s38.5 -7.66602 59.5 -12.999s40.167 -12 57.5 -20s31.666 -17.333 42.999 -28s17 -23 17 -37c0 -28 -24 -55.333 -72 -82h-67.5h-109.5h-136
c-48.667 0 -97.334 -0.166992 -146.001 -0.5s-95.834 -0.333008 -141.501 0s-85.834 0.666016 -120.501 0.999023s-62.5 0.833008 -83.5 1.5s-31.5 1.66699 -31.5 3c0 2 3.16699 5.16699 9.5 9.5s13.5 10.333 21.5 18s15.667 17.167 23 28.5s12 25.333 14 42
c1.33301 11.333 12.666 22.166 33.999 32.499s47 19.666 77 27.999s61.833 15.166 95.5 20.499s63.5 9 89.5 11l62.5 262l62 256.5l60 243l57.5 220.5c18.667 68.667 36.667 131.667 54 189s33.666 107.333 48.999 150c-24.667 -2.66699 -46.334 -5.33398 -65.001 -8.00098
s-35.334 -5.66699 -50.001 -9s-28.5 -7 -41.5 -11s-26.5 -8.5 -40.5 -13.5l-45.5 -17z" />
    <glyph glyph-name="J" unicode="J" horiz-adv-x="1952" 
d="M576 -256c0 90 17.168 181.83 51.501 275.497s83.166 182.334 146.499 266.001s139.666 158.334 228.999 224.001s189 115.5 299 149.5c-56.667 46 -109.667 94.333 -159 145s-92.333 102.5 -129 155.5s-65.5 106.333 -86.5 160s-31.5 107.167 -31.5 160.5
c0 68 7.5 132.667 22.5 194s35.667 118.166 62 170.499s57.5 99.666 93.5 141.999s74.667 78.333 116 108s84.5 52.5 129.5 68.5s90.167 24 135.5 24c60 0 117.833 -15.333 173.5 -46s105.167 -79.334 148.5 -146.001s78 -153 104 -259s39 -234 39 -384
c0 -108.667 -3.83301 -211.834 -11.5 -309.501s-18.834 -191.167 -33.501 -280.5l123.5 -74l126.5 -72c8.66699 -5.33301 19.5 -11.666 32.5 -18.999s25.667 -15.166 38 -23.499s22.833 -16.666 31.5 -24.999s13 -15.833 13 -22.5s-2.83301 -13.167 -8.5 -19.5
s-12.334 -12.333 -20 -18c-7.66699 -5.66699 -15.334 -10.5 -23 -14.5l-17.5 -9c-11.333 -6 -26 -9 -44 -9c-37.333 0.666992 -81.166 8 -131.499 22s-105.166 33.667 -164.499 59c-29.333 -123.333 -64.5 -236.166 -105.5 -338.499s-85.833 -194.166 -134.5 -275.499
s-100.167 -152.166 -154.5 -212.499s-109.333 -110.5 -165 -150.5s-111 -70 -166 -90s-107.833 -30 -158.5 -30c-52.667 0 -101.5 10.667 -146.5 32s-84.167 53.166 -117.5 95.499s-59.5 94.833 -78.5 157.5s-28.5 135.667 -28.5 219zM832.001 -320.003
c0 -68 13.167 -119.502 39.5 -154.502s61.166 -52.5 104.499 -52.5c44 0 93.833 19.333 149.5 58s111.5 98.5 167.5 179.5s109.5 183.833 160.5 308.5s94.167 273 129.5 445l-37 23c-68 -13.333 -132.833 -36.5 -194.5 -69.5s-119 -72.167 -172 -117.5
s-100.833 -95.166 -143.5 -149.499s-79.167 -109.166 -109.5 -164.499s-53.666 -109.5 -69.999 -162.5s-24.5 -100.833 -24.5 -143.5zM1152 1344c0 -53.333 11.667 -106.328 35 -158.995s56 -104.834 98 -156.501s92 -102.834 150 -153.501s122 -100.667 192 -150
c11.333 92.667 20.333 190.167 27 292.5s10 211.166 10 326.499c0 78.667 -5 145.167 -15 199.5s-23.5 98.5 -40.5 132.5s-37 58.5 -60 73.5s-47.167 22.5 -72.5 22.5c-24.667 0 -49.667 -6 -75 -18s-50 -28.5 -74 -49.5s-46.667 -45.5 -68 -73.5
s-39.833 -57.833 -55.5 -89.5s-28.167 -64.334 -37.5 -98.001s-14 -66.834 -14 -99.501z" />
    <glyph glyph-name="K" unicode="K" horiz-adv-x="1920" 
d="M1227 1497c-6.66699 -58 -12.502 -116.839 -17.502 -176.506l-13.5 -162.5c-4.66699 -57.333 -8.66699 -112.666 -12 -165.999c69.333 0 133.166 2 191.499 6s111.166 12.5 158.499 25.5s89.166 31.667 125.499 56s66.666 56.666 90.999 96.999
s42.666 89.833 54.999 148.5s18.5 129 18.5 211c0 33.333 0.166992 59.833 0.5 79.5s4 34.834 11 45.501s19.333 18.334 37 23.001s44.167 8.66699 79.5 12c26 0 47.167 -3.5 63.5 -10.5s29 -15.5 38 -25.5s15 -20.167 18 -30.5s4.83301 -18.833 5.5 -25.5
c1.33301 -15.333 1.83301 -35.5 1.5 -60.5s0.166992 -48.167 1.5 -69.5c0 -75.333 -4.83301 -144.166 -14.5 -206.499s-25.667 -118.5 -48 -168.5s-52 -93.667 -89 -131s-82.833 -68.5 -137.5 -93.5s-118.834 -43.667 -192.501 -56s-158.5 -18.5 -254.5 -18.5l109.5 -275.5
c33 -79.667 65.333 -146.5 97 -200.5s64.167 -94.833 97.5 -122.5s70.666 -41.5 111.999 -41.5c25.333 0 53.333 3.5 84 10.5s61.834 17 93.501 30s63.167 28.5 94.5 46.5s60.333 37.667 87 59l116 -196c0 0.666992 -6.33301 -3.16602 -19 -11.499s-30.334 -19 -53 -32
c-22.667 -13 -49.5 -27 -80.5 -42s-65.167 -29.167 -102.5 -42.5s-76.833 -24.333 -118.5 -33s-84.167 -13 -127.5 -13c-48 0 -90.5 7.5 -127.5 22.5s-70 35.5 -99 61.5s-54.833 56.5 -77.5 91.5s-43.667 72.5 -63 112.5s-37.833 81.5 -55.5 124.5l-55 127.5
c-19 42 -39.5 82.5 -61.5 121.5s-47 74.5 -75 106.5c-35.333 -136 -76.666 -252.5 -123.999 -349.5s-100.166 -176.5 -158.499 -238.5s-121.333 -107.5 -189 -136.5s-139.167 -43.5 -214.5 -43.5c-26 0 -56.667 1.66699 -92 5s-69.166 9 -101.499 17
s-59.833 18.333 -82.5 31s-34 28.334 -34 47.001c0 18 4.33301 34.5 13 49.5l26 45.5c2.66699 4.66699 7 10.667 13 18s13 14.5 21 21.5s16.667 13 26 18s18.666 7.5 27.999 7.5c4 0 7 -0.333008 9 -1c23.333 -10.667 46.833 -19.167 70.5 -25.5s46.5 -9.5 68.5 -9.5
c60 0 114.333 18.333 163 55s92.334 86.667 131.001 150s72.834 137.833 102.501 223.5s55.5 177.667 77.5 276s40.833 200.333 56.5 306s28.834 210.5 39.501 314.5l12 83c-58.667 0 -111.667 -7 -159 -21s-89.666 -33 -126.999 -57s-69.5 -51.833 -96.5 -83.5
s-49.333 -64.834 -67 -99.501s-30.667 -70.167 -39 -106.5s-12.5 -70.833 -12.5 -103.5c0 -3.33301 -1.16699 -9 -3.5 -17s-7.66602 -16.167 -15.999 -24.5s-20.666 -15.666 -36.999 -21.999s-38.833 -9.5 -67.5 -9.5c-37.333 0 -66.833 3.33301 -88.5 10s-38 14.5 -49 23.5
s-18.167 18.5 -21.5 28.5s-5 18.333 -5 25v9c0 1.33301 0.333008 2.33301 1 3c10.667 90 34.167 167.5 70.5 232.5s80.833 119.833 133.5 164.5s110.834 80.667 174.501 108s127.5 48.333 191.5 63s125.833 24.5 185.5 29.5s111.834 7.5 156.501 7.5c26 0 47.167 -3 63.5 -9
s29.166 -13.667 38.499 -23s15.666 -19.666 18.999 -30.999s5 -22.333 5 -33c0 -27.333 -0.166992 -51.833 -0.5 -73.5s-1.5 -42.167 -3.5 -61.5z" />
    <glyph glyph-name="L" unicode="L" horiz-adv-x="992" 
d="M-156 327l44 29.4971l73 48.5l90.5 61.5l95.5 67.5l8 68c14.667 140 38.334 268.5 71.001 385.5s71.167 222.667 115.5 317s92.666 176.833 144.999 247.5s105.666 129.834 159.999 177.501s108 83.334 161 107.001s102.5 35.5 148.5 35.5c33.333 0 64 -6.33301 92 -19
s52 -31.667 72 -57s35.667 -57 47 -95s17 -82.333 17 -133c0 -62 -9.33301 -127 -28 -195s-45.167 -136.667 -79.5 -206s-75.5 -138.5 -123.5 -207.5s-101.167 -135.5 -159.5 -199.5s-121.333 -124.5 -189 -181.5s-137.834 -107.833 -210.501 -152.5
c-1.33301 -40.667 -2.5 -72.834 -3.5 -96.501s-1.66699 -41.667 -2 -54s-0.5 -20.833 -0.5 -25.5v-11c0 -6 1.16699 -11.5 3.5 -16.5s7 -9 14 -12s16.5 -5.33301 28.5 -7s28 -2.5 48 -2.5c30 0 70.333 7.33301 121 22l335 96c5.33301 1.33301 10.666 2.33301 15.999 3
s10.333 1 15 1c16.667 0 31 -3.16699 43 -9.5s22 -14.833 30 -25.5s14 -23 18 -37s6 -28.333 6 -43c0 -13.333 -2 -26.333 -6 -39s-10 -24.5 -18 -35.5s-18 -20.5 -30 -28.5s-26 -13.333 -42 -16c-65.333 -26 -132 -49.333 -200 -70
c-29.333 -8.66699 -60.166 -17.167 -92.499 -25.5s-65.333 -15.666 -99 -21.999s-67.667 -11.5 -102 -15.5s-67.5 -6 -99.5 -6c-49.333 0 -89.833 8.5 -121.5 25.5s-56.667 40 -75 69s-31.166 62.5 -38.499 100.5s-11 78.333 -11 121c-57.333 -42 -106 -75.333 -146 -100
s-65.667 -37 -77 -37s-22.166 3.83301 -32.499 11.5s-19.833 17.834 -28.5 30.501s-15.5 26.834 -20.5 42.501s-7.5 31.167 -7.5 46.5c0 12.667 1.5 25.167 4.5 37.5s9.83301 22.166 20.5 29.499zM412 677.997l106.5 115.499c37 41.667 73.667 85.334 110 131.001
s71.333 92.334 105 140.001s64 95.167 91 142.5s49.667 93.333 68 138s30.166 87 35.499 127c2 13.333 3.33301 26.166 4 38.499s1 23.833 1 34.5c0 38 -5.16699 65.667 -15.5 83s-24.5 26 -42.5 26c-21.333 0 -46.333 -11.167 -75 -33.5s-58.667 -54.166 -90 -95.499
s-63 -91.333 -95 -150s-61.667 -124 -89 -196s-51.166 -150.333 -71.499 -235s-34.5 -173.334 -42.5 -266.001z" />
    <glyph glyph-name="M" unicode="M" horiz-adv-x="2175" 
d="M440 98c-2.66699 -20 -9.00195 -36.335 -19.002 -49.002s-22 -22.667 -36 -30s-29 -12.5 -45 -15.5s-31.333 -4.5 -46 -4.5c-17.333 0 -34.166 1.83301 -50.499 5.5s-30.833 9.33398 -43.5 17.001s-22.667 17 -30 28s-11 23.5 -11 37.5c0 27.333 1.33301 52.5 4 75.5
s6.66699 46.167 12 69.5c18.667 78 35 150.5 49 217.5s26 130.5 36 190.5s18.667 118.167 26 174.5s13.833 113 19.5 170s10.834 115.833 15.501 176.5l15 195v23c0 9.33301 -1 18.166 -3 26.499s-5.5 15.5 -10.5 21.5s-12.5 9 -22.5 9c-16 0 -35.5 -5.5 -58.5 -16.5
s-47.167 -25.833 -72.5 -44.5s-50.666 -40.5 -75.999 -65.5s-48.666 -51.833 -69.999 -80.5c-4 -10 -10.333 -17.167 -19 -21.5s-18.334 -6.5 -29.001 -6.5c-3.33301 0 -6.83301 2.83301 -10.5 8.5s-7 12.5 -10 20.5s-5.5 16.5 -7.5 25.5s-3 17.167 -3 24.5
c0 4 1.33301 7.33301 4 10c24 78.667 51.167 144.5 81.5 197.5s62.333 95.333 96 127s68 54.167 103 67.5s68.5 20 100.5 20c41.333 0 75.666 -7.83301 102.999 -23.5s49 -37.667 65 -66s27.167 -62.5 33.5 -102.5s9.5 -84.333 9.5 -133c0 -37.333 -3 -81 -9 -131
s-13.5 -102.5 -22.5 -157.5s-18.833 -110.167 -29.5 -165.5l-31 -155c21.333 88.667 46.5 173.834 75.5 255.501s60.667 158 95 229s70.833 135.333 109.5 193s78.5 107.167 119.5 148.5s82.5 73.333 124.5 96s83.667 34 125 34c30.667 0 59 -6.66699 85 -20
s48.333 -34 67 -62s33.167 -63.333 43.5 -106s15.5 -93.334 15.5 -152.001c0 -5.33301 -0.5 -13.666 -1.5 -24.999s-2.33301 -24.333 -4 -39s-3.66699 -30.5 -6 -47.5s-4.5 -33.833 -6.5 -50.5l-17 -130l21 1c26 98.667 58 187.334 96 266.001s80.667 145.5 128 200.5
s98.333 97.167 153 126.5s111.334 44 170.001 44c40.667 0 76.834 -12 108.501 -36s58.167 -56.5 79.5 -97.5s37.666 -89 48.999 -144s17 -113.167 17 -174.5c0 -57.333 -3.83301 -116.166 -11.5 -176.499s-17.167 -120 -28.5 -179s-23.5 -116.833 -36.5 -173.5l-36.5 -161
c-11.333 -50.667 -20.833 -97.5 -28.5 -140.5s-11.5 -80.167 -11.5 -111.5c0 -39.333 7.16699 -67.833 21.5 -85.5s35.166 -26.5 62.499 -26.5c15.333 0 31.5 4.16699 48.5 12.5s34 19.333 51 33s33.833 29.334 50.5 47.001s32.667 35.834 48 54.501
c35.333 42.667 70.333 91.667 105 147c0 -0.666992 3 -7.66699 9 -21l23 -58l45 -118c-33.333 -58.667 -67.666 -108.334 -103 -149.001c-35.333 -40.667 -71.333 -73.834 -108 -99.501s-73.834 -44.167 -111.5 -55.5c-37.667 -11.333 -75.167 -17 -112.5 -17
c-36 0 -71.167 6.33301 -105.5 19s-64.833 31.5 -91.5 56.5s-48 56 -64 93s-24 79.5 -24 127.5c0 5.33301 0.166992 11 0.5 17s0.833008 12 1.5 18c2.66699 44.667 8.33398 92.167 17.001 142.5s18.5 102.166 29.5 155.499l34.5 163c12 55.333 23 110.5 33 165.5
s18.333 109.333 25 163s10 105.167 10 154.5c0 30 -1 57.167 -3 81.5s-6 45 -12 62s-14.667 30.167 -26 39.5s-26.333 14 -45 14c-35.333 0 -68.666 -12.333 -99.999 -37s-61 -58.667 -89 -102s-54.167 -94.666 -78.5 -153.999s-47.333 -123.5 -69 -192.5
s-41.834 -141.333 -60.501 -217s-36 -151.834 -52 -228.501s-31 -152.334 -45 -227.001l-39 -212c-5.33301 -18.667 -13.5 -34.5 -24.5 -47.5s-23.667 -23.5 -38 -31.5s-29.5 -13.833 -45.5 -17.5s-32 -5.5 -48 -5.5c-14 0 -27.833 2.66699 -41.5 8s-25.667 13.833 -36 25.5
s-18.666 26.5 -24.999 44.5s-9.5 40 -9.5 66c0 17.333 4 47.166 12 89.499s18.167 93 30.5 152l40 194c14.333 70.333 27.666 142 39.999 215s22.5 145.167 30.5 216.5s12 137 12 197c0 41.333 -1 78.333 -3 111s-6.66699 60.334 -14 83.001s-17.833 40 -31.5 52
s-31.834 18 -54.501 18c-18.667 0 -40 -12.667 -64 -38s-49.833 -60.333 -77.5 -105s-56.167 -97.167 -85.5 -157.5s-58.5 -125.5 -87.5 -195.5s-57 -143.167 -84 -219.5s-51.833 -152.666 -74.5 -228.999s-42.667 -151 -60 -224s-30.333 -141.5 -39 -205.5z" />
    <glyph glyph-name="N" unicode="N" horiz-adv-x="1623" 
d="M458 761c46 136 91.3242 254.502 135.991 355.502s88.5 187.333 131.5 259s84.667 130.334 125 176.001s79.666 81.5 117.999 107.5s75.333 44 111 54s70.167 15 103.5 15c38.667 0 71.667 -9.33301 99 -28s49.833 -42.667 67.5 -72s30.5 -61.666 38.5 -96.999
s12 -70 12 -104c0 -40 -3.16699 -84.5 -9.5 -133.5s-14.166 -100.833 -23.499 -155.5s-19.666 -111.167 -30.999 -169.5s-21.666 -116.333 -30.999 -174s-17.166 -114.334 -23.499 -170.001s-9.5 -108.167 -9.5 -157.5c0 -16 0.5 -33.833 1.5 -53.5s3.16699 -39.667 6.5 -60
s8.16602 -40.166 14.499 -59.499s15 -36.666 26 -51.999s24.667 -27.666 41 -36.999s35.833 -14 58.5 -14c32 0 65.833 8 101.5 24s70.667 36.167 105 60.5s67 50.666 98 78.999s58.333 54.666 82 78.999s42.334 44.666 56.001 60.999s20.5 24.833 20.5 25.5l60 -217
c-21.333 -28.667 -45.666 -57.167 -72.999 -85.5s-56.666 -55.166 -87.999 -80.499s-64.5 -48.833 -99.5 -70.5s-70.833 -40.5 -107.5 -56.5s-73.5 -28.5 -110.5 -37.5s-73.5 -13.5 -109.5 -13.5c-46.667 0 -87.667 8 -123 24s-65.833 37.667 -91.5 65
s-47.167 59.166 -64.5 95.499s-31.166 74.833 -41.499 115.5s-17.666 82 -21.999 124s-6.5 82.667 -6.5 122c0 52 4.16699 103 12.5 153s18.5 99.167 30.5 147.5s25.333 95.5 40 141.5s28 90.833 40 134.5s22.167 86 30.5 127s12.5 80.5 12.5 118.5
c0 10 -0.666992 23.333 -2 40s-4.16602 32.667 -8.49902 48s-11.166 28.666 -20.499 39.999s-22 17 -38 17c-26.667 0 -54.167 -12.5 -82.5 -37.5s-57.333 -59.5 -87 -103.5s-59.5 -96.167 -89.5 -156.5s-59.833 -125.333 -89.5 -195s-59 -143 -88 -220l-84 -232
l-78.5 -229.5l-71 -213c-18.667 -36 -40.167 -61.5 -64.5 -76.5s-51.5 -22.5 -81.5 -22.5c-17.333 0 -34.166 3.66699 -50.499 11s-30.833 18.166 -43.5 32.499s-22.667 32 -30 53s-11 44.833 -11 71.5c0 28 1.33301 53.333 4 76s6.66699 45.667 12 69l46.5 211l39.5 185
c12 58.667 22.833 115.5 32.5 170.5s18.5 110.333 26.5 166s15 112.834 21 171.501s11.333 121.334 16 188.001v23c0 9.33301 -1 18.166 -3 26.499s-5.5 15.5 -10.5 21.5s-12.5 9 -22.5 9c-13.333 0 -29.5 -6.33301 -48.5 -19s-38.667 -30.167 -59 -52.5
s-41 -48.5 -62 -78.5s-40.167 -62.333 -57.5 -97c-4 -10 -10.333 -17.167 -19 -21.5s-18.334 -6.5 -29.001 -6.5c-8.66699 0 -17.667 2.83301 -27 8.5s-18 12.5 -26 20.5s-14.667 16.5 -20 25.5s-8 17.167 -8 24.5c0 4 1.33301 7.33301 4 10
c22 75.333 47.167 139.166 75.5 191.499s58.333 94.666 90 126.999s63.834 55.833 96.501 70.5s64.667 22 96 22c47.333 0 87.166 -7.16699 119.499 -21.5s58.5 -34.333 78.5 -60s34.333 -56.5 43 -92.5s13 -76 13 -120s-3.66699 -91.333 -11 -142
s-17.333 -103.167 -30 -157.5s-27 -109.833 -43 -166.5l-49 -169z" />
    <glyph glyph-name="O" unicode="O" horiz-adv-x="1632" 
d="M742 -192c-99.333 0 -188.834 20.3369 -268.501 61.0039s-147.5 97.5 -203.5 170.5s-99 160 -129 261s-45 211.833 -45 332.5c0 64 4.66699 129.667 14 197s23.5 134.5 42.5 201.5s42.667 132.667 71 197s61.333 125.166 99 182.499s79.834 110.166 126.501 158.499
s98.167 90 154.5 125s117 62.333 182 82s134.833 29.5 209.5 29.5c100 0 189.5 -18 268.5 -54s145.667 -86.333 200 -151s96 -141.834 125 -231.501s43.5 -188.5 43.5 -296.5c0 -89.333 -8.83301 -182.5 -26.5 -279.5s-43.5 -192.333 -77.5 -286
s-76.333 -182.834 -127 -267.501s-109 -159 -175 -223s-139.5 -114.833 -220.5 -152.5s-168.833 -56.5 -263.5 -56.5zM765.999 52.0039c53.333 0 102.998 10.333 148.998 31s88.167 49 126.5 85s73.333 78.167 105 126.5s59.834 100.166 84.501 155.499
s46.167 112.666 64.5 171.999s33.5 118 45.5 176s20.833 113.833 26.5 167.5s8.5 102.5 8.5 146.5c0 64 -7 124.167 -21 180.5s-35.167 105.333 -63.5 147s-64 74.5 -107 98.5s-93.167 36 -150.5 36c-61.333 0 -120.666 -14.833 -177.999 -44.5s-111.333 -69.667 -162 -120
s-97 -108.666 -139 -174.999s-78 -136.166 -108 -209.499s-53.333 -148 -70 -224s-25 -148.667 -25 -218c0 -75.333 9.5 -145.5 28.5 -210.5s46.333 -121.167 82 -168.5s79 -84.5 130 -111.5s108.833 -40.5 173.5 -40.5z" />
    <glyph glyph-name="P" unicode="P" horiz-adv-x="1441" 
d="M958 1823c112 0 210.165 -15.1699 294.498 -45.5029s154.5 -70.666 210.5 -120.999s98.167 -108.166 126.5 -173.499s42.5 -133 42.5 -203c0 -65.333 -12.667 -130 -38 -194s-63.5 -123 -114.5 -177s-115.333 -100.667 -193 -140s-168.834 -67 -273.501 -83
c-2 -48.667 -3.66699 -93.334 -5 -134.001l-2 -52c-0.666992 -17.333 -1.16699 -33.166 -1.5 -47.499s-0.666016 -26.833 -0.999023 -37.5s-0.5 -18 -0.5 -22c-1.33301 -46.667 -6.83301 -95.167 -16.5 -145.5s-23.667 -99.5 -42 -147.5s-40.666 -93.5 -66.999 -136.5
s-57 -80.667 -92 -113s-74.167 -58 -117.5 -77s-90.666 -28.5 -141.999 -28.5c-54.667 0 -103.5 14.167 -146.5 42.5s-80.667 66.5 -113 114.5s-59.666 103.333 -81.999 166s-40.5 128.167 -54.5 196.5s-24.167 137.166 -30.5 206.499s-9.5 134.666 -9.5 195.999
c0 105.333 9.66699 207 29 305s47 189.833 83 275.5s79.667 163.834 131 234.501s109.166 131.334 173.499 182.001s134.333 89.834 210 117.501s156.167 41.5 241.5 41.5zM357.998 692.997c0 -27.333 0.163086 -64.167 0.496094 -110.5s2.16602 -95.833 5.49902 -148.5
s8.66602 -106 15.999 -160s18.166 -102.833 32.499 -146.5s32.333 -79.334 54 -107.001s48.834 -41.5 81.501 -41.5c34 0 63 11.833 87 35.5s44 54.334 60 92.001s28.667 80.334 38 128.001s16.333 95.5 21 143.5s7.66699 93.833 9 137.5s2 80.834 2 111.501v47
c-55.333 22 -98.833 41.333 -130.5 58s-55.5 32.667 -71.5 48s-26.167 31.5 -30.5 48.5s-6.5 36.833 -6.5 59.5c0 12 0.333008 23.833 1 35.5s2.5 22 5.5 31s7.33301 16.333 13 22s13.5 8.5 23.5 8.5c6.66699 0 12.834 -1.33301 18.501 -4s12.834 -6.33398 21.501 -11.001
c22 -12 42 -21.833 60 -29.5s33.333 -13.834 46 -18.501c14.667 -5.33301 28 -9.33301 40 -12c0 8.66699 0.166992 25.834 0.5 51.501s2.33301 55 6 88s9.83398 67.5 18.501 103.5s21.334 69 38.001 99s38.334 54.833 65.001 74.5s59.667 29.5 99 29.5
c12 0 24.333 -1.16699 37 -3.5s24.167 -6.66602 34.5 -12.999s19 -14.833 26 -25.5s10.5 -24.334 10.5 -41.001c0 -4.66699 -0.166992 -7.83398 -0.5 -9.50098s-0.5 -3.83398 -0.5 -6.50098l-61 -257l-9 -79c65.333 10 121.666 26 168.999 48s86.5 48 117.5 78s54 63 69 99
s22.5 73 22.5 111c0 37.333 -7.16699 75.5 -21.5 114.5s-39.166 74.5 -74.499 106.5s-82.666 58.333 -141.999 79s-134 31 -224 31c-67.333 0 -128.333 -12.833 -183 -38.5s-103.334 -60.5 -146.001 -104.5s-79.667 -95.333 -111 -154s-57.166 -121.167 -77.499 -187.5
s-35.333 -134.666 -45 -204.999s-14.5 -138.833 -14.5 -205.5z" />
    <glyph glyph-name="Q" unicode="Q" horiz-adv-x="1512" 
d="M1632 1064c0 -78 -6.83301 -160.496 -20.5 -247.496s-34.334 -173.5 -62.001 -259.5s-62.834 -169 -105.501 -249s-93 -151.833 -151 -215.5s-123.833 -116.834 -197.5 -159.501s-155.5 -69.667 -245.5 -81c31.333 -31.333 59.166 -61.666 83.499 -90.999
s48.166 -55.5 71.499 -78.5s47.666 -41.5 72.999 -55.5s54.333 -21 87 -21c32 0 63.167 8.33301 93.5 25s57.833 35 82.5 55c28.667 23.333 56 50.333 82 81c7.33301 5.33301 14.333 8.33301 21 9s12 1 16 1c17.333 -3.33301 32 -10 44 -20s21.5 -22 28.5 -36
s12 -28.833 15 -44.5s4.5 -30.167 4.5 -43.5c0 -17.333 -1.83301 -29.5 -5.5 -36.5s-7.16699 -12.167 -10.5 -15.5l-18 -18.5c-11.333 -11.667 -27.166 -26.167 -47.499 -43.5s-44.666 -36.166 -72.999 -56.499s-59.666 -39 -93.999 -56s-71 -31.167 -110 -42.5
s-79.5 -17 -121.5 -17c-50.667 0 -93.667 9.66699 -129 29s-65.5 44.166 -90.5 74.499s-45.667 64 -62 101s-31.166 73.167 -44.499 108.5l-38 97.5c-12 29.667 -26 52.167 -42 67.5c-101.333 18 -188 51.667 -260 101s-131 109.666 -177 180.999
s-79.667 151.666 -101 240.999s-32 182.666 -32 279.999c0 90.667 8.5 184 25.5 280s42.333 189.5 76 280.5s75.667 176.833 126 257.5s108.833 151.5 175.5 212.5s141.5 109.167 224.5 144.5s173.833 53 272.5 53c99.333 0 188.333 -19 267 -57
s145.334 -91.5 200.001 -160.5s96.5 -152.333 125.5 -250s43.5 -205.834 43.5 -324.501zM766 64.0039c50.667 0 97.834 10.498 141.501 31.498s83.834 49.5 120.501 85.5s69.834 78.5 99.501 127.5s56.167 101.333 79.5 157s43.666 113.334 60.999 173.001
s31.666 118.667 42.999 177s19.666 114.666 24.999 168.999s8 103.5 8 147.5c0 76 -6.66699 146.5 -20 211.5s-33.666 121.333 -60.999 169s-61.666 84.834 -102.999 111.501s-90 40 -146 40c-56.667 0 -111.667 -15.667 -165 -47s-103.333 -73.666 -150 -126.999
s-89.334 -115 -128.001 -185s-71.834 -144 -99.501 -222s-49.167 -157.333 -64.5 -238s-23 -158 -23 -232c0 -78.667 8.66699 -151.5 26 -218.5s42.333 -125 75 -174s72.667 -87.333 120 -115s101 -41.5 161 -41.5z" />
    <glyph glyph-name="R" unicode="R" horiz-adv-x="1700" 
d="M1824 1263c0 -32 -5.33398 -65.6621 -16.001 -100.995s-27 -70.166 -49 -104.499s-50.167 -67.5 -84.5 -99.5s-75.5 -60.667 -123.5 -86s-102.667 -46.5 -164 -63.5s-130.333 -27.833 -207 -32.5c46.667 -17.333 85.667 -39.666 117 -66.999s57.5 -57.833 78.5 -91.5
s37.667 -69.167 50 -106.5s22.833 -74 31.5 -110s16.5 -70.5 23.5 -103.5s15.333 -62 25 -87s21.834 -45 36.501 -60s34.334 -22.5 59.001 -22.5c22.667 0 47.5 3.83301 74.5 11.5s54.667 18.5 83 32.5s56.333 30.667 84 50s53.5 40.666 77.5 63.999l116 -196
c0 0.666992 -6.33301 -3.5 -19 -12.5s-30.334 -20.333 -53.001 -34s-49.5 -28.667 -80.5 -45s-65.167 -31.5 -102.5 -45.5s-76.833 -25.667 -118.5 -35s-84.167 -14 -127.5 -14c-48.667 0 -90.167 12 -124.5 36s-63.5 55.667 -87.5 95s-44 84.166 -60 134.499
s-30 101.833 -42 154.5s-23.167 104.167 -33.5 154.5s-21.833 95.166 -34.5 134.499s-27.667 71 -45 95s-39 36 -65 36h-63c-13.333 -146 -30 -276.833 -50 -392.5s-46.5 -213.834 -79.5 -294.501s-74.333 -142.334 -124 -185.001s-110.5 -64 -182.5 -64
c-53.333 0 -102.166 10.167 -146.499 30.5s-84.333 48.166 -120 83.499s-66.834 76.666 -93.501 123.999s-48.834 98.166 -66.501 152.499s-31 110.5 -40 168.5s-13.5 115.667 -13.5 173c0 103.333 12.833 204.5 38.5 303.5s62.667 192.5 111 280.5
s106.833 168.833 175.5 242.5s145.834 137.334 231.501 191.001s179 95.5 280 125.5s207.833 45 320.5 45c50 0 99.667 -4.66699 149 -14s96.333 -23 141 -41s86.167 -40.333 124.5 -67s71.333 -57.167 99 -91.5s49.5 -72.5 65.5 -114.5s24 -87.667 24 -137zM1203 1504
c-110 0 -208.17 -15.3369 -294.503 -46.0039s-162.166 -72 -227.499 -124s-121 -112.333 -167 -181s-83.333 -140.667 -112 -216s-49.5 -151.666 -62.5 -228.999s-19.5 -151 -19.5 -221c0 -54 4.66699 -108.167 14 -162.5s24 -103.166 44 -146.499s45.833 -78.5 77.5 -105.5
s69.834 -40.5 114.501 -40.5c22.667 0 42.667 8.83301 60 26.5s32.666 41.334 45.999 71.001s25 64 35 103s18.333 79.5 25 121.5s12 84.333 16 127s7.16699 82.667 9.5 120s3.83301 70.5 4.5 99.5s1 51.167 1 66.5c-52 24.667 -91.5 47.667 -118.5 69s-40.5 46 -40.5 74
c0 6.66699 0.5 14.667 1.5 24s3.16699 18 6.5 26s8.16602 14.833 14.499 20.5s14.833 8.5 25.5 8.5c4.66699 0 14 -0.833008 28 -2.5s28.667 -3.66699 44 -6s29.5 -4.33301 42.5 -6s21.5 -2.5 25.5 -2.5l1 21c0.666992 10.667 1.83398 25.334 3.50098 44.001
s4.5 38.667 8.5 60s9.83301 42.833 17.5 64.5s17.834 41.334 30.501 59.001s27.834 32 45.501 43s39.167 16.5 64.5 16.5c33.333 0 55.5 -7.5 66.5 -22.5s16.5 -34.167 16.5 -57.5v-9c-0.666992 -25.333 -4.5 -58.833 -11.5 -100.5s-13.5 -89.834 -19.5 -144.501
c108.667 2 198.334 12.833 269.001 32.5s126.667 44.5 168 74.5s70.333 62.833 87 98.5s25 70.167 25 103.5c0 32.667 -7.83301 64 -23.5 94s-38.834 56.5 -69.501 79.5s-68.667 41.333 -114 55s-98 20.5 -158 20.5z" />
    <glyph glyph-name="S" unicode="S" horiz-adv-x="1695" 
d="M733 1312c0 -44 12.8359 -83.3311 38.5029 -117.998s59.667 -66.834 102 -96.501s90.333 -57.834 144 -84.501l165 -82.5c56.333 -28.333 111.333 -58.666 165 -90.999s101.667 -68.833 144 -109.5s76.333 -86.667 102 -138s38.5 -110 38.5 -176
c0 -60 -9.66699 -115.167 -29 -165.5s-45.833 -95.5 -79.5 -135.5s-73.5 -75.333 -119.5 -106s-95.667 -56 -149 -76s-109.333 -35.167 -168 -45.5s-117.667 -15.5 -177 -15.5c-83.333 0 -164.333 10.167 -243 30.5s-148.667 51 -210 92s-110.5 92.333 -147.5 154
s-55.5 133.834 -55.5 216.501c0 42.667 6.83301 80.167 20.5 112.5s30.667 59.333 51 81s42.5 38 66.5 49s46.333 16.5 67 16.5c21.333 0 39.166 -5.83301 53.499 -17.5s21.5 -29.834 21.5 -54.501c0 -11.333 -1.33301 -23.333 -4 -36l-8.5 -41.5
c-3 -15 -5.83301 -31.5 -8.5 -49.5s-4 -37.667 -4 -59c0 -46.667 10.667 -87 32 -121s49.666 -62 84.999 -84s76 -38.333 122 -49s93.667 -16 143 -16c58 0 116 7 174 21s110 34.667 156 62s83.333 60.833 112 100.5s43 85.167 43 136.5
c0 47.333 -12.833 89.666 -38.5 126.999s-59.667 71.833 -102 103.5s-90.5 61.5 -144.5 89.5l-165 85c-56 28.667 -111 58.834 -165 90.501s-102.167 66.5 -144.5 104.5s-76.333 80.5 -102 127.5s-38.5 100.5 -38.5 160.5c0 56 13.5 111.167 40.5 165.5s67.667 103 122 146
s122.166 77.833 203.499 104.5s176.666 40 285.999 40c69.333 0 137.166 -10.333 203.499 -31s125.5 -50 177.5 -88s93.833 -83.333 125.5 -136s47.5 -111 47.5 -175c0 -38 -6.5 -77 -19.5 -117s-33.833 -81.667 -62.5 -125c-28 -42 -58.5 -73.167 -91.5 -93.5
s-62.833 -30.5 -89.5 -30.5c-20 0 -36.333 5.83301 -49 17.5s-19 29.167 -19 52.5c0 17.333 4 37.833 12 61.5s21.667 50.834 41 81.501c18 29.333 31.333 56.833 40 82.5s13 49.5 13 71.5c0 34 -9.16699 63.833 -27.5 89.5s-43.666 47.167 -75.999 64.5
s-71.166 30.333 -116.499 39s-95 13 -149 13c-60 0 -112.167 -6.83301 -156.5 -20.5s-81.333 -31.334 -111 -53.001s-51.667 -45.834 -66 -72.501s-21.5 -53 -21.5 -79z" />
    <glyph glyph-name="T" unicode="T" horiz-adv-x="1536" 
d="M199 1330c0 56 11.502 104.831 34.502 146.498s55.333 77.167 97 106.5s91.667 53.5 150 72.5s122.5 33.833 192.5 44.5s145 18 225 22s162.667 6 248 6c116 0 237.5 -4.66699 364.5 -14s259.5 -26.333 397.5 -51c32 -6.66699 54.5 -18.667 67.5 -36
s19.5 -36.666 19.5 -57.999c0 -13.333 -3 -26.333 -9 -39s-14 -24.334 -24 -35.001s-21.667 -19.167 -35 -25.5s-27.333 -9.5 -42 -9.5c-51.333 0 -104.833 2.66699 -160.5 8s-113.667 11.333 -174 18l-186.5 20c-64 6.66699 -130 11.667 -198 15
c-12 -74.667 -27.333 -155 -46 -241s-39.167 -173.833 -61.5 -263.5l-70 -268l-70.5 -255l-63.5 -224.5c-19.667 -68.667 -35.834 -127.667 -48.501 -177c-5.33301 -22.667 -13.5 -43.5 -24.5 -62.5s-23.333 -35.5 -37 -49.5s-27.834 -24.833 -42.501 -32.5
s-28.334 -11.5 -41.001 -11.5c-38 0 -69.333 9 -94 27s-37 47 -37 87c0 12.667 2 26.667 6 42c8.66699 60.667 20.167 120.334 34.5 179.001s31.166 119.834 50.499 183.501s41.333 131.167 66 202.5l82 235.5l97.5 283.5l113.5 345
c-35.333 -2.66699 -71.166 -5.66699 -107.499 -9s-71.666 -7.83301 -105.999 -13.5s-66.333 -12.834 -96 -21.501s-55.667 -19.667 -78 -33s-40 -29.333 -53 -48s-19.5 -40.667 -19.5 -66c0 -1.33301 -0.833008 -8.66602 -2.5 -21.999s-7.5 -27.833 -17.5 -43.5
s-25.833 -30 -47.5 -43s-52.5 -19.5 -92.5 -19.5s-71 6.66699 -93 20s-38 28 -48 44c-12 18.667 -18.667 40 -20 64z" />
    <glyph glyph-name="U" unicode="U" horiz-adv-x="1382" 
d="M1248 1568c2 34 8.33594 61.3359 19.0029 82.0029s24.167 36.834 40.5 48.501s34.666 19.5 54.999 23.5s40.5 6 60.5 6c18 0 34 -2 48 -6s25.833 -11.167 35.5 -21.5s17 -24.166 22 -41.499s7.5 -39.333 7.5 -66c0 -184.667 -11 -356.334 -33 -515.001
s-53 -302.834 -93 -432.501s-88 -244.667 -144 -345s-117.833 -184.5 -185.5 -252.5s-140.5 -119.667 -218.5 -155s-158.667 -53 -242 -53c-100 0 -183.667 20.167 -251 60.5s-121.166 94.833 -161.499 163.5s-69 148.167 -86 238.5s-25.5 185.5 -25.5 285.5
c0 79.333 5.16699 159.666 15.5 240.999s23.5 160.5 39.5 237.5s34.167 150 54.5 219s40.5 131.167 60.5 186.5c12.667 38.667 25.5 68.667 38.5 90s25.833 37.166 38.5 47.499s25.334 16.666 38.001 18.999s25.667 3.5 39 3.5c25.333 0 47.833 -1.16699 67.5 -3.5
s36.167 -6.83301 49.5 -13.5s23.333 -16.167 30 -28.5s10 -28.833 10 -49.5v-8c-1.33301 -8 -2.33301 -16.667 -3 -26s-2.66699 -19.666 -6 -30.999l-32.5 -99.5c-13.667 -41.667 -28.5 -89.334 -44.5 -143.001s-32.333 -111.5 -49 -173.5s-31.667 -125.5 -45 -190.5
s-24.166 -129.667 -32.499 -194s-12.5 -125.5 -12.5 -183.5c0 -60 5 -115.833 15 -167.5s26.833 -96.5 50.5 -134.5s54.5 -67.833 92.5 -89.5s85 -32.5 141 -32.5c43.333 0 84.5 11.833 123.5 35.5s75.667 57 110 100s66.666 94.5 96.999 154.5s58.166 126 83.499 198
s48.166 148.833 68.499 230.5s38.166 166 53.499 253s28.166 175.5 38.499 265.5s17.833 179 22.5 267z" />
    <glyph glyph-name="V" unicode="V" horiz-adv-x="1056" 
d="M91 480c0 1.33301 -0.999023 12.998 -2.99902 34.998s-4.33301 51.333 -7 88l-9.5 126.5l-11 150l-11 160c-3.66699 54.333 -6.83398 106.333 -9.50098 156s-4.83398 95.334 -6.50098 137.001s-2.5 76.167 -2.5 103.5c0 40.667 5.16699 72 15.5 94
s22.833 38.167 37.5 48.5s30 16.333 46 18s30 2.5 42 2.5c24.667 0 44.834 -3.33301 60.501 -10s28 -16.5 37 -29.5s15.167 -28.833 18.5 -47.5s5 -39.667 5 -63l44 -1189l651 1250c4.66699 16 12.667 31.333 24 46s25 27.5 41 38.5s33.667 19.667 53 26s39.333 9.5 60 9.5
c24 0 42.833 -10.5 56.5 -31.5s20.5 -48.5 20.5 -82.5c0 -24 -6.33301 -56 -19 -96s-29.5 -85 -50.5 -135s-45.5 -103.667 -73.5 -161l-87.5 -175l-92 -176.5l-88.5 -164.5c-8 -15.333 -14 -31.333 -18 -48s-6 -33.334 -6 -50.001c0 -25.333 5 -50 15 -74
s25.5 -45.333 46.5 -64s47.667 -33.5 80 -44.5s70.833 -16.5 115.5 -16.5c10.667 0 22.5 2.33301 35.5 7s26.5 10.834 40.5 18.501s28.333 16.5 43 26.5l43 30c32 24 65 51.333 99 82l-23 -207c-55.333 -44 -110.5 -79.167 -165.5 -105.5s-106.5 -39.5 -154.5 -39.5
c-45.333 0 -85.5 6.16699 -120.5 18.5s-64.833 29.833 -89.5 52.5s-43.334 50 -56.001 82s-19 67.667 -19 107c0 20 2 41.667 6 65c-39.333 -92 -76.166 -168.833 -110.499 -230.5s-67.5 -111 -99.5 -148s-63 -63.333 -93 -79s-59.667 -23.5 -89 -23.5
c-40 0 -72.667 6.66699 -98 20s-45.5 31.833 -60.5 55.5s-26 51.834 -33 84.501s-12 68 -15 106s-5.16699 78 -6.5 120s-4 84.333 -8 127z" />
    <glyph glyph-name="W" unicode="W" horiz-adv-x="2399" 
d="M864 1542c0 -22.667 -5.5 -56.165 -16.5 -100.498s-24.833 -95.5 -41.5 -153.5l-54 -189c-19.333 -68 -37.333 -137 -54 -207s-30.5 -138.833 -41.5 -206.5s-16.5 -130.5 -16.5 -188.5c0 -47.333 3.16699 -91.5 9.5 -132.5s16.166 -76.667 29.499 -107
s30 -54.166 50 -71.499s43.667 -26 71 -26s53.833 8 79.5 24s50.5 38 74.5 66s47 61.333 69 100s43.167 80.5 63.5 125.5s39.5 92.333 57.5 142s35 99.834 51 150.501c56 178.667 105.667 381.667 149 609c8 36.667 17.5 67.334 28.5 92.001s24.167 44.334 39.5 59.001
s33.166 25 53.499 31s43.833 9 70.5 9c25.333 0 46.166 -2.33301 62.499 -7s29.333 -11 39 -19s16.5 -17.667 20.5 -29s6 -24 6 -38c0 -4.66699 -2.66699 -24.167 -8 -58.5l-20.5 -132l-27 -182.5c-9.66699 -68 -18.667 -137.833 -27 -209.5s-15.166 -142.5 -20.499 -212.5
s-8 -134.333 -8 -193c0 -60 2.16699 -114.167 6.5 -162.5s11.666 -89.5 21.999 -123.5s23.833 -60 40.5 -78s37.334 -27 62.001 -27c42.667 0 81.5 16.667 116.5 50s67 77.833 96 133.5s55 120.167 78 193.5s43.333 150 61 230s33 160.667 46 242
s23.833 158.166 32.5 230.499s15.5 137.333 20.5 195s8.5 102.834 10.5 135.501c2 34 8.16699 61.333 18.5 82s23.5 36.667 39.5 48s34.167 18.833 54.5 22.5s41.166 5.5 62.5 5.5c16.667 0 31.834 -1.83301 45.5 -5.5c13.667 -3.66699 25.5 -10 35.5 -19s17.667 -21 23 -36
s8 -34.167 8 -57.5c0 -64.667 -4.16699 -134.5 -12.5 -209.5s-18.666 -150.167 -31 -225.5c-12.333 -75.333 -25.666 -148.666 -40 -219.999l-40 -193l-31 -145c-8.33301 -39.333 -12.5 -64.333 -12.5 -75c0 -26 3.66699 -48.167 11 -66.5s17.166 -33.5 29.5 -45.5
c12.333 -12 27 -20.667 44 -26s35.167 -8 54.5 -8s39.166 4.5 59.5 13.5c20.333 9 39.833 21.5 58.5 37.5s35.834 35.167 51.5 57.5c15.667 22.333 28.834 47.166 39.5 74.499l17 -207c-49.333 -56.667 -100.166 -101.334 -152.5 -134.001
c-52.333 -32.667 -101.5 -49 -147.5 -49c-22 0 -42.667 3.5 -62 10.5s-36.5 17.833 -51.5 32.5s-27.5 33.667 -37.5 57s-17 51 -21 83c-33.333 -62 -69.166 -117.833 -107.499 -167.5s-79 -92 -122 -127s-88 -62 -135 -81s-95.5 -28.5 -145.5 -28.5
c-63.333 0 -117.166 16.667 -161.499 50s-80.333 78.666 -108 135.999s-47.834 124.666 -60.501 201.999s-19 159.666 -19 246.999c0 32 1.66699 62 5 90s6 53 8 75c-24 -152 -54.167 -279.167 -90.5 -381.5s-79 -184.5 -128 -246.5s-105 -106.167 -168 -132.5
s-132.833 -39.5 -209.5 -39.5c-44 0 -86 14.5 -126 43.5s-75.167 72.167 -105.5 129.5s-54.666 129.166 -72.999 215.499s-27.5 187.166 -27.5 302.499c0 70.667 4 143.167 12 217.5s19.5 148.833 34.5 223.5s33.5 148.667 55.5 222s47 144.666 75 213.999
c16.667 38.667 33.334 68.834 50.001 90.501s33.667 37.667 51 48s34.833 16.5 52.5 18.5s35.5 3 53.5 3c14.667 0 28 -1 40 -3s22.167 -6.16699 30.5 -12.5s14.666 -15.333 18.999 -27s6.5 -27.5 6.5 -47.5z" />
    <glyph glyph-name="X" unicode="X" horiz-adv-x="1696" 
d="M947 934c-5.33301 36.667 -11.6611 75.332 -18.9941 115.999s-16.333 81 -27 121s-23.5 78.167 -38.5 114.5s-32.667 68.333 -53 96s-43.666 49.667 -69.999 66s-56.166 24.5 -89.499 24.5c-4 0 -12.833 -6 -26.5 -18s-29.334 -28.5 -47.001 -49.5
s-36.167 -45.333 -55.5 -73s-37 -56.834 -53 -87.501c-10.667 -20 -20.667 -30 -30 -30c-6.66699 0 -13 4.5 -19 13.5s-11.333 20.5 -16 34.5s-8.83398 29.667 -12.501 47s-6.66699 34.166 -9 50.499s-4.16602 31.333 -5.49902 45s-2 24.167 -2 31.5
c0 49.333 6.66699 92.333 20 129s32 67 56 91s52.167 42 84.5 54s67.5 18 105.5 18c33.333 0 67.166 -2.66699 101.499 -8s68.666 -15.5 102.999 -30.5s67.833 -36.5 100.5 -64.5s63.667 -64.667 93 -110s56.5 -100.666 81.5 -165.999s46.833 -143 65.5 -233
c32.667 49.333 67.334 98.166 104.001 146.499s73.834 94.5 111.501 138.5s75.167 84.833 112.5 122.5s72.833 70.334 106.5 98.001s65.167 49.334 94.5 65.001s55 23.5 77 23.5c20.667 0 39.667 -7.5 57 -22.5s32.166 -34.667 44.499 -59s21.833 -52.166 28.5 -83.499
s10 -63 10 -95c0 -64 -17.667 -112.167 -53 -144.5s-81 -48.5 -137 -48.5c-6.66699 0 -11.334 3.83301 -14.001 11.5s-4.33398 17.167 -5.00098 28.5s-0.833984 23.833 -0.500977 37.5s0.166016 26.167 -0.500977 37.5s-2.33398 20.833 -5.00098 28.5s-7 11.5 -13 11.5
c-13.333 0 -29.5 -6.83301 -48.5 -20.5s-40.167 -32.5 -63.5 -56.5s-48.5 -52.333 -75.5 -85l-83.5 -106l-86.5 -119l-85.5 -124c21.333 -80 39 -154 53 -222l38 -184.5c11.333 -55 22.333 -103.333 33 -145s23.334 -76.667 38.001 -105s32.5 -49.666 53.5 -63.999
s47.5 -21.5 79.5 -21.5c40.667 0 86 20 136 60s104.667 105.667 164 197c10 10 21.333 15 34 15c11.333 0 22.666 -3.66699 33.999 -11s21.5 -16.833 30.5 -28.5s16.333 -24.667 22 -39s8.5 -28.5 8.5 -42.5c0 -20.667 -7.33301 -38.334 -22 -53.001
c-44 -52.667 -88.5 -99 -133.5 -139s-88.833 -73.5 -131.5 -100.5s-83.667 -47.333 -123 -61s-75 -20.5 -107 -20.5c-37.333 0 -71 3.83301 -101 11.5s-57.333 21.334 -82 41.001s-47.5 47 -68.5 82s-41.333 79.667 -61 134s-39.167 119.833 -58.5 196.5
s-40 166.667 -62 270l-202 -303l-81 -121l-77.5 -115l-65.5 -96.5l-46 -66.5c-16 -22 -38.833 -39.833 -68.5 -53.5s-60.834 -20.5 -93.501 -20.5c-46 0 -80.333 9.33301 -103 28s-34 42.667 -34 72c0 35.333 15.667 73.333 47 114l60 75.5l88.5 109.5l106 130.5
l112.5 137.5l106.5 130l89.5 109.5l61.5 75c15 18.333 22.167 27.166 21.5 26.499z" />
    <glyph glyph-name="Y" unicode="Y" horiz-adv-x="1472" 
d="M1126 506l-147.995 -195.499c-44 -55.667 -84.167 -103.5 -120.5 -143.5s-69.666 -73.167 -99.999 -99.5s-59.5 -47 -87.5 -62s-55.333 -25.5 -82 -31.5s-54.667 -9 -84 -9c-26.667 0 -53.667 6 -81 18s-52.333 26 -75 42s-41.834 31.833 -57.501 47.5
s-24.834 27.5 -27.501 35.5c-4 5.33301 -7.66699 13 -11 23s-5 20.333 -5 31c0 10 2.33301 18.833 7 26.5s12.667 11.5 24 11.5c4 0 9 -1 15 -3c20.667 -13.333 41 -23 61 -29s38.667 -9 56 -9c50 0 95 8.83301 135 26.5s76 40.5 108 68.5s60.667 59.833 86 95.5
s48 71.5 68 107.5s37.833 70.5 53.5 103.5s30.167 61.167 43.5 84.5l-72 175c-24.667 58 -50.334 113.5 -77.001 166.5s-53.834 102.167 -81.501 147.5s-56 84.833 -85 118.5s-58.5 60 -88.5 79s-60 28.5 -90 28.5c-16 0 -28.833 -2 -38.5 -6s-17.167 -9.33301 -22.5 -16
s-9 -14.334 -11 -23.001s-3 -17.334 -3 -26.001c0 -10 0.666992 -20 2 -30s2 -18.667 2 -26c0 -11.333 -2.83301 -18.333 -8.5 -21s-12.167 -4 -19.5 -4c-13.333 0 -25.333 8 -36 24s-19.667 37.333 -27 64s-13 57.167 -17 91.5s-6 69.833 -6 106.5c0 11.333 3 23 9 35
s15.5 23 28.5 33s29.333 18.167 49 24.5s43.5 9.5 71.5 9.5c76 0 145.5 -19.167 208.5 -57.5s121.5 -90.666 175.5 -156.999s104.333 -144 151 -233s92 -183.833 136 -284.5l113.5 210.5l100.5 193.5l82.5 162.5l60.5 117.5c8.66699 16 24.5 29 47.5 39s47.833 15 74.5 15
c14 0 27.667 -2 41 -6s25.166 -10.333 35.499 -19s18.833 -20.167 25.5 -34.5s10 -31.5 10 -51.5c0 -28 -8.66699 -62.333 -26 -103c-15.333 -35.333 -36.833 -81 -64.5 -137s-60.334 -118.667 -98.001 -188l-125.5 -221.5l-145 -236.5z" />
    <glyph glyph-name="Z" unicode="Z" horiz-adv-x="1025" 
d="M635 1313c-35.333 4 -66.6768 9.8418 -94.0098 17.5088s-51.666 15.334 -72.999 23.001l-57.5 20c-17 5.66699 -32.833 8.5 -47.5 8.5c-12 0 -23.667 -2.66699 -35 -8s-22.833 -14.5 -34.5 -27.5s-23.834 -30.333 -36.501 -52s-26.334 -48.834 -41.001 -81.501
c-18.667 -40.667 -37.667 -68.5 -57 -83.5s-36 -22.5 -50 -22.5c-12.667 0 -21.667 5.5 -27 16.5s-8 25.833 -8 44.5c0 7.33301 0.5 15.333 1.5 24s2.16699 17.667 3.5 27c11.333 86 28.166 156 50.499 210s47.333 96.167 75 126.5s56.167 50.833 85.5 61.5s57 16 83 16
c29.333 0 58.333 -4.33301 87 -13s57.834 -18.334 87.501 -29.001s60 -20.5 91 -29.5s63.167 -13.833 96.5 -14.5c24.667 -0.666992 47.834 -1 69.501 -1h61.5c60.667 0 108.834 0.666992 144.501 2s63 2.66602 82 3.99902s31.833 2.66602 38.5 3.99902s11.334 2 14.001 2
c28 0 48.167 -9.33301 60.5 -28s18.5 -44 18.5 -76c0 -10 -0.666992 -20.5 -2 -31.5s-3 -22.5 -5 -34.5c-1.33301 -3.33301 -6.16602 -9.5 -14.499 -18.5s-22.166 -18.833 -41.499 -29.5c-77.333 -75.333 -148.5 -150.833 -213.5 -226.5s-124 -148.834 -177 -219.501
s-100.167 -137.334 -141.5 -200.001l-107 -167.5l-73.5 -121.5c-19 -32 -32.5 -53 -40.5 -63l-5 -23c0.666992 0 6.16699 -2.66699 16.5 -8s24 -11.833 41 -19.5l57 -25.5c21 -9.33301 42.5 -17.833 64.5 -25.5s43.333 -14.167 64 -19.5s39 -8 55 -8
c54 0 102.333 5.66699 145 17s81.5 25.166 116.5 41.499s66.667 33.666 95 51.999s54.833 34.5 79.5 48.5c14.667 10.667 29.334 16 44.001 16s28.834 -4 42.501 -12s25.834 -18.333 36.501 -31s19.167 -26.834 25.5 -42.501s9.5 -30.834 9.5 -45.501
c0 -22.667 -6 -41 -18 -55c-24 -20 -56.167 -43.333 -96.5 -70s-85.5 -52 -135.5 -76s-103.333 -44.333 -160 -61s-114 -25 -172 -25c-9.33301 0 -25 2.66699 -47 8s-51.333 14.5 -88 27.5s-80.667 30 -132 51s-110.666 47.167 -177.999 78.5
c-34 -30 -67.833 -51.5 -101.5 -64.5s-64.5 -19.5 -92.5 -19.5c-36 0 -65.167 9.33301 -87.5 28s-33.5 44.334 -33.5 77.001c0 25.333 8.5 54.666 25.5 87.999s45.5 69.333 85.5 108l734 960c-15.333 0 -31.166 -0.333008 -47.499 -1s-33.166 -1 -50.499 -1
c-21.333 0 -43 1 -65 3z" />
    <glyph glyph-name="bracketleft" unicode="[" horiz-adv-x="927" 
d="M392 1415l13.5029 50.499c5 18.333 11.667 36.833 20 55.5s18.833 36.834 31.5 54.501s28.667 33.167 48 46.5s42.666 24.166 69.999 32.499s59.666 12.5 96.999 12.5h318c16.667 0 31.167 -3.5 43.5 -10.5s22.5 -15.833 30.5 -26.5s14 -22.167 18 -34.5
s6 -23.833 6 -34.5c0 -14.667 -4.16699 -29.167 -12.5 -43.5s-19 -27 -32 -38s-27 -19.833 -42 -26.5s-29.5 -10 -43.5 -10h-286c0 -1.33301 -2 -15.666 -6 -42.999l-16 -109.5l-23.5 -159.5l-29 -192.5l-31.5 -208.5l-31.5 -208l-29 -190.5l-24 -156.5l-16.5 -105.5
c-4 -25.667 -6 -38.167 -6 -37.5h286c10.667 0 21.167 -2.16699 31.5 -6.5s19.166 -10.333 26.499 -18s13.333 -16.5 18 -26.5s7 -20.667 7 -32c0 -10 -3.83301 -23 -11.5 -39s-18.5 -31.5 -32.5 -46.5s-30.667 -28 -50 -39s-40.333 -16.5 -63 -16.5h-318
c-36 0 -65.5 3.83301 -88.5 11.5s-41 18 -54 31s-22 27.833 -27 44.5s-7.5 34 -7.5 52c0 19.333 1.83301 38.833 5.5 58.5l10.5 54.5c12 60.667 24 126.5 36 197.5l35.5 218.5l34 225.5l30.5 217.5z" />
    <glyph glyph-name="backslash" unicode="\" 
d="M416 1760l73.0029 -161.501l94 -208l106.5 -236l110.5 -245.5l106.5 -237l94.5 -210l74 -164.5l45 -100.5c13.333 -30.667 23.166 -57.667 29.499 -81s9.5 -43.666 9.5 -60.999c0 -32.667 -10.333 -56.5 -31 -71.5s-45.667 -22.5 -75 -22.5
c-16.667 0 -33.834 2.33301 -51.501 7s-34.834 11.334 -51.501 20.001s-32.167 19.5 -46.5 32.5s-26.5 27.5 -36.5 43.5c-82 166 -157 326 -225 480l-186 432l-151.5 365.5l-119.5 280.5c-10.667 23.333 -18.334 45.166 -23.001 65.499s-7 38.833 -7 55.5
c0 20 3 37.5 9 52.5s14.167 27.667 24.5 38s22.333 18 36 23s27.834 7.5 42.501 7.5c28 0 55.833 -8.66699 83.5 -26s49.5 -43.333 65.5 -78z" />
    <glyph glyph-name="bracketright" unicode="]" horiz-adv-x="927" 
d="M696 60l-13.5049 -50.499c-5 -18.333 -11.667 -36.833 -20 -55.5s-18.833 -36.834 -31.5 -54.501s-28.667 -33.167 -48 -46.5s-42.666 -24.166 -69.999 -32.499s-59.666 -12.5 -96.999 -12.5h-308c-18 0 -33.667 3.83301 -47 11.5s-24.5 17.167 -33.5 28.5
s-15.833 23.5 -20.5 36.5s-7 24.833 -7 35.5c0 14 3.66699 27.667 11 41s16.833 25.333 28.5 36s24.5 19.167 38.5 25.5s27.667 9.5 41 9.5h297c0 1.33301 2 15.666 6 42.999l16 109.5l23.5 159.5l29 192.5l31.5 208.5l31.5 208l29 190.5l24 156.5l16.5 105.5
c4 25.667 6 38.167 6 37.5h-260c-12.667 0 -25.167 2.83301 -37.5 8.5s-23.5 13.167 -33.5 22.5s-18.167 20 -24.5 32s-9.5 24.667 -9.5 38c0 10 2.83301 22.167 8.5 36.5s13.834 27.833 24.501 40.5s23.834 23.5 39.501 32.5s33.167 13.5 52.5 13.5h346
c36 0 65.5 -3.83301 88.5 -11.5s41 -18 54 -31s22 -27.833 27 -44.5s7.5 -34 7.5 -52c0 -19.333 -1.83301 -39 -5.5 -59s-7.16699 -38 -10.5 -54c-12 -60.667 -24.167 -126.5 -36.5 -197.5s-24.166 -144 -35.499 -219l-33.5 -225.5l-30.5 -217z" />
    <glyph glyph-name="asciicircum" unicode="^" horiz-adv-x="1089" 
d="M1013 680c6.66699 -20.667 10 -40.0029 10 -58.0029s-3 -34 -9 -48s-13.5 -26 -22.5 -36s-18.833 -17.5 -29.5 -22.5s-20.334 -7.5 -29.001 -7.5c-20 0 -38.333 5.16699 -55 15.5s-31.5 22.5 -44.5 36.5s-23.833 28.667 -32.5 44s-14.334 28 -17.001 38l-206 482
l-260 -521c-18.667 -34 -39 -57.833 -61 -71.5s-43 -20.5 -63 -20.5c-14 0 -27.167 2.83301 -39.5 8.5s-23 13.5 -32 23.5s-16.167 21.667 -21.5 35s-8 27.666 -8 42.999c0 8.66699 1 18.334 3 29.001s5.66699 21 11 31l12 23l28.5 54l39 74.5l44.5 84.5l45 85l39 75
l28.5 54.5c7.66699 14.333 11.834 22.5 12.501 24.5c30 66 63.833 113.833 101.5 143.5s74.167 44.5 109.5 44.5c18.667 0 37.5 -1.83301 56.5 -5.5s37.667 -11.167 56 -22.5s36.5 -27.166 54.5 -47.499s35 -46.833 51 -79.5c38 -73.333 76.333 -152.666 115 -237.999
s76.334 -175.666 113.001 -270.999z" />
    <glyph glyph-name="underscore" unicode="_" 
d="M128 0c-16 0 -32 2.00098 -48 6.00098s-30.333 10.333 -43 19s-23 19.834 -31 33.501s-12 30.167 -12 49.5c0 25.333 6.5 45.666 19.5 60.999s30.667 27 53 35s48.166 13.333 77.499 16s60 4 92 4h110.5h150c55 0 113 0.166992 174 0.5s121.833 0.5 182.5 0.5h176.5
h154.5c16.667 0 30.334 -1.66699 41.001 -5s19 -8 25 -14s10.167 -12.667 12.5 -20s3.5 -15 3.5 -23c0 -23.333 -3.83301 -44.833 -11.5 -64.5s-21 -36.834 -40 -51.501s-44.333 -26.167 -76 -34.5s-71.167 -12.5 -118.5 -12.5h-892z" />
    <glyph glyph-name="grave" unicode="`" horiz-adv-x="609" 
d="M496 1203c3.33301 -8.66699 5.83301 -16.999 7.5 -24.999s2.5 -15.667 2.5 -23c0 -20 -5.66699 -36.167 -17 -48.5s-25 -18.5 -41 -18.5c-11.333 0 -22.833 2.83301 -34.5 8.5s-22.834 15.167 -33.501 28.5l-33 40l-45 55.5l-52.5 64.5l-54 68.5l-51 66l-43.5 57.5
c-24.667 34.667 -37 67 -37 97c0 20 4.33301 38.333 13 55s19.834 31 33.501 43s29.167 21.333 46.5 28s34.666 10 51.999 10c19.333 0 37.833 -5 55.5 -15s30.834 -26.333 39.501 -49l85 -194l33 -77l31.5 -72.5l25.5 -60c7.33301 -17.667 13 -30.834 17 -39.501z" />
    <glyph glyph-name="a" unicode="a" horiz-adv-x="928" 
d="M1174 245c-15.333 -21.333 -35.8398 -46.332 -61.5068 -74.999s-54.5 -56 -86.5 -82s-66.333 -48 -103 -66s-73.334 -27 -110.001 -27c-44 0 -80.667 14.167 -110 42.5s-54.666 69.5 -75.999 123.5c-16 -18.667 -35.667 -37.667 -59 -57s-48.833 -36.833 -76.5 -52.5
s-56.5 -28.5 -86.5 -38.5s-60 -15 -90 -15c-32 0 -63.167 6.5 -93.5 19.5s-57.166 31.667 -80.499 56s-42 54 -56 89s-21 74.5 -21 118.5c0 50 7 101.333 21 154s33.333 104.167 58 154.5s53.834 97.833 87.501 142.5s70.5 83.667 110.5 117s82.167 59.833 126.5 79.5
s89.5 29.5 135.5 29.5c15.333 0 27.333 -3 36 -9s15.834 -12.833 21.501 -20.5l16.5 -22.5c5.33301 -7.33301 12 -12.666 20 -15.999s16.167 -5.5 24.5 -6.5s16.833 -1.5 25.5 -1.5c7.33301 0 14.833 0.166992 22.5 0.5s15.167 0.5 22.5 0.5c10 0 19.333 -1 28 -3
s16.334 -6.33301 23.001 -13s11.834 -16 15.501 -28s5.5 -28.333 5.5 -49c0 -32 -3.33301 -67.5 -10 -106.5s-14 -79 -22 -120s-15.333 -82 -22 -123s-10 -79.833 -10 -116.5c0 -31.333 2.83301 -55.833 8.5 -73.5s17.834 -26.5 36.501 -26.5c14 0 28.667 3.5 44 10.5
s30.833 16.167 46.5 27.5s31.334 24.166 47.001 38.499s30.5 29.166 44.5 44.499c32.667 36 65.667 76.667 99 122zM319.993 324.001c0 -16.667 1.16699 -32.834 3.5 -48.501s6.5 -29.667 12.5 -42s14 -22.333 24 -30s22.667 -11.5 38 -11.5c24.667 0 47 10.667 67 32
s37.333 47 52 77s26.5 61 35.5 93s14.833 58.667 17.5 80l61 294c-27.333 0 -54 -6.83301 -80 -20.5s-50.5 -32.167 -73.5 -55.5s-44.167 -50 -63.5 -80s-36 -61.5 -50 -94.5s-24.833 -66.167 -32.5 -99.5s-11.5 -64.666 -11.5 -93.999z" />
    <glyph glyph-name="b" unicode="b" horiz-adv-x="950" 
d="M452 805c37.333 46.667 71.501 84.1621 102.501 112.495s61.833 42.5 92.5 42.5c39.333 0 74.333 -8.66699 105 -26s56.667 -40.333 78 -69s37.666 -61.667 48.999 -99s17 -76.333 17 -117c0 -34 -1.33301 -66.167 -4 -96.5s-7.5 -60 -14.5 -89
s-16.667 -57.833 -29 -86.5s-28.5 -58.334 -48.5 -89.001l73 41c24.667 13.333 49.5 28 74.5 44s50.167 33.833 75.5 53.5s51.333 42.834 78 69.501l77 -165c-36.667 -33.333 -73.167 -62.333 -109.5 -87s-73.666 -46.167 -111.999 -64.5s-78.333 -34.166 -120 -47.499
s-85.834 -25.333 -132.501 -36c-11.333 -11.333 -26.833 -22.666 -46.5 -33.999s-39.167 -21.666 -58.5 -30.999c-22 -10.667 -45.667 -21 -71 -31h-25c-56.667 0 -112.834 7.83301 -168.501 23.5s-106.167 33.167 -151.5 52.5c-52.667 22 -103 47.333 -151 76
c2 54 6 115 12 183c5.33301 58.667 12.666 127.834 21.999 207.501s22 168.5 38 266.5c10.667 65.333 24 138.166 40 218.499s34.833 161.666 56.5 243.999s46 162.333 73 240s57 146.834 90 207.501s69 109.334 108 146.001s81.167 55 126.5 55
c50.667 0 91.334 -8.66699 122.001 -26s54.334 -40.833 71.001 -70.5s27.667 -64.5 33 -104.5s8 -82.667 8 -128c0 -63.333 -11.833 -128.666 -35.5 -195.999s-54.5 -134.5 -92.5 -201.5s-80.5 -132.5 -127.5 -196.5s-93.833 -124.333 -140.5 -181zM542.001 731.995
c-23.333 0 -46.6689 -4.83008 -70.002 -14.4971s-45 -24.667 -65 -45s-37.667 -46.333 -53 -78s-26.666 -69.834 -33.999 -114.501c-6 -36 -11 -69.167 -15 -99.5s-7.33301 -57.166 -10 -80.499c-2.66699 -26.667 -5 -51.667 -7 -75c22 -6.66699 44 -12.334 66 -17.001
c19.333 -4 39.666 -7.66699 60.999 -11s41.666 -5 60.999 -5c22.667 0 43.334 6.66699 62.001 20s35.334 31.166 50.001 53.499s27.334 47.833 38.001 76.5s19.334 58.5 26.001 89.5s11.667 61.667 15 92s5 58.166 5 83.499c0 16.667 -1.83301 32.5 -5.5 47.5
s-10.334 28.167 -20.001 39.5s-23 20.5 -40 27.5s-38.5 10.5 -64.5 10.5zM639.998 1648c0 2.66699 -0.501953 8.33301 -1.50195 17s-3.33301 17.667 -7 27s-8.83398 17.666 -15.501 24.999s-15.667 11 -27 11c-13.333 0 -27.166 -9.5 -41.499 -28.5s-28.5 -44.667 -42.5 -77
s-27.667 -69.666 -41 -111.999s-26.333 -86.666 -39 -132.999s-24.5 -93.5 -35.5 -141.5s-21 -93.5 -30 -136.5s-16.833 -82.333 -23.5 -118l-16 -86.5c18 34.667 38.167 70.667 60.5 108l67.5 116.5l66.5 124c21.667 42.333 41.334 85.666 59.001 129.999
s32.334 89.333 44.001 135s19.167 92.167 22.5 139.5z" />
    <glyph glyph-name="c" unicode="c" horiz-adv-x="736" 
d="M437 0c-61.333 0 -115.168 11.335 -161.501 34.002s-85.166 53 -116.499 91s-55 82 -71 132s-24 102 -24 156c0 38.667 4 79 12 121s19.833 83.167 35.5 123.5s35 78.833 58 115.5s49.667 68.834 80 96.501s64.166 49.667 101.499 66s78.333 24.5 123 24.5
c38 0 73.167 -5.83301 105.5 -17.5s60 -27.834 83 -48.501s41 -45.167 54 -73.5s19.5 -58.833 19.5 -91.5c0 -22.667 -3 -45 -9 -67s-14.833 -41.833 -26.5 -59.5s-25.834 -31.834 -42.501 -42.501s-35.334 -16 -56.001 -16c-31.333 0 -51.833 8.33301 -61.5 25
s-14.5 39.667 -14.5 69c0 12 0.5 24.667 1.5 38s1.5 25.333 1.5 36c0 16 -1.66699 29.333 -5 40s-10.666 16 -21.999 16c-27.333 0 -50.666 -6.5 -69.999 -19.5s-35.833 -30 -49.5 -51s-24.5 -44.667 -32.5 -71s-14.333 -52.5 -19 -78.5s-7.66699 -50.833 -9 -74.5
s-2 -43.5 -2 -59.5c0 -24 2.16699 -49 6.5 -75s12.5 -49.833 24.5 -71.5s28.333 -39.667 49 -54s47.334 -21.5 80.001 -21.5c32 0 67.333 9.83301 106 29.5s77.5 44.5 116.5 74.5s76.167 63 111.5 99s65.666 70 90.999 102l69 -116c-50 -71.333 -104 -135 -162 -191
c-24.667 -24 -51.5 -47.333 -80.5 -70s-59.333 -42.834 -91 -60.501s-64.667 -32 -99 -43s-69.166 -16.5 -104.499 -16.5z" />
    <glyph glyph-name="d" unicode="d" horiz-adv-x="1072" 
d="M568 756c-44 -21.333 -83.168 -49.5 -117.501 -84.5s-63 -72.833 -86 -113.5s-40.5 -81.667 -52.5 -123s-18 -78.666 -18 -111.999c0 -13.333 1.5 -26.666 4.5 -39.999s8.5 -25.333 16.5 -36s19.333 -19.334 34 -26.001s33.667 -10 57 -10c12 0 23.833 3 35.5 9
s22.834 13.833 33.501 23.5s20.834 20.667 30.501 33s18.5 25.166 26.5 38.499c18.667 30.667 35.667 65.334 51 104.001c-2 9.33301 -3.66699 24.166 -5 44.499s-2.33301 43 -3 68l-2 77.5c-0.666992 26.667 -1.16699 51 -1.5 73s-0.833008 40 -1.5 54
s-1.33398 20.667 -2.00098 20zM1256 196c-47.333 -36.667 -93.998 -69.334 -139.998 -98.001c-19.333 -12 -39.666 -23.833 -60.999 -35.5s-42.333 -22 -63 -31s-40.834 -16.333 -60.501 -22s-37.834 -8.5 -54.501 -8.5c-9.33301 0 -23.166 2 -41.499 6
s-38.333 12.167 -60 24.5s-43.334 30.166 -65.001 53.499s-40.5 54.333 -56.5 93c-24.667 -24 -50.834 -46.833 -78.501 -68.5s-56.334 -40.5 -86.001 -56.5s-59.667 -28.833 -90 -38.5s-60.833 -14.5 -91.5 -14.5c-43.333 0 -80.833 9.33301 -112.5 28s-58 43.5 -79 74.5
s-36.667 66.167 -47 105.5s-15.5 80 -15.5 122c0 42.667 5.5 85.834 16.5 129.501s27 86 48 127s46.5 79.667 76.5 116s64 68.666 102 96.999s79.333 51.833 124 70.5s92.334 30.334 143.001 35.001c2 85.333 9.66699 169.666 23 252.999s31 162.666 53 237.999
s47.833 145 77.5 209s62.167 119.333 97.5 166s73 83.167 113 109.5s81.333 39.5 124 39.5c31.333 0 58 -8.16699 80 -24.5s39.833 -38 53.5 -65s23.5 -58.333 29.5 -94s9 -72.5 9 -110.5c0 -23.333 -1 -47.333 -3 -72c-8.66699 -94 -24.667 -182.833 -48 -266.5
s-50.666 -165.167 -81.999 -244.5s-65.333 -158 -102 -236s-72.334 -159 -107.001 -243c-3.33301 -9.33301 -6.66602 -20.666 -9.99902 -33.999s-6.5 -27.833 -9.5 -43.5s-5.5 -31.667 -7.5 -48s-3 -32.166 -3 -47.499c0 -19.333 1.16699 -37.666 3.5 -54.999
s6.16602 -32.833 11.499 -46.5s12.5 -24.5 21.5 -32.5s20.167 -12 33.5 -12c12.667 0 26.5 2.5 41.5 7.5s30.833 11.833 47.5 20.5s33.5 18.5 50.5 29.5l49.5 33.5c36.667 26.667 75 57 115 91zM1038 1481c4 46.667 6.00195 83.668 6.00195 111.001
c0 36 -3.16699 61 -9.5 75s-15.5 21 -27.5 21c-21.333 0 -40.666 -13.5 -57.999 -40.5s-32.666 -61.5 -45.999 -103.5s-25 -88.333 -35 -139s-18.333 -99.667 -25 -147s-12 -90 -16 -128s-6.66699 -65 -8 -81c-2.66699 -32.667 -4.83398 -64.167 -6.50098 -94.5
s-2.83398 -58 -3.50098 -83s-1 -46.833 -1 -65.5v-43v-10c38 86.667 73 173 105 259l40.5 115.5c13.667 40.333 26.167 80.833 37.5 121.5s21.166 80.667 29.499 120s14.166 76.666 17.499 111.999z" />
    <glyph glyph-name="e" unicode="e" horiz-adv-x="787" 
d="M466 0c-62.667 0 -117.5 11.3389 -164.5 34.0059s-86.167 53.167 -117.5 91.5s-54.833 82.666 -70.5 132.999s-23.5 103.166 -23.5 158.499c0 37.333 3.66699 76.833 11 118.5s18.5 82.5 33.5 122.5s33.833 78.167 56.5 114.5s49.167 68.333 79.5 96
s64.333 49.667 102 66s79.5 24.5 125.5 24.5c37.333 0 72 -6 104 -18s59.833 -28.833 83.5 -50.5s42.167 -47.834 55.5 -78.501s20 -65 20 -103c0 -41.333 -10.167 -82.666 -30.5 -123.999s-48.5 -80.333 -84.5 -117s-78.833 -69.334 -128.5 -98.001s-103.5 -51 -161.5 -67
c10 -18 19.833 -33 29.5 -45s19.5 -21.333 29.5 -28s20.5 -11.334 31.5 -14.001s22.833 -4 35.5 -4c40 0 82.167 8 126.5 24s87.5 36 129.5 60s81.667 50.167 119 78.5s69 55.166 95 80.499l129 -134c-58.667 -60.667 -121 -114.334 -187 -161.001
c-28.667 -20 -59.5 -39.667 -92.5 -59s-67.667 -36.5 -104 -51.5s-74 -27 -113 -36s-78.5 -13.5 -118.5 -13.5zM333 470.006c24 0 50.166 6.16895 78.499 18.502s54.666 28.166 78.999 47.499s44.833 40.333 61.5 63s25 44.667 25 66c0 30 -5.5 54.667 -16.5 74
s-24.5 29 -40.5 29c-28.667 0 -53.167 -5.33301 -73.5 -16s-37.333 -24.5 -51 -41.5s-24.667 -36.333 -33 -58s-14.666 -43.5 -18.999 -65.5s-7.16602 -43.333 -8.49902 -64s-2 -38.334 -2 -53.001z" />
    <glyph glyph-name="f" unicode="f" horiz-adv-x="723" 
d="M68 -38c0 3.33301 0.828125 23.6621 2.49512 60.9951s4.83398 87 9.50098 149s11 133.5 19 214.5s18.5 166.667 31.5 257s28.333 183 46 278s38.667 187.5 63 277.5s52.166 174.833 83.499 254.5s66.5 149.334 105.5 209.001s82.5 106.834 130.5 141.501
s100.667 52 158 52c22.667 0 46.5 -4 71.5 -12s47.833 -21 68.5 -39s37.834 -41.833 51.501 -71.5s20.5 -66.167 20.5 -109.5c0 -39.333 -6.16699 -84.5 -18.5 -135.5s-29.666 -105.5 -51.999 -163.5s-48.666 -118.333 -78.999 -181s-63.5 -125.167 -99.5 -187.5
s-73.833 -123.666 -113.5 -183.999s-80.167 -116.833 -121.5 -169.5l-2 -16c13.333 6.66699 23.333 11 30 13s13.667 3 21 3c8.66699 0 15.667 -0.833008 21 -2.5s10.166 -3.5 14.499 -5.5s8.83301 -3.83301 13.5 -5.5s10.334 -2.5 17.001 -2.5
c66 0 124.333 7.83301 175 23.5s93.334 33.167 128.001 52.5c40.667 22 76 47.667 106 77l-22 -243c-44 -24 -90 -42.667 -138 -56s-92.333 -23.333 -133 -30c-47.333 -7.33301 -94.333 -12 -141 -14c24 -44 45.667 -89.667 65 -137
c16.667 -40.667 31.834 -86.167 45.501 -136.5s20.5 -101.166 20.5 -152.499c0 -6 -0.833008 -18.667 -2.5 -38s-4.5 -43 -8.5 -71s-9.66699 -59 -17 -93s-16.833 -68.333 -28.5 -103s-25.834 -68.167 -42.501 -100.5s-36.167 -61 -58.5 -86s-48 -45.167 -77 -60.5
s-61.833 -23 -98.5 -23s-68.667 8.33301 -96 25s-50.666 39.167 -69.999 67.5s-35.5 61.333 -48.5 99s-23.167 77.5 -30.5 119.5s-12.5 84.833 -15.5 128.5s-4.5 85.834 -4.5 126.501zM334.995 441.996c-2.66699 0 -5.66992 -7.50488 -9.00293 -22.5049
s-6.5 -34.333 -9.5 -58s-5.83301 -50.167 -8.5 -79.5s-5 -58.166 -7 -86.499s-3.66699 -54.666 -5 -78.999s-2 -43.5 -2 -57.5c0 -98 1.83301 -176 5.5 -234s8.33398 -102 14.001 -132s12 -49.5 19 -58.5s14.167 -13.5 21.5 -13.5c22.667 0 40.834 10.333 54.501 31
s24 46.834 31 78.501s11.667 66.334 14 104.001s3.5 73.834 3.5 108.501c0 23.333 -1.83301 52 -5.5 86s-8.66699 69.5 -15 106.5s-13.666 73.833 -21.999 110.5s-17 69.5 -26 98.5s-18.167 52.5 -27.5 70.5s-18 27 -26 27zM577.992 1532.99
c-38.667 -96 -68.999 -180.5 -90.999 -253.5s-38.667 -137.833 -50 -194.5s-19.333 -106.5 -24 -149.5s-9.33398 -82.833 -14.001 -119.5l123 226.5l112 207c33.333 63.667 60.5 119.834 81.5 168.501s31.5 85.667 31.5 111c0 35.333 -5 61.166 -15 77.499
s-23.667 24.5 -41 24.5c-30.667 0 -54 -8.16699 -70 -24.5s-30.333 -40.833 -43 -73.5z" />
    <glyph glyph-name="g" unicode="g" horiz-adv-x="928" 
d="M541 105c-36 -32 -73.5088 -57.833 -112.509 -77.5s-76.833 -29.5 -113.5 -29.5c-32 0 -63.167 6.5 -93.5 19.5s-57.166 31.667 -80.499 56s-42 54 -56 89s-21 74.5 -21 118.5c0 50 7 101.333 21 154s33.333 104.167 58 154.5s53.834 97.833 87.501 142.5
s70.5 83.667 110.5 117s82.167 59.833 126.5 79.5s89.5 29.5 135.5 29.5c15.333 0 27.333 -3 36 -9s15.834 -12.833 21.501 -20.5l16.5 -22.5c5.33301 -7.33301 12 -12.666 20 -15.999s16.167 -5.5 24.5 -6.5s16.833 -1.5 25.5 -1.5c7.33301 0 14.833 0.166992 22.5 0.5
s15.167 0.5 22.5 0.5c10 0 19.333 -1 28 -3s16.334 -6.33301 23.001 -13s11.834 -16 15.501 -28s5.5 -28.333 5.5 -49c0 -17.333 -1.33301 -40.666 -4 -69.999s-6.33398 -62 -11.001 -98l-15.5 -114.5c-5.66699 -40.333 -11.5 -79.833 -17.5 -118.5
c-14 -92 -30 -190.333 -48 -295c20 11.333 41.667 25.333 65 42s49.333 39 78 67s60.667 63.167 96 105.5s75 95.166 119 158.499l48 -222c-12 -20.667 -27.5 -41.834 -46.5 -63.501s-40 -43.334 -63 -65.001s-47 -42.667 -72 -63l-73.5 -57.5
c-56.667 -42.667 -117.667 -84 -183 -124c-12.667 -71.333 -27.667 -140.833 -45 -208.5s-37.833 -131 -61.5 -190s-50.667 -113.167 -81 -162.5s-64.666 -91.666 -102.999 -126.999s-81.166 -62.833 -128.499 -82.5s-99.666 -29.5 -156.999 -29.5
c-22.667 0 -47.167 2.33301 -73.5 7s-50.666 14 -72.999 28s-40.833 34 -55.5 60s-22 60.667 -22 104c0 30 7.66699 63.833 23 101.5s36.333 77.334 63 119.001s58.334 85 95.001 130s76.5 89.833 119.5 134.5s88 88.667 135 132s94.5 84.666 142.5 123.999zM319.991 324
c0 -16.667 1.16699 -32.834 3.5 -48.501s6.5 -29.667 12.5 -42s14 -22.333 24 -30s22.667 -11.5 38 -11.5c24.667 0 47 10.667 67 32s37.333 47 52 77s26.5 61 35.5 93s14.833 58.667 17.5 80l61 294c-27.333 0 -54 -6.83301 -80 -20.5s-50.5 -32.167 -73.5 -55.5
s-44.167 -50 -63.5 -80s-36 -61.5 -50 -94.5s-24.833 -66.167 -32.5 -99.5s-11.5 -64.666 -11.5 -93.999zM171.991 -736c28 0 54.5029 8.16602 79.5029 24.499s48 37.833 69 64.5s40.167 57 57.5 91s32.666 68.833 45.999 104.5s24.666 70.5 33.999 104.5
s16.666 64.333 21.999 91c-26 -17.333 -52.5 -38 -79.5 -62s-53.333 -49.833 -79 -77.5s-50 -56.167 -73 -85.5s-43.167 -57.5 -60.5 -84.5s-31 -52.167 -41 -75.5s-15 -42.666 -15 -57.999c0 -24.667 13.333 -37 40 -37z" />
    <glyph glyph-name="h" unicode="h" horiz-adv-x="1025" 
d="M473 622l92.002 115.994c34 41.333 69.333 79.833 106 115.5s73.167 65.334 109.5 89.001s70.5 35.5 102.5 35.5c8 0 17 -1.5 27 -4.5s19.5 -8.5 28.5 -16.5s16.5 -19.167 22.5 -33.5s9 -32.833 9 -55.5c0 -45.333 -6.33301 -89.5 -19 -132.5s-26.5 -86 -41.5 -129
s-28.667 -86.833 -41 -131.5s-18.5 -91.334 -18.5 -140.001c0 -26.667 4 -48 12 -64s18.333 -24 31 -24c16 0 33 3.33301 51 10s36 15.334 54 26.001s35.667 22.834 53 36.501s33.666 27.834 48.999 42.501c36.667 34 72.667 72.667 108 116l17 -266l-45.5 -35l-61 -44.5
c-22.333 -15.667 -46.5 -31.5 -72.5 -47.5s-52.167 -30.167 -78.5 -42.5s-52.666 -22.5 -78.999 -30.5s-51.5 -12 -75.5 -12c-36.667 0 -68.5 9.83301 -95.5 29.5s-49.167 44.667 -66.5 75s-30.333 63.5 -39 99.5s-13 70 -13 102c0 21.333 2.83301 45.166 8.5 71.499
s12.667 52.833 21 79.5s17.666 52.667 27.999 78s20 48 29 68s16.833 36.333 23.5 49s11 20 13 22l-21 3c-11.333 -7.33301 -30.5 -26 -57.5 -56s-57.5 -67.833 -91.5 -113.5s-69.167 -97 -105.5 -154s-69.166 -115.833 -98.499 -176.5
c-14.667 -30 -26.667 -56.167 -36 -78.5s-18.5 -40.666 -27.5 -54.999s-18.833 -25.166 -29.5 -32.499s-24.334 -11 -41.001 -11c-22 0 -39.333 6.33301 -52 19s-22.334 29.5 -29.001 50.5s-11 44.833 -13 71.5s-3 54 -3 82c0 44.667 0.5 103.167 1.5 175.5
s4.16699 152.5 9.5 240.5s13 180.667 23 278s24.167 193.5 42.5 288.5s41.333 185.667 69 272s61.334 162.333 101.001 228s86.167 117.834 139.5 156.501s114.666 58 183.999 58c36 0 65.5 -5.33301 88.5 -16s41.333 -25.667 55 -45s23.167 -42.5 28.5 -69.5
s8 -57.167 8 -90.5c0 -49.333 -7 -104 -21 -164s-32.5 -122.333 -55.5 -187s-49.167 -130.167 -78.5 -196.5s-59.333 -130.666 -90 -192.999l-90.5 -176.5l-78.5 -146zM562.002 1239.99c39.333 102 67.834 188 85.501 258s26.5 121.667 26.5 155
c0 50.667 -6.66699 76 -20 76c-17.333 0 -43 -28.333 -77 -85s-74 -139 -120 -247c-11.333 -36.667 -21.833 -74.667 -31.5 -114s-18.334 -78.5 -26.001 -117.5s-14.667 -77.333 -21 -115s-11.833 -73.5 -16.5 -107.5c-11.333 -79.333 -20 -157 -26 -233l59 137l63 146.5
l58.5 137z" />
    <glyph glyph-name="i" unicode="i" horiz-adv-x="537" 
d="M736 213c-24 -22 -53.832 -45.5039 -89.499 -70.5039s-74.167 -48 -115.5 -69s-83.5 -38.5 -126.5 -52.5s-83.833 -21 -122.5 -21c-34.667 0 -63.834 4.83301 -87.501 14.5s-42.834 23.167 -57.501 40.5s-25.167 38.5 -31.5 63.5s-9.5 52.5 -9.5 82.5
c0 42 4.83301 90.833 14.5 146.5s21.5 113.334 35.5 173.001s28.833 119.167 44.5 178.5s29.5 114 41.5 164c4.66699 17.333 14 32.166 28 44.499s29.833 22.333 47.5 30s36 13.334 55 17.001s36.167 5.5 51.5 5.5c28 0 47 -5.16699 57 -15.5s15 -24.166 15 -41.499
c0 -14.667 -3.33301 -35.834 -10 -63.501s-15 -59 -25 -94l-32 -113c-11.333 -40.333 -22 -80.666 -32 -120.999s-18.333 -79.666 -25 -117.999s-10 -72.833 -10 -103.5c0 -30 3.33301 -53.833 10 -71.5s20.334 -26.5 41.001 -26.5c24 0 50.667 8.33301 80 25
s59 36.834 89 60.501s59.333 48.167 88 73.5l76 65v-203zM289.001 1241c0 15.333 3.33301 32.667 10 52s17.5 37.5 32.5 54.5s35 31.333 60 43s56.167 17.5 93.5 17.5c23.333 0 45.333 -2.66699 66 -8s38.667 -13.5 54 -24.5s27.5 -25.5 36.5 -43.5s13.5 -39.333 13.5 -64
c0 -22.667 -3.66699 -44.667 -11 -66s-19 -40.333 -35 -57s-36.167 -30.167 -60.5 -40.5s-53.5 -15.5 -87.5 -15.5c-58.667 0 -102 13.833 -130 41.5s-42 64.5 -42 110.5z" />
    <glyph glyph-name="j" unicode="j" horiz-adv-x="672" 
d="M0 0c0 10.667 1.50195 29.5059 4.50195 56.5059s7 59.667 12 98s11.167 80.833 18.5 127.5s15.333 94.5 24 143.5s18 97.667 28 146s20.333 93.666 31 135.999s21.5 79.833 32.5 112.5s21.833 58 32.5 76c9.33301 15.333 20.333 27.333 33 36s26.5 15 41.5 19
s30.667 6.5 47 7.5s32.5 1.5 48.5 1.5c23.333 0 40.166 -7 50.499 -21s15.5 -28.667 15.5 -44c0 -8 -1.83301 -20.667 -5.5 -38s-8.16699 -36 -13.5 -56s-10.666 -39 -15.999 -57l-12 -40l-56 -160c37.333 6 73.333 10.167 108 12.5s72.667 6.66602 114 12.999s88 17 140 32
s114 38.5 186 70.5v-192c-44 -24 -88.167 -42.5 -132.5 -55.5s-84.5 -22.5 -120.5 -28.5c-42 -7.33301 -83 -11.333 -123 -12c16.667 -43.333 31.334 -88.333 44.001 -135c11.333 -40 21.5 -84.5 30.5 -133.5s13.5 -98.167 13.5 -147.5
c0 -8.66699 -0.833008 -28.834 -2.5 -60.501s-5.66699 -68.834 -12 -111.501s-16.333 -87.834 -30 -135.501s-32.334 -91.334 -56.001 -131.001s-53.334 -72.5 -89.001 -98.5s-79.167 -39 -130.5 -39c-46.667 0 -86.334 13.667 -119.001 41s-59.167 67 -79.5 119
s-35 115.667 -44 191s-13.5 161 -13.5 257zM286.002 447.006c-17.333 -103.333 -32 -207.666 -44 -312.999s-18 -214 -18 -326c0 -36.667 2.33301 -67.167 7 -91.5s10.5 -44 17.5 -59s14 -25.667 21 -32s13.167 -9.5 18.5 -9.5c22 0 39.5 12 52.5 36s22.667 53.667 29 89
s10.333 73.5 12 114.5s2.5 78.5 2.5 112.5c0 19.333 -1.5 41.166 -4.5 65.499s-6.66699 49.5 -11 75.5s-9.5 52.333 -15.5 79l-18 78c-14.667 58.667 -31 119 -49 181zM222.002 1241.01c0 15.333 3.33301 32.667 10 52s17.5 37.5 32.5 54.5s35 31.333 60 43
s56.167 17.5 93.5 17.5c23.333 0 45.333 -2.66699 66 -8s38.667 -13.5 54 -24.5s27.5 -25.5 36.5 -43.5s13.5 -39.333 13.5 -64c0 -22.667 -3.66699 -44.667 -11 -66s-19 -40.333 -35 -57s-36.167 -30.167 -60.5 -40.5s-53.5 -15.5 -87.5 -15.5
c-58.667 0 -102 13.833 -130 41.5s-42 64.5 -42 110.5z" />
    <glyph glyph-name="k" unicode="k" horiz-adv-x="991" 
d="M449 559l78.9951 101.001l84.5 105l76 89c23 26 41.167 43.667 54.5 53c20.667 14.667 46 27.167 76 37.5s63.333 15.5 100 15.5c18.667 0 36.5 -4.33301 53.5 -13s31.833 -21 44.5 -37s22.667 -35.333 30 -58s11 -48 11 -76c0 -27.333 -6.66699 -54.833 -20 -82.5
s-30 -55.5 -50 -83.5s-41.667 -56 -65 -84s-45 -56.167 -65 -84.5s-36.667 -56.5 -50 -84.5s-20 -56 -20 -84c0 -24 5.83301 -41.167 17.5 -51.5s29.834 -15.5 54.501 -15.5c13.333 0 27.833 4.5 43.5 13.5s31.834 20.833 48.501 35.5s33.5 31 50.5 49s33.333 36.333 49 55
l44.5 53.5c14 17 26.667 31.5 38 43.5l60 -245c-20.667 -30 -46.834 -57.833 -78.501 -83.5s-66 -48 -103 -67s-75.333 -33.833 -115 -44.5s-77.834 -16 -114.501 -16c-48 0 -87.167 5.83301 -117.5 17.5s-54.166 27.167 -71.499 46.5s-29.166 41.166 -35.499 65.499
s-9.5 49.5 -9.5 75.5c0 15.333 1.83301 34.166 5.5 56.499s10.667 47.5 21 75.5s24.833 58.833 43.5 92.5s43 69.834 73 108.501l33 32.5l26 26c7.33301 7.66699 13 14.834 17 21.501s6 13.667 6 21c0 14 -2.5 25.333 -7.5 34s-12.167 13 -21.5 13
c-11.333 0 -26 -7.33301 -44 -22s-37.667 -40.334 -59 -77.001l-294 -516c-15.333 -26.667 -31.166 -45.167 -47.499 -55.5s-35.166 -15.5 -56.499 -15.5c-28.667 0 -51.334 6.16699 -68.001 18.5s-29.334 29 -38.001 50s-14.167 45.333 -16.5 73s-3.5 57.167 -3.5 88.5
c0 38 1.33301 88.333 4 151s6.66699 131.5 12 206.5s12.5 153.5 21.5 235.5s19.833 161.667 32.5 239c4.66699 27.333 10.667 60.5 18 99.5s16.5 80.833 27.5 125.5s24 91.167 39 139.5s32.333 95.333 52 141s41.834 89.167 66.501 130.5s52.334 77.5 83.001 108.5
s64.334 55.5 101.001 73.5s76.667 27 120 27c34 0 62 -5.5 84 -16.5s39.5 -26.333 52.5 -46s22.167 -43.167 27.5 -70.5s8 -57 8 -89c0 -56.667 -7.16699 -117.667 -21.5 -183s-32.5 -130.833 -54.5 -196.5s-46 -129.5 -72 -191.5s-51 -118 -75 -168
s-45.167 -92.167 -63.5 -126.5l-36.5 -67.5l-119 -178zM644.995 1682c-21.333 0 -39.666 -6.66699 -54.999 -20s-29.833 -32.333 -43.5 -57s-27.334 -54.667 -41.001 -90l-46.5 -118c-10.667 -38 -20.5 -77.333 -29.5 -118s-17.167 -81.167 -24.5 -121.5
s-13.833 -80.166 -19.5 -119.499s-10.5 -76.333 -14.5 -111c-10 -82 -18 -162.667 -24 -242l48 143.5l51.5 153l48 143l37.5 114.5c4.66699 14.667 11.334 33 20.001 55l28 71l30 79c10 27.333 19.167 53.666 27.5 78.999s15.166 49 20.499 71s8 40.667 8 56
c0 21.333 -7 32 -21 32z" />
    <glyph glyph-name="l" unicode="l" horiz-adv-x="575" 
d="M351 0c-36 0 -69.5029 15.835 -100.503 47.502s-58 74.167 -81 127.5s-41 115.166 -54 185.499s-19.5 144.166 -19.5 221.499c0 59.333 4.33301 123.833 13 193.5s21.334 141.5 38.001 215.5s36.5 148.333 59.5 223s49 146.334 78 215.001s60.5 132.834 94.5 192.501
s69.667 111.667 107 156s76.333 79.166 117 104.499s82 38 124 38c28.667 0 52.334 -6.5 71.001 -19.5s33.334 -30.167 44.001 -51.5s18.167 -45.5 22.5 -72.5s6.5 -54.5 6.5 -82.5c0 -62.667 -7.16699 -126.5 -21.5 -191.5s-33.666 -130.333 -57.999 -196
s-52.5 -131.5 -84.5 -197.5l-100 -196.5l-104.5 -192l-98.5 -184.5c-3.33301 -6.66699 -6.83301 -15.334 -10.5 -26.001s-7.16699 -22.167 -10.5 -34.5s-6.66602 -25.5 -9.99902 -39.5s-6 -27.667 -8 -41v-14c0 -17.333 1.83301 -34.166 5.5 -50.499s8.16699 -31 13.5 -44
s11 -23.333 17 -31s11.667 -11.5 17 -11.5c12.667 0 27.167 2.66699 43.5 8s33.666 12.5 51.999 21.5s37.166 19.333 56.499 31s38 23.5 56 35.5c42 28 86 60.333 132 97l82 -210c-59.333 -42.667 -118 -80.667 -176 -114l-78.5 -41.5
c-27 -13.667 -54.167 -25.834 -81.5 -36.501s-54 -19.167 -80 -25.5s-50.333 -9.5 -73 -9.5zM351.997 800.002c30 53.333 61.8301 113.333 95.4971 180s65.5 135.334 95.5 206.001s56 141.167 78 211.5s36 135.833 42 196.5c0 19.333 -0.5 35.833 -1.5 49.5
s-4.16699 20.5 -9.5 20.5c-19.333 0 -40.166 -12.5 -62.499 -37.5s-44.666 -58.833 -66.999 -101.5s-43.666 -92.334 -63.999 -149.001s-38.5 -117 -54.5 -181s-28.667 -129.833 -38 -197.5s-14 -133.5 -14 -197.5z" />
    <glyph glyph-name="m" unicode="m" horiz-adv-x="1312" 
d="M544 187c0 8.66699 0.668945 21.0049 2.00195 37.0049s3.33301 34.333 6 55s5.66699 42.5 9 65.5l10 68.5c7.33301 53.333 16.333 110.666 27 171.999h-15c-8 -10 -17.167 -25 -27.5 -45l-43.5 -88l-71.5 -150.5l-112.5 -231.5
c-13.333 -27.333 -28.833 -45.833 -46.5 -55.5s-37.167 -14.5 -58.5 -14.5c-27.333 0 -49.333 5.83301 -66 17.5s-29.5 27.334 -38.5 47.001s-15 42 -18 67s-4.5 50.833 -4.5 77.5c0 27.333 1.66699 59.666 5 96.999s7.66602 76.666 12.999 117.999s11.5 83.5 18.5 126.5
s14.333 84.167 22 123.5s15.5 75.333 23.5 108s15.333 59.334 22 80.001c6.66699 21.333 13 38.333 19 51s12.833 22.5 20.5 29.5s16.834 11.667 27.501 14s24.334 3.5 41.001 3.5c25.333 0 45.166 -0.833008 59.499 -2.5s25 -5.66699 32 -12s11.167 -15.5 12.5 -27.5
s2 -28.333 2 -49c0 -11.333 -0.5 -24.333 -1.5 -39s-2.5 -30.334 -4.5 -47.001s-4.16699 -33.834 -6.5 -51.501s-4.83301 -34.834 -7.5 -51.501l-19 -122l11 -12c1.33301 2 8.5 14.667 21.5 38l48 84l61.5 102.5c22 35.667 43 67.167 63 94.5
c19.333 27.333 39.833 50 61.5 68s47.5 27 77.5 27c28 0 52 -8.16699 72 -24.5s30 -39.5 30 -69.5c0 -26 -1.66699 -50.667 -5 -74s-7.5 -46 -12.5 -68s-10.167 -43.5 -15.5 -64.5s-10.333 -42.5 -15 -64.5c-3.33301 -15.333 -5.33301 -25 -6 -29s-1 -6.66699 -1 -8l11 -12
c1.33301 2 9 14.5 23 37.5l51.5 83.5l65 103c23 36 44.5 67.667 64.5 95c19.333 26.667 38.666 49.167 57.999 67.5s43 27.5 71 27.5c31.333 0 57.833 -8.16699 79.5 -24.5s32.5 -39.5 32.5 -69.5c0 -46 -2.33301 -89.667 -7 -131s-10 -82 -16 -122
s-11.333 -80.5 -16 -121.5s-7 -84.5 -7 -130.5c0 -36 4.66699 -65.333 14 -88s20.666 -34 33.999 -34c14 0 28.667 3 44 9s31 13.667 47 23s31.667 20.166 47 32.499s30 25.166 44 38.499c32.667 30.667 65 65.334 97 104.001l17 -236l-87.5 -72.5
c-29 -25 -59.667 -47.667 -92 -68s-67.833 -37 -106.5 -50s-82.334 -19.5 -131.001 -19.5c-24 -0 -44.167 7.83301 -60.5 23.5s-29.5 37.5 -39.5 65.5s-17.167 61 -21.5 99s-6.5 79.333 -6.5 124c0 42 1.5 86.5 4.5 133.5s7.16699 94.5 12.5 142.5h-15l-203 -517
c-17.333 -28 -36.666 -46.833 -57.999 -56.5s-46 -14.5 -74 -14.5c-21.333 -0 -38.333 5.83301 -51 17.5s-22.5 26.667 -29.5 45s-11.667 38.5 -14 60.5s-3.5 43.333 -3.5 64z" />
    <glyph glyph-name="n" unicode="n" horiz-adv-x="927" 
d="M128 209c0 44 2.66992 94.8311 8.00293 152.498s12 116.334 20 176.001s17 117.167 27 172.5s19.667 102.666 29 141.999c7.33301 30.667 21.5 56.334 42.5 77.001s49.5 31 85.5 31s61 -11 75 -33s21 -51.333 21 -88c0 -10 -1 -23.5 -3 -40.5s-4.5 -35.667 -7.5 -56
l-9.5 -63l-9.5 -60c-3 -18.333 -5.5 -34.333 -7.5 -48s-3 -22.834 -3 -27.501h20l19 35.5l30 56.5l36.5 67.5l36.5 68l31 57.5l21 37c21.333 36 45.666 60.667 72.999 74s57.666 20 90.999 20s59.833 -14 79.5 -42s29.5 -66.667 29.5 -116
c0 -7.33301 -1.5 -19.666 -4.5 -36.999s-6.83301 -38 -11.5 -62l-15.5 -79c-5.66699 -28.667 -10.834 -58 -15.501 -88s-8.5 -59.667 -11.5 -89s-4.5 -56.333 -4.5 -81c0 -41.333 5.16699 -75.333 15.5 -102s26.5 -40 48.5 -40c10 0 21.5 3 34.5 9s27 13.833 42 23.5
s30.333 20.834 46 33.501l46.5 39c35.333 31.333 72.333 66.666 111 105.999l17 -224l-50 -38l-83.5 -62c-28.333 -20.667 -57.833 -39.167 -88.5 -55.5s-62.667 -29.666 -96 -39.999s-68.333 -15.5 -105 -15.5s-67.5 26.5 -92.5 79.5s-37.5 130.5 -37.5 232.5
c0 40 2.66699 83.167 8 129.5s12 96.166 20 149.499h-16l-262 -520c-13.333 -27.333 -28.333 -46 -45 -56s-36 -15 -58 -15c-27.333 0 -49.333 5.83301 -66 17.5s-29.5 27.334 -38.5 47.001s-15 42 -18 67s-4.5 50.833 -4.5 77.5z" />
    <glyph glyph-name="o" unicode="o" horiz-adv-x="873" 
d="M742 749c19.333 -38.667 33.8369 -79.5 43.5039 -122.5s14.5 -84.167 14.5 -123.5s-4.33301 -79 -13 -119s-21.167 -78.667 -37.5 -116s-36.333 -72.333 -60 -105s-50.667 -61 -81 -85s-63.5 -43 -99.5 -57s-74.333 -21 -115 -21
c-58.667 -0 -108.834 12.833 -150.501 38.5s-75.834 59.167 -102.501 100.5s-46.167 88 -58.5 140s-18.5 104.667 -18.5 158c0 73.333 11 141.833 33 205.5s53.5 119 94.5 166s91.167 84 150.5 111s126 40.5 200 40.5c63.333 0 122.666 -9.83301 177.999 -29.5
s107.166 -46 155.499 -79s93.333 -70.833 135 -113.5s80.5 -86.667 116.5 -132l-19 -141c-18 24 -42.333 50 -73 78s-63.167 55.333 -97.5 82l-101.5 75.5l-86 59.5zM433.004 192c22.667 0 44.6709 11.501 66.0039 34.501s40 52 56 87s28.833 73.667 38.5 116
s14.5 82.833 14.5 121.5c0 30.667 -2.33301 59.167 -7 85.5s-11.667 49.166 -21 68.499s-21.333 34.666 -36 45.999s-32.334 17 -53.001 17c-27.333 0 -53.333 -11.667 -78 -35s-46.334 -53.166 -65.001 -89.499s-33.334 -76.5 -44.001 -120.5s-16 -86.333 -16 -127
c0 -28 2.66699 -54.333 8 -79s13.666 -46.167 24.999 -64.5s26.333 -33 45 -44s41 -16.5 67 -16.5z" />
    <glyph glyph-name="p" unicode="p" horiz-adv-x="854" 
d="M536 178c67.333 0 128.66 6.66797 183.993 20.001s105.5 31.333 150.5 54s85.667 49.167 122 79.5s69.166 62.833 98.499 97.5l11 -229c-21.333 -26 -47.166 -51.167 -77.499 -75.5s-63.5 -45.666 -99.5 -63.999s-73.833 -33 -113.5 -44s-78.834 -16.5 -117.501 -16.5
c-4.66699 0 -10.5 0.666992 -17.5 2l-36.5 7c-17.333 3.33301 -42.166 7.83301 -74.499 13.5s-76.166 12.5 -131.499 20.5v-18c0 -121.333 -10.167 -231.5 -30.5 -330.5s-47.5 -183.5 -81.5 -253.5s-73 -124 -117 -162s-89.667 -57 -137 -57c-38 0 -69.667 9.33301 -95 28
s-45.5 43.834 -60.5 75.501s-25.667 68.667 -32 111s-9.5 87.166 -9.5 134.499c0 27.333 4.33301 58.166 13 92.499s20.334 70.333 35.001 108s31.167 76 49.5 115s37.166 76.833 56.499 113.5c45.333 85.333 97 173.333 155 264l22.5 160
c7.66699 54.667 17.334 107.667 29.001 159s26.334 100 44.001 146s40.334 86 68.001 120s60.834 61 99.501 81s85.334 30 140.001 30c40.667 0 78.667 -5.5 114 -16.5s66.333 -28.833 93 -53.5s47.667 -56.5 63 -95.5s23 -86.833 23 -143.5
c0 -45.333 -6.66699 -89.166 -20 -131.499s-34.166 -82.833 -62.499 -121.5s-64.333 -74.834 -108 -108.501s-95.5 -63.834 -155.5 -90.501zM409.994 279.001c40 20 74.502 42.334 103.502 67.001s54 51 75 79s38.167 57 51.5 87s24 60.667 32 92
c3.33301 14.667 5.5 31.834 6.5 51.501s-1 38.167 -6 55.5s-13.667 32.166 -26 44.499s-29.5 18.5 -51.5 18.5c-24.667 0 -46.334 -6.83301 -65.001 -20.5s-34.834 -32.167 -48.501 -55.5s-25 -51 -34 -83s-16.333 -66.333 -22 -103s-9.66699 -74.834 -12 -114.501
s-3.5 -79.167 -3.5 -118.5zM61.9961 -440.998c0 -5.33301 1.16992 -14.001 3.50293 -26.001s6.16602 -24 11.499 -36s12.333 -22.667 21 -32s19.334 -14 32.001 -14c11.333 0 20.666 6.16699 27.999 18.5s13.333 28.833 18 49.5s8 44 10 70s3.66699 52.667 5 80
s2.16602 54 2.49902 80s1.16602 49.333 2.49902 70c2 36 3.5 66.5 4.5 91.5l2.5 62.5c0.666992 18.667 1.33398 34.334 2.00098 47.001c-12.667 -22 -25 -47.5 -37 -76.5s-23.333 -59.167 -34 -90.5s-20.334 -62.666 -29.001 -93.999s-16.167 -60.5 -22.5 -87.5
s-11.333 -50.333 -15 -70s-5.5 -33.834 -5.5 -42.501z" />
    <glyph glyph-name="q" unicode="q" horiz-adv-x="832" 
d="M384 160c-8 -1.33301 -15.833 -2.33496 -23.5 -3.00195s-15.167 -1 -22.5 -1c-46 0 -87.667 9.83301 -125 29.5s-69.5 46 -96.5 79s-47.833 71 -62.5 114s-22 87.5 -22 133.5c0 62.667 12.833 121.334 38.5 176.001s59.5 102.167 101.5 142.5s89.833 72 143.5 95
s108.5 34.5 164.5 34.5c50.667 0 94.167 -7.16699 130.5 -21.5s66 -33.5 89 -57.5s39.833 -51.833 50.5 -83.5s16 -64.834 16 -99.501c0 -12 -0.833008 -24.5 -2.5 -37.5s-4.16699 -25.167 -7.5 -36.5c-5.33301 -16 -11.666 -36.167 -18.999 -60.5l-22.5 -77l-23.5 -81
l-21 -73l-15 -53.5c-4 -14 -6 -21.667 -6 -23c-0.666992 0.666992 0.333008 -4.16602 3 -14.499s6 -24.166 10 -41.499c8 -3.33301 15.667 -5.5 23 -6.5s13.666 -1.5 18.999 -1.5c24 0 51.5 8.33301 82.5 25s62.833 36.834 95.5 60.501s64.334 48.167 95.001 73.5l79 65
v-224c-20 -19.333 -42 -38.666 -66 -57.999s-50.333 -37.5 -79 -54.5s-60.334 -32 -95.001 -45s-73 -22.5 -115 -28.5c9.33301 -52 17.5 -106.667 24.5 -164s10.5 -111.333 10.5 -162c0 -64 -6.83301 -121.667 -20.5 -173s-34 -95 -61 -131s-60.333 -63.667 -100 -83
s-85.834 -29 -138.501 -29c-22.667 0 -45.5 5 -68.5 15s-43.667 24.667 -62 44s-33.166 42.833 -44.499 70.5s-17 59.167 -17 94.5c0 40 5.33301 86.667 16 140s24 109.666 40 168.999s33.333 120.166 52 182.499zM416 287.998c1.33301 3.33301 4.16699 12.502 8.5 27.502
l16 55l20.5 72l23 80.5l60 213c-6 6 -12.667 11.333 -20 16c-6 4 -12.833 7.66699 -20.5 11s-15.5 5 -23.5 5c-36.667 0 -68.834 -8.33301 -96.501 -25s-51 -37.834 -70 -63.501s-33.333 -53.5 -43 -83.5s-14.5 -58 -14.5 -84c0 -21.333 2 -44.5 6 -69.5
s11.833 -48.5 23.5 -70.5s27.834 -40.833 48.501 -56.5s48 -24.834 82 -27.501zM544.001 33c-3.33301 -9.33301 -9.00098 -27 -17.001 -53l-28 -91l-33.5 -111c-11.667 -39.333 -22.167 -77 -31.5 -113s-17.166 -68.667 -23.499 -98s-9.5 -51 -9.5 -65
c0 -13.333 3.33301 -24.333 10 -33s15.667 -13 27 -13c26 0 47.667 7.83301 65 23.5s31.5 36.667 42.5 63s18.833 57 23.5 92s7 71.5 7 109.5c0 47.333 -2.5 96.5 -7.5 147.5s-13.167 98.167 -24.5 141.5z" />
    <glyph glyph-name="r" unicode="r" horiz-adv-x="864" 
d="M128 209c0 29.333 1.66016 63.4961 4.99316 102.496s7.83301 80.167 13.5 123.5s12.334 87.5 20.001 132.5s15.834 87.833 24.501 128.5s17.334 78 26.001 112s17.334 62 26.001 84c5.33301 14.667 10.666 26.334 15.999 35.001s11.5 15.5 18.5 20.5
s15.667 8.33301 26 10s23.166 2.5 38.499 2.5c17.333 0 30.833 -0.833008 40.5 -2.5s16.834 -5.66699 21.501 -12s7.5 -15.5 8.5 -27.5s1.5 -28.333 1.5 -49v-89.5c0 -35 0.666992 -69.5 2 -103.5h11l45 89.5c16.667 33 36 63.833 58 92.5s47 52.834 75 72.501
s60.333 29.5 97 29.5c12.667 0 25 -2.16699 37 -6.5s22.5 -10.5 31.5 -18.5s16.167 -17.833 21.5 -29.5s8 -24.834 8 -39.501c0 -11.333 -1.66699 -27.166 -5 -47.499l-11 -64c-4 -22.333 -7.66699 -44 -11 -65s-5 -38.5 -5 -52.5c0 -24 2.33301 -44 7 -60
s10.834 -28.833 18.501 -38.5s16.334 -16.5 26.001 -20.5s19.834 -6 30.501 -6c30 0 61 6.66699 93 20s61.333 28.333 88 45c31.333 19.333 62 41.333 92 66l-15 -234l-59 -38c-22 -14 -45.5 -27.167 -70.5 -39.5s-51 -22.666 -78 -30.999s-54.5 -12.5 -82.5 -12.5
c-50 0 -90.333 10.167 -121 30.5s-55 47 -73 80s-31.333 70 -40 111s-15.667 82.5 -21 124.5h-16l-179 -499c-9.33301 -26 -18.166 -47.5 -26.499 -64.5s-16.833 -30.833 -25.5 -41.5s-18 -18.167 -28 -22.5s-21 -6.5 -33 -6.5c-27.333 0 -49.333 5.83301 -66 17.5
s-29.5 27.334 -38.5 47.001s-15 42 -18 67s-4.5 50.833 -4.5 77.5z" />
    <glyph glyph-name="s" unicode="s" horiz-adv-x="865" 
d="M96 384l90.9961 79.998c23.333 21.333 43.333 40.833 60 58.5s31.834 35.5 45.501 53.5l48.5 64l68 90.5l104 133.5c8.66699 12 18.334 23.667 29.001 35s22.5 21.5 35.5 30.5s27.333 16.333 43 22s33.167 8.5 52.5 8.5c32 0 56.667 -3.5 74 -10.5s30 -15.5 38 -25.5
s12.667 -20.5 14 -31.5s2 -20.5 2 -28.5c0 -16 -6.33301 -33.667 -19 -53s-26.667 -38 -42 -56l-43.5 -49.5c-13.667 -15 -21.5 -26.167 -23.5 -33.5c0 -20.667 1.5 -39.5 4.5 -56.5s7 -33.667 12 -50l15.5 -52c5.33301 -18.333 10.5 -39.5 15.5 -63.5s9 -51.667 12 -83
s4.5 -68.333 4.5 -111c24 16 49.833 30.5 77.5 43.5l86.5 40.5c30 14 60.833 29.5 92.5 46.5s63.5 37.5 95.5 61.5l1 -224c-41.333 -32 -89.166 -62 -143.499 -90s-111.333 -52.667 -171 -74s-120 -38.166 -181 -50.499s-118.833 -18.5 -173.5 -18.5
c-39.333 0 -76 3.66699 -110 11s-63.833 18.833 -89.5 34.5s-46.5 36.167 -62.5 61.5s-25.667 56 -29 92c-9.33301 -2 -18.5 -3.33301 -27.5 -4s-17.833 -1 -26.5 -1c-10.667 0 -20.667 0.333008 -30 1s-17.333 3.16699 -24 7.5s-12 11.333 -16 21s-6 23.5 -6 41.5
c0 16 4 30.833 12 44.5s17.333 25.834 28 36.501s21.334 20 32.001 28s18.667 14.333 24 19zM223.996 255.998c8 0 16.8311 -5 26.498 -15s20.834 -21 33.501 -33s27.334 -23 44.001 -33s35.667 -15 57 -15c26 0 47.5 4.33301 64.5 13s30.5 20.167 40.5 34.5s17 31 21 50
s6 38.833 6 59.5c0 18 -1.16699 36.333 -3.5 55s-5.33301 36.5 -9 53.5s-7.66699 33 -12 48l-11.5 38.5z" />
    <glyph glyph-name="t" unicode="t" horiz-adv-x="801" 
d="M960 224l-171 -97.9941c-50 -28 -94.5 -51.333 -133.5 -70s-73.667 -32.667 -104 -42s-57.833 -14 -82.5 -14c-50.667 0 -95.334 15.333 -134.001 46s-71 74.834 -97 132.501s-45.5 127.5 -58.5 209.5s-19.5 174.333 -19.5 277c0 40 1.66699 82.667 5 128
s8 90.333 14 135c-20 2.66699 -35.5 5.16699 -46.5 7.5s-22.667 4.66602 -35 6.99902s-28 4.83301 -47 7.5s-46.5 6 -82.5 10c-16 2 -28.333 5.83301 -37 11.5s-15 12.334 -19 20.001s-6.33301 15.667 -7 24s-1 15.5 -1 21.5c0 13.333 6.5 23.5 19.5 30.5
s29.667 12.167 50 15.5s42.666 5.16602 66.999 5.49902s47.666 0.166016 69.999 -0.500977s42.333 -1.16699 60 -1.5s29.834 0.166992 36.501 1.5c18 90 40.833 177.167 68.5 261.5s58.667 159.333 93 225s71.833 118.334 112.5 158.001s83.334 59.5 128.001 59.5
c28.667 0 54.834 -8 78.501 -24s43.834 -37.333 60.501 -64s29.5 -57.834 38.5 -93.501s13.5 -72.834 13.5 -111.501c0 -32.667 -4.66699 -67.167 -14 -103.5s-22 -73.333 -38 -111s-34.833 -75.834 -56.5 -114.501s-44.5 -77 -68.5 -115c6 -0.666992 16 -1.16699 30 -1.5
s30.167 -0.833008 48.5 -1.5s38.166 -1.5 59.499 -2.5s42 -1.83301 62 -2.5s38.667 -1.33398 56 -2.00098s31.666 -1.33398 42.999 -2.00098c13.333 -0.666992 23 -7.33398 29 -20.001s9 -28.667 9 -48c0 -23.333 -6.66699 -42.333 -20 -57s-28 -22 -44 -22h-384
l-58.5 -78.5l-54.5 -69.5c-2.66699 -41.333 -5 -82 -7 -122l-2 -53.5l-2 -54.5c-0.666992 -18 -1.16699 -35.333 -1.5 -52s-0.5 -32 -0.5 -46c0 -36 3.33301 -66.333 10 -91s16.334 -44.834 29.001 -60.501s28.167 -27 46.5 -34s38.833 -10.5 61.5 -10.5
c14 0 31.5 3.33301 52.5 10s44 15.834 69 27.501s51.333 25.5 79 41.5s55 33.5 82 52.5s52.833 39 77.5 60s47 42.5 67 64.5v-256zM640 1490.01c0 7.33301 -0.5 15.5029 -1.5 24.5029s-3.16699 17.5 -6.5 25.5s-8.5 14.667 -15.5 20s-16.833 8 -29.5 8
c-17.333 0 -34.833 -15.333 -52.5 -46s-34.667 -69.834 -51 -117.501s-31.666 -100.167 -45.999 -157.5s-27.5 -113 -39.5 -167c10 -1.33301 20 -2.5 30 -3.5s20.333 -2.16699 31 -3.5l62.5 110.5c21.667 39.667 41.167 78.667 58.5 117s31.666 74.166 42.999 107.499
s17 60.666 17 81.999z" />
    <glyph glyph-name="u" unicode="u" horiz-adv-x="962" 
d="M876 895c0 -18 -1.99707 -42.499 -5.99707 -73.499s-9.16699 -65 -15.5 -102l-20.5 -114.5l-20.5 -110c-6.33301 -34 -11.5 -63.833 -15.5 -89.5s-6 -43.5 -6 -53.5c0 -18.667 0.333008 -35.834 1 -51.501s2.66699 -29.334 6 -41.001s8.5 -20.667 15.5 -27
s17.167 -9.5 30.5 -9.5c14.667 0 32.5 3.66699 53.5 11s43.333 17.166 67 29.499s47.834 26.333 72.501 42s48.167 32.167 70.5 49.5s42.666 34.5 60.999 51.5s33.166 32.833 44.499 47.5c0 -22 0.166992 -42 0.5 -60s0.5 -35.167 0.5 -51.5s0.166992 -33.166 0.5 -50.499
s0.5 -36.666 0.5 -57.999c-14.667 -14.667 -32.834 -30.334 -54.501 -47.001s-45.667 -33.334 -72 -50.001s-54.333 -32.667 -84 -48s-59.5 -28.833 -89.5 -40.5s-59.667 -21 -89 -28s-56.666 -10.5 -81.999 -10.5s-47 5 -65 15s-33.5 24 -46.5 42s-24 39.5 -33 64.5
s-16.833 52.833 -23.5 83.5c-24 -31.333 -49.333 -60.166 -76 -86.499s-53.834 -49.166 -81.501 -68.499s-55.667 -34.5 -84 -45.5s-55.833 -16.5 -82.5 -16.5c-22 0 -42.667 3.66699 -62 11s-36.5 19.666 -51.5 36.999s-26.833 40.166 -35.5 68.499s-13 63.5 -13 105.5
c0 51.333 6.16699 116.666 18.5 195.999s27.5 170 45.5 272c1.33301 10 3.83301 23.5 7.5 40.5s8.66699 35.5 15 55.5s14.166 40.333 23.499 61s20.333 39.334 33 56.001s27.5 30.334 44.5 41.001s36.167 16.334 57.5 17.001c35.333 -1.33301 60.666 -5.83301 75.999 -13.5
s23 -17.167 23 -28.5l-19.5 -118l-21.5 -131l-21 -128.5l-18 -111.5c-5.33301 -32.667 -9.5 -59 -12.5 -79s-4.5 -30.333 -4.5 -31c0 -12 1.16699 -23.5 3.5 -34.5s5.83301 -20.833 10.5 -29.5s10.667 -15.667 18 -21s16 -8 26 -8c14.667 0 29.667 3.83301 45 11.5
s29.833 18.667 43.5 33s25.834 32 36.501 53s18.667 44.833 24 71.5l99 508c3.33301 16 16.833 29.5 40.5 40.5s50.5 16.5 80.5 16.5c34 0 61 -6 81 -18s30 -27.333 30 -46z" />
    <glyph glyph-name="v" unicode="v" horiz-adv-x="907" 
d="M128 324c-2 50 -4.00098 93.502 -6.00098 130.502l-5.5 100.5c-1.66699 30 -2.83398 57.667 -3.50098 83s-1 51.333 -1 78c0 68.667 3.16699 122.167 9.5 160.5s20.166 59.166 41.499 62.499l120 19c3.33301 0.666992 6.5 1.16699 9.5 1.5s6.16699 0.5 9.5 0.5
c22.667 0 40.167 -6.66699 52.5 -20s18.833 -28.666 19.5 -45.999l-39 -633l14 1l263 627c2 9.33301 6.33301 18.333 13 27s15.334 16.167 26.001 22.5s22.5 11.5 35.5 15.5s26.833 6 41.5 6c38.667 0 69.667 -7.83301 93 -23.5s35 -35.834 35 -60.501
c0 -18.667 -2.5 -36.334 -7.5 -53.001s-12 -34.834 -21 -54.501s-19.667 -41.5 -32 -65.5s-25.833 -52.333 -40.5 -85c-4.66699 -12 -8.66699 -24.333 -12 -37c-3.33301 -11.333 -6.16602 -24.166 -8.49902 -38.499s-3.5 -29.166 -3.5 -44.499c0 -16 2 -31.667 6 -47
s11 -29.166 21 -41.499s23.667 -22.166 41 -29.499s39.666 -11 66.999 -11c20 0 43.167 5.16699 69.5 15.5s51.166 22.166 74.499 35.499c27.333 15.333 55.333 32.666 84 51.999v-235c-44 -28 -89.5 -50.333 -136.5 -67s-91.833 -25 -134.5 -25
c-36 0 -68.167 5.5 -96.5 16.5s-52.333 25.833 -72 44.5s-35 39.667 -46 63s-16.833 47.666 -17.5 72.999c-19.333 -40 -41.333 -81 -66 -123s-50.167 -80 -76.5 -114s-52.666 -61.833 -78.999 -83.5s-51.166 -32.5 -74.499 -32.5c-38.667 0 -68.667 9.83301 -90 29.5
s-37.166 44.5 -47.499 74.5s-17 62.667 -20 98s-5.5 69 -7.5 101z" />
    <glyph glyph-name="w" unicode="w" horiz-adv-x="1301" 
d="M563 494c-19.333 -72.667 -42.167 -139.165 -68.5 -199.498s-54.5 -112.333 -84.5 -156s-61 -77.667 -93 -102s-63.333 -36.5 -94 -36.5c-52 0 -90.167 38.333 -114.5 115s-36.5 190 -36.5 340v56.5c0 16.333 0.333008 32.666 1 48.999s1.66699 34 3 53l5 68.5
c0.666992 6.66699 2.16699 18.167 4.5 34.5s6 34.833 11 55.5s11.667 42.167 20 64.5s19 42.666 32 60.999s28.333 33.5 46 45.5s38.834 18 63.501 18l24 -2c29.333 0 51.833 -5.83301 67.5 -17.5s23.5 -27.167 23.5 -46.5l-70 -541l13 1
c29.333 68 54.833 130.167 76.5 186.5l60 151.5c18.333 44.667 36 83.667 53 117s35.5 61 55.5 83s42.5 38.5 67.5 49.5s54.833 16.5 89.5 16.5c29.333 0 51.833 -5.83301 67.5 -17.5s23.5 -27.167 23.5 -46.5l-82 -541l14 1l239 534c8 18.667 25.333 35.167 52 49.5
s58.334 21.5 95.001 21.5c38 0 68.667 -7.83301 92 -23.5s35 -35.834 35 -60.501c0 -18.667 -3.16699 -38.667 -9.5 -60s-13.166 -41.166 -20.499 -59.499s-14.333 -34 -21 -47l-11 -21.5l-40.5 -74l-32.5 -60c-11.333 -20 -21.333 -38.667 -30 -56
c9.33301 -26 21.333 -49.333 36 -70c12.667 -17.333 28.334 -33.333 47.001 -48s41 -22 67 -22c22 0 47.333 5.83301 76 17.5s55.667 24.834 81 39.501c30 16.667 60.667 35.667 92 57v-235c-44 -28 -89.5 -50.333 -136.5 -67s-92.167 -25 -135.5 -25
c-34 0 -66.167 4 -96.5 12s-57 20.667 -80 38s-41.333 39.833 -55 67.5s-20.834 61.167 -21.501 100.5c-22.667 -53.333 -46.334 -102.166 -71.001 -146.499s-50 -82.5 -76 -114.5s-52.333 -57 -79 -75s-53.334 -27 -80.001 -27c-9.33301 0 -17.5 7.16699 -24.5 21.5
s-12.833 33.666 -17.5 57.999s-8.5 52.666 -11.5 84.999s-5.33301 66.5 -7 102.5s-2.83398 73 -3.50098 111s-1 75 -1 111z" />
    <glyph glyph-name="x" unicode="x" horiz-adv-x="1025" 
d="M198 466c0 -19.333 -0.333984 -38.1689 -1.00098 -56.502s-1 -35.5 -1 -51.5s0.666992 -30.5 2 -43.5s4.16602 -24.167 8.49902 -33.5s10.333 -16.666 18 -21.999s18.167 -8 31.5 -8c7.33301 0 15.5 4.33301 24.5 13s19.333 21 31 37l39.5 57l50 72
c-20.667 48 -41 100.167 -61 156.5s-39.667 117.833 -59 184.5c-1.33301 4 -2 7.33301 -2 10c0 12 5 24.667 15 38s22.833 25.666 38.5 36.999s32.667 20.833 51 28.5s35.833 11.5 52.5 11.5c13.333 0 24.833 -2.33301 34.5 -7s16.834 -11.667 21.501 -21l35 -84l55 -131
c34 36 71.667 71.833 113 107.5s87 70.167 137 103.5c16.667 11.333 32.334 19.333 47.001 24s28 7 40 7c15.333 0 28.833 -3.16699 40.5 -9.5s21.5 -14.833 29.5 -25.5s14 -23 18 -37s6 -28.333 6 -43c0 -21.333 -4.33301 -41.833 -13 -61.5s-22 -35.167 -40 -46.5
c-52 -32.667 -101.167 -69.167 -147.5 -109.5s-90.5 -82.5 -132.5 -126.5c14.667 -29.333 29.5 -57 44.5 -83s29.5 -48.667 43.5 -68s27.5 -34.5 40.5 -45.5s25.167 -16.5 36.5 -16.5c14.667 0 32.5 3.66699 53.5 11s43.333 17.166 67 29.499s47.834 26.333 72.501 42
s48.167 32.167 70.5 49.5s42.666 34.5 60.999 51.5s33.166 32.833 44.499 47.5c0 -22 0.166992 -42 0.5 -60s0.5 -35.167 0.5 -51.5s0.166992 -33.166 0.5 -50.499s0.5 -36.666 0.5 -57.999c-22 -22 -50.333 -46.5 -85 -73.5s-73.167 -52.333 -115.5 -76
s-87.5 -43.667 -135.5 -60s-96 -24.5 -144 -24.5c-27.333 0 -61.833 18.5 -103.5 55.5s-86.5 96.833 -134.5 179.5l-82 -92.5c-26 -28.333 -50.333 -53.166 -73 -74.499s-44 -38 -64 -50s-38.333 -18 -55 -18c-33.333 0 -60.666 8.66699 -81.999 26s-38.5 39.5 -51.5 66.5
s-22.333 56.333 -28 88s-9.16699 62.167 -10.5 91.5z" />
    <glyph glyph-name="y" unicode="y" horiz-adv-x="928" 
d="M640 768c5.33301 22.667 14.8262 42.8389 28.4932 60.5059s29.334 32.5 47.001 44.5s36.167 21 55.5 27s37.666 9 54.999 9c20.667 0 38 -4.5 52 -13.5s21 -23.167 21 -42.5c0 -6 -1 -13 -3 -21c-4 -17.333 -9 -41 -15 -71l-19.5 -102l-21.5 -120.5l-21 -126.5
c-16.667 -98.667 -33.667 -204.667 -51 -318c20 11.333 41.667 25.333 65 42s49.333 39 78 67s60.667 63.167 96 105.5s75 95.166 119 158.499l48 -222c-12 -20.667 -27.5 -41.834 -46.5 -63.501s-40 -43.334 -63 -65.001s-47 -42.667 -72 -63l-73.5 -57.5
c-56.667 -42.667 -117.667 -84 -183 -124c-12.667 -71.333 -27.667 -140.833 -45 -208.5s-37.833 -131 -61.5 -190s-50.667 -113.167 -81 -162.5s-64.666 -91.666 -102.999 -126.999s-81.166 -62.833 -128.499 -82.5s-99.666 -29.5 -156.999 -29.5
c-22.667 0 -47.167 2.33301 -73.5 7s-50.666 14 -72.999 28s-40.833 34 -55.5 60s-22 60.667 -22 104c0 30 7.66699 63.833 23 101.5s36.333 77.334 63 119.001s58.334 85 95.001 130s76.5 89.833 119.5 134.5s88 88.667 135 132s94.5 84.666 142.5 123.999l27 93
c-36 -32 -73.5 -57.833 -112.5 -77.5s-76.833 -29.5 -113.5 -29.5c-32 0 -63.167 6.5 -93.5 19.5s-57.166 31.667 -80.499 56s-42 54 -56 89s-21 74.5 -21 118.5c0 58 2.83301 111.333 8.5 160s13.834 95 24.501 139s24 86.5 40 127.5s34.333 82.5 55 124.5
c15.333 30 37.333 52.833 66 68.5s56.667 23.5 84 23.5c23.333 0 43.333 -5.83301 60 -17.5s25 -29.834 25 -54.501c0 -7.33301 -0.833008 -15.333 -2.5 -24s-4.5 -18 -8.5 -28c-12 -30.667 -23.833 -66.834 -35.5 -108.501s-22 -84.334 -31 -128.001
s-16.167 -86.5 -21.5 -128.5s-8 -79 -8 -111c0 -16.667 1.16699 -32.834 3.5 -48.501s6.5 -29.667 12.5 -42s14 -22.333 24 -30s22.667 -11.5 38 -11.5c24.667 0 47 10.667 67 32s37.333 47 52 77s26.5 61 35.5 93s14.833 58.667 17.5 80zM171.993 -735.995
c28 0 54.5029 8.16602 79.5029 24.499s48 37.833 69 64.5s40.167 57 57.5 91s32.666 68.833 45.999 104.5s24.666 70.5 33.999 104.5s16.666 64.333 21.999 91c-26 -17.333 -52.5 -38 -79.5 -62s-53.333 -49.833 -79 -77.5s-50 -56.167 -73 -85.5s-43.167 -57.5 -60.5 -84.5
s-31 -52.167 -41 -75.5s-15 -42.666 -15 -57.999c0 -24.667 13.333 -37 40 -37z" />
    <glyph glyph-name="z" unicode="z" horiz-adv-x="673" 
d="M27 187c0 14.667 2.67773 26.834 8.01074 36.501s12.333 18.834 21 27.501s18.667 17.5 30 26.5s23 20.167 35 33.5l311 418c-12 5.33301 -22.333 10.333 -31 15l-23.5 12.5c-7 3.66699 -14.167 6.5 -21.5 8.5s-15.333 3 -24 3c-21.333 0 -39 -0.333008 -53 -1
s-25.833 -3 -35.5 -7s-18.334 -10 -26.001 -18s-16.167 -19.333 -25.5 -34c-20.667 -32 -38 -55.5 -52 -70.5s-26.667 -22.5 -38 -22.5c-10.667 0 -18.167 4.83301 -22.5 14.5s-6.5 22.5 -6.5 38.5c0 6.66699 0.333008 13.834 1 21.501s1.66699 15.5 3 23.5
c10 58 24.333 105 43 141s39.5 63.833 62.5 83.5s47 33 72 40s48.167 10.5 69.5 10.5c16 0 32 -3.83301 48 -11.5s31.833 -16.167 47.5 -25.5s31.667 -17.833 48 -25.5s33.166 -11.834 50.499 -12.501c13.333 -0.666992 25.5 -1 36.5 -1h30.5c26.667 0 48 0.5 64 1.5
s28.167 2.16699 36.5 3.5s14.166 2.5 17.499 3.5s6 1.5 8 1.5c23.333 0 40.166 -8.16699 50.499 -24.5s15.5 -38.5 15.5 -66.5c0 -18 -2 -37.333 -6 -58c-1.33301 -5.33301 -8 -12.166 -20 -20.499s-32 -16.166 -60 -23.499c-8 -14.667 -21.333 -35.334 -40 -62.001
l-64.5 -89l-76 -101l-75 -97.5l-62 -79l-35.5 -45.5l-5 -20c0.666992 0 6.66699 -2.33301 18 -7s24.666 -9.83398 39.999 -15.501s31.5 -10.834 48.5 -15.501s31.833 -7 44.5 -7c28 0 53.5 4.16699 76.5 12.5s44.333 18.833 64 31.5s38 26.167 55 40.5l49 40.5
c15.667 12.667 31.167 23.167 46.5 31.5s31.333 12.5 48 12.5c12.667 0 24.167 -3 34.5 -9s19 -13.667 26 -23s12.333 -19.833 16 -31.5s5.5 -23.167 5.5 -34.5c0 -19.333 -7.33301 -39.5 -22 -60.5s-34.334 -41.5 -59.001 -61.5s-53.334 -39 -86.001 -57
s-66.834 -33.833 -102.501 -47.5s-72 -24.5 -109 -32.5s-71.833 -12 -104.5 -12c-2.66699 0 -9.66699 1.33301 -21 4s-26.333 7.16699 -45 13.5s-40.334 14.5 -65.001 24.5s-51.667 22.667 -81 38c-25.333 -8 -47.333 -12 -66 -12c-20 0 -37.333 3.5 -52 10.5
s-26.834 16.5 -36.501 28.5s-16.834 25.667 -21.501 41s-7 31.666 -7 48.999z" />
    <glyph glyph-name="braceleft" unicode="{" horiz-adv-x="1153" 
d="M487 1384c10 64.667 27.0029 123.997 51.0029 177.997s53.167 100.5 87.5 139.5s72.833 69.167 115.5 90.5s88 32 136 32c24 0 53 -0.833008 87 -2.5s69.333 -5.83398 106 -12.501s73.167 -16.334 109.5 -29.001s69.166 -30 98.499 -52
c9.33301 -7.33301 16.166 -16.166 20.499 -26.499s6.5 -21.166 6.5 -32.499c0 -15.333 -3.16699 -30.833 -9.5 -46.5s-15 -29.834 -26 -42.501s-23.833 -23.167 -38.5 -31.5s-30.667 -12.5 -48 -12.5c-16 0 -35.167 1.66699 -57.5 5l-72 11
c-25.667 4 -51.667 7.66699 -78 11s-51.5 5 -75.5 5c-21.333 0 -40.666 -4.16699 -57.999 -12.5s-33 -24 -47 -47s-27 -54.667 -39 -95s-23 -92.833 -33 -157.5c-8 -50 -16.5 -99.833 -25.5 -149.5s-21.667 -96 -38 -139s-38 -80.833 -65 -113.5s-62.5 -57 -106.5 -73
c26.667 -6.66699 49 -17.667 67 -33s32.333 -33.833 43 -55.5s18.167 -46 22.5 -73s6.5 -55.5 6.5 -85.5c0 -38 -2.5 -78.167 -7.5 -120.5s-10.333 -83.833 -16 -124.5l-16 -114.5c-5 -35.667 -7.5 -65.167 -7.5 -88.5c0 -28 2.16699 -51 6.5 -69s10.5 -32.5 18.5 -43.5
s17.833 -18.667 29.5 -23s25.167 -6.5 40.5 -6.5c24 0 46.667 3.83301 68 11.5s42.166 16.167 62.499 25.5s40.333 17.833 60 25.5s39.834 11.5 60.501 11.5c11.333 0 22.666 -2 33.999 -6s21.333 -10.333 30 -19s15.667 -19.667 21 -33s8 -29 8 -47c0 -10 -1 -21 -3 -33
c-3.33301 -22.667 -14.833 -43.167 -34.5 -61.5s-43.834 -34.666 -72.501 -48.999s-60 -26.5 -94 -36.5s-67 -18.333 -99 -25s-61 -11.667 -87 -15s-45.667 -5 -59 -5c-40.667 0 -77 8 -109 24s-59 38.833 -81 68.5s-38.833 65 -50.5 106s-17.5 86.5 -17.5 136.5
c0 56 5.5 114.167 16.5 174.5l31.5 178.5c1.33301 10 2.5 20.167 3.5 30.5s1.5 21.166 1.5 32.499c0 24 -2.5 47.5 -7.5 70.5s-13.5 43.5 -25.5 61.5s-28 32.667 -48 44s-45 17 -75 17c-27.333 0 -47 10.167 -59 30.5s-18 44.5 -18 72.5c0 20.667 3 41.834 9 63.501
s14.333 41.334 25 59.001s23.5 32.334 38.5 44.001s31.5 17.834 49.5 18.501c42.667 0.666992 77.5 6.5 104.5 17.5s48.833 27.167 65.5 48.5s29.667 47.833 39 79.5s17.333 68.5 24 110.5v208z" />
    <glyph glyph-name="bar" unicode="|" 
d="M715 1696c2 18.667 7.33203 37.4961 15.999 56.4961s20.334 36.167 35.001 51.5s32.5 27.833 53.5 37.5s45.167 14.5 72.5 14.5c18 0 33 -4.5 45 -13.5s21.667 -19.667 29 -32s12.666 -25.166 15.999 -38.499s5 -24.333 5 -33c0 -8 -0.333008 -17.167 -1 -27.5
s-1.66699 -20.833 -3 -31.5l-4 -31.5c-1.33301 -10.333 -2.66602 -19.166 -3.99902 -26.499l-22.5 -142.5l-29 -185.5l-32.5 -213.5l-34 -226l-33.5 -223l-30.5 -205.5l-25 -173l-18 -125c-4 -29.333 -12.833 -54 -26.5 -74s-29 -36.5 -46 -49.5s-34.5 -22.333 -52.5 -28
s-33.333 -8.5 -46 -8.5c-16 0 -30.5 4.33301 -43.5 13s-24.333 20.334 -34 35.001s-17 31.667 -22 51s-7.5 40 -7.5 62c0 10 0.333008 20.667 1 32s2 23.333 4 36c3.33301 20.667 8.33301 53.334 15 98.001l24 157.5l31 199.5l35.5 225l37 234l36 226l32.5 200.5
c10 61.667 19 114.5 27 158.5z" />
    <glyph glyph-name="braceright" unicode="}" 
d="M1007 1304c-4.66699 -28.667 -9.99805 -59.0029 -15.998 -91.0029s-11.667 -64 -17 -96s-9.83301 -63 -13.5 -93s-5.5 -57 -5.5 -81c0 -23.333 2.66699 -43.666 8 -60.999s14.166 -32 26.499 -44s29 -21.167 50 -27.5s47.167 -9.83301 78.5 -10.5
c26 -0.666992 45 -12 57 -34s18 -48 18 -78c0 -20 -2.66699 -40.5 -8 -61.5s-13.166 -40 -23.499 -57s-23 -30.833 -38 -41.5s-31.833 -16 -50.5 -16c-31.333 0 -58.333 -5.16699 -81 -15.5s-41.834 -23.666 -57.501 -39.999s-28 -34.333 -37 -54s-14.833 -38.5 -17.5 -56.5
c-7.33301 -42 -14 -82 -20 -120l-19 -120c-10.667 -65.333 -28 -125.333 -52 -180s-53.167 -101.834 -87.5 -141.501s-72.833 -70.667 -115.5 -93s-88 -33.5 -136 -33.5c-12.667 0 -31 1.5 -55 4.5s-50.333 7.5 -79 13.5s-58 13.833 -88 23.5s-57.167 21.167 -81.5 34.5
s-44.166 28.5 -59.499 45.5s-23 36.167 -23 57.5c0 26 4.83301 48.5 14.5 67.5s21.5 34.667 35.5 47s28.667 21.5 44 27.5s28.666 9 39.999 9c20.667 0 39.667 -3.83301 57 -11.5s34.833 -16.167 52.5 -25.5s36 -17.833 55 -25.5s40.5 -11.5 64.5 -11.5
c21.333 0 40.666 4.5 57.999 13.5s33.333 25.5 48 49.5s27.834 56.667 39.501 98s22.834 94.333 33.501 159c7.33301 44.667 15.666 90.334 24.999 137.001s22.333 90 39 130s38.5 74.333 65.5 103s61.833 47.667 104.5 57c-26.667 10 -48.834 23.333 -66.501 40
s-31.834 36 -42.501 58s-18.167 46.333 -22.5 73s-6.5 54.667 -6.5 84c0 35.333 2.33301 73.5 7 114.5s10 81.333 16 121s11.333 76.834 16 111.501s7 63.667 7 87c0 27.333 -2.16699 50 -6.5 68s-10.5 32.167 -18.5 42.5s-18 17.5 -30 21.5s-25.667 6 -41 6
c-24 0 -49.833 -1.66699 -77.5 -5s-54.667 -7 -81 -11l-75 -11c-23.667 -3.33301 -43.5 -5 -59.5 -5c-14 0 -26.167 2.66699 -36.5 8s-19.166 12.5 -26.499 21.5s-12.833 19.167 -16.5 30.5s-5.5 23.333 -5.5 36c0 18 4.33301 35.667 13 53s21.667 31.666 39 42.999
c36 22 74.167 39.333 114.5 52s80 22.334 119 29.001s75.667 10.834 110 12.501s63.5 2.5 87.5 2.5c40.667 0 77 -7.83301 109 -23.5s59.167 -37.834 81.5 -66.501s39.333 -63.167 51 -103.5s17.5 -85.5 17.5 -135.5c0 -35.333 -3 -72.333 -9 -111z" />
    <glyph glyph-name="asciitilde" unicode="~" horiz-adv-x="864" 
d="M710 1467c8 8.66699 16.001 18.667 24.001 30c7.33301 9.33301 15.166 20 23.499 32l25.5 38c13.333 21.333 29.833 37.166 49.5 47.499s39.167 15.5 58.5 15.5c22.667 0 42.167 -6.33301 58.5 -19s24.5 -30.667 24.5 -54c0 -16.667 -4.66699 -34.334 -14 -53.001
l-31 -58.5c-12.667 -23.667 -28.5 -46.667 -47.5 -69s-41.167 -41.5 -66.5 -57.5s-54.333 -24 -87 -24c-20.667 0 -38.834 3 -54.501 9s-31.5 15 -47.5 27s-32.833 27.167 -50.5 45.5l-63.5 63.5l-102 101l-24 -31l-24 -31.5c-8.66699 -11.667 -17 -24.167 -25 -37.5
c-13.333 -21.333 -29.833 -37.166 -49.5 -47.499s-39.167 -15.5 -58.5 -15.5c-22.667 0 -42.167 6.33301 -58.5 19s-24.5 30.667 -24.5 54c0 16.667 4.66699 34.334 14 53.001l31 58.5c12.667 23.667 28.5 46.667 47.5 69s41.167 41.5 66.5 57.5s54.333 24 87 24
c20.667 0 38.834 -3 54.501 -9s31.5 -15 47.5 -27s32.833 -27.167 50.5 -45.5l63.5 -63.5z" />
    <glyph glyph-name="exclamdown" unicode="&#xa1;" horiz-adv-x="1184" 
d="M833 1342c-6.66699 -68.667 -16.667 -139.496 -30 -212.496s-28.666 -146 -45.999 -219s-35.833 -145.167 -55.5 -216.5l-58.5 -205l-56 -184c-18 -57.333 -33.333 -109 -46 -155c-9.33301 -32 -22 -57.833 -38 -77.5s-34 -35 -54 -46s-41.167 -18.5 -63.5 -22.5
s-43.833 -6 -64.5 -6c-10.667 0 -20.667 1.33301 -30 4s-17.333 7.5 -24 14.5s-11.834 16.667 -15.501 29s-5.5 28.166 -5.5 47.499c0 13.333 0.833008 27.833 2.5 43.5s4.5 33.5 8.5 53.5c16 78 37.5 156.167 64.5 234.5s59.167 162.5 96.5 252.5l127.5 296.5l159.5 368.5
c1.33301 7.33301 4.83301 14.166 10.5 20.499s12.5 11.666 20.5 15.999s16.667 7.66602 26 9.99902s18.333 3.5 27 3.5c12.667 0 23.5 -2.66699 32.5 -8s13.5 -14.333 13.5 -27c0 -3.33301 -0.666992 -8.33301 -2 -15zM659 1669c1.33301 2.66699 2.49902 9 3.49902 19
s3.33301 22 7 36s8.83398 28.667 15.501 44s16.5 29.5 29.5 42.5s29.5 23.833 49.5 32.5s45 13 75 13c24.667 0 47 -3.16699 67 -9.5s37.167 -16.166 51.5 -29.499s25.5 -30.333 33.5 -51s12 -45.334 12 -74.001c0 -24 -3.5 -47.5 -10.5 -70.5s-17.833 -43.5 -32.5 -61.5
s-33.667 -32.333 -57 -43s-51 -16 -83 -16c-52 0 -92 14 -120 42s-42 68 -42 120c0 2.66699 0.333008 4.66699 1 6z" />
    <glyph glyph-name="cent" unicode="&#xa2;" horiz-adv-x="896" 
d="M515 1023c0.666992 12.667 3.16602 25.6689 7.49902 39.002s10.166 25.5 17.499 36.5s16.333 19.833 27 26.5s23 10 37 10c6.66699 0 12.5 -2.83301 17.5 -8.5s9.33301 -12.5 13 -20.5s6.33398 -16.5 8.00098 -25.5s2.5 -16.833 2.5 -23.5
c0 -10.667 -0.5 -24.834 -1.5 -42.501s-2.16699 -32.5 -3.5 -44.5l-2 -16c37.333 -5.33301 71.166 -14.833 101.499 -28.5s56.333 -30.334 78 -50.001s38.5 -42 50.5 -67s18 -51.5 18 -79.5c0 -22.667 -2.5 -45 -7.5 -67s-12.5 -41.833 -22.5 -59.5s-22 -31.834 -36 -42.501
s-30 -16 -48 -16c-23.333 0 -40 4.83301 -50 14.5s-16.833 21.834 -20.5 36.501s-5.66699 30.834 -6 48.501s-2.16602 34.667 -5.49902 51s-9.66602 31 -18.999 44s-25 21.833 -47 26.5c-5.33301 -78.667 -10.666 -165.167 -15.999 -259.5s-12.666 -195.5 -21.999 -303.5
c35.333 10.667 71 26.167 107 46.5s66.667 39.833 92 58.5c8.66699 4.66699 16.667 7 24 7c9.33301 0 18.5 -2.83301 27.5 -8.5s17 -13 24 -22s12.667 -19.333 17 -31s6.5 -23.167 6.5 -34.5s-2.33301 -21.833 -7 -31.5s-12.334 -18.167 -23.001 -25.5
c-25.333 -22 -53.333 -43 -84 -63c-26 -17.333 -56.333 -34.833 -91 -52.5s-71.667 -31.167 -111 -40.5l-16 -135c-3.33301 -15.333 -7.33301 -27.5 -12 -36.5s-9.66699 -16 -15 -21s-11 -8.16699 -17 -9.5s-12 -2 -18 -2c-4 0 -7.66699 0.166992 -11 0.5
s-6.66602 0.5 -9.99902 0.5c-6.66699 0 -12.834 3 -18.501 9s-10.5 14 -14.5 24s-7.16699 21.5 -9.5 34.5s-3.5 26.833 -3.5 41.5c0 12.667 0.666992 25 2 37s2.66602 29.333 3.99902 52c-60 0.666992 -112.833 12.5 -158.5 35.5s-83.667 53.5 -114 91.5
s-53.333 81.667 -69 131s-23.5 101 -23.5 155c0 36 4.33301 73.667 13 113s21.5 78.166 38.5 116.499s38.167 75.333 63.5 111s54.5 67.5 87.5 95.5s69.667 51.5 110 70.5s84.5 31.167 132.5 36.5zM319.999 414.002c0 -21.333 1.83496 -43.835 5.50195 -67.502
s10 -45.834 19 -66.501s21.5 -38.667 37.5 -54s36.667 -25.666 62 -30.999l10.5 130l11.5 141l12.5 144l12.5 140c-38 -15.333 -68.333 -37.666 -91 -66.999s-39.834 -60.666 -51.501 -93.999s-19.334 -65.833 -23.001 -97.5s-5.5 -57.5 -5.5 -77.5z" />
    <glyph glyph-name="sterling" unicode="&#xa3;" horiz-adv-x="1505" 
d="M1264 992c16 0 33.1699 -1.66309 51.5029 -4.99609s35.5 -9.5 51.5 -18.5s29.167 -21.5 39.5 -37.5s15.5 -37 15.5 -63c0 -12.667 -2.16699 -25 -6.5 -37s-12.333 -22.667 -24 -32s-27.834 -16.833 -48.501 -22.5s-47.334 -8.5 -80.001 -8.5h-251
c-4 -36 -8.66699 -74.333 -14 -115l-16.5 -122l-17 -117l-15 -99.5l-10.5 -70.5c-2.66699 -18 -3.66699 -27.667 -3 -29c60.667 0 113.334 3 158.001 9s85.667 12.5 123 19.5l106.5 19.5c33.667 6 70.167 9 109.5 9c16.667 0 34.167 -2.16699 52.5 -6.5
s35.166 -10.833 50.499 -19.5s28 -19.334 38 -32.001s15 -27.334 15 -44.001c0 -14 -2.33301 -28.667 -7 -44s-12.334 -29.333 -23.001 -42s-24.167 -23.667 -40.5 -33s-36.166 -15 -59.499 -17c-28.667 -2.66699 -66.5 -7.5 -113.5 -14.5s-98.5 -14 -154.5 -21
s-114.333 -13.333 -175 -19s-118.667 -8.5 -174 -8.5c-41.333 0 -75.333 4.5 -102 13.5s-47.834 21 -63.501 36s-26.667 32.333 -33 52s-9.5 40.5 -9.5 62.5c0 26.667 3.5 53.667 10.5 81s14.167 52.666 21.5 75.999c2.66699 25.333 8 58 16 98l25 127
c8.66699 44.667 16.834 89.167 24.501 133.5s13.167 83.5 16.5 117.5h-116c-23.333 0 -42 4.66699 -56 14s-24.833 20.166 -32.5 32.499s-12.667 24.666 -15 36.999s-3.5 21.5 -3.5 27.5c0 14 1.83301 27.667 5.5 41s10.167 25.333 19.5 36s22.5 19.334 39.5 26.001
s39.167 10 66.5 10h112c0 90.667 8 171.5 24 242.5s37.833 133.167 65.5 186.5s60 98.666 97 135.999s76.833 67.666 119.5 90.999s87 40.166 133 50.499s91.333 15.5 136 15.5c27.333 0 55.5 -1.83301 84.5 -5.5s57.167 -10 84.5 -19s53 -21.167 77 -36.5
s45.167 -34.666 63.5 -57.999s32.833 -51.166 43.5 -83.499s16 -70.166 16 -113.499c0 -24 -3 -44.333 -9 -61s-14 -30.167 -24 -40.5s-21.333 -18 -34 -23s-25.667 -7.5 -39 -7.5s-26.166 2.16699 -38.499 6.5s-23.333 10.5 -33 18.5s-17.5 17.5 -23.5 28.5
s-9 23.167 -9 36.5c0 26.667 -4 47.667 -12 63s-19 26.666 -33 33.999s-30.667 12 -50 14s-40.333 3 -63 3s-46.334 -2.16699 -71.001 -6.5s-48.834 -12.666 -72.501 -24.999s-46.167 -29.5 -67.5 -51.5s-40 -50.667 -56 -86s-28.833 -78.333 -38.5 -129
s-14.5 -110.667 -14.5 -180h240z" />
    <glyph glyph-name="currency" unicode="&#xa4;" horiz-adv-x="1472" 
d="M666 452c-51.333 0 -98.3311 7.16504 -140.998 21.498s-81 34.833 -115 61.5l-74.5 -53.5c-25.667 -18.333 -50.334 -35 -74.001 -50s-45.5 -27.167 -65.5 -36.5s-36.667 -14 -50 -14c-10 0 -20 2.83301 -30 8.5s-18.833 12.834 -26.5 21.501s-13.834 18.5 -18.501 29.5
s-7 22.167 -7 33.5c0 16.667 6.16699 33 18.5 49s32.166 33.667 59.499 53l152 105c-30.667 65.333 -46 138.666 -46 219.999c0 80.667 12.333 159.334 37 236.001s62 145.334 112 206.001l-95 86c-20 18 -34.833 34.167 -44.5 48.5s-14.5 28.833 -14.5 43.5
c0 10.667 3.16699 22 9.5 34s14.333 23 24 33s20.5 18.333 32.5 25s23.667 10 35 10c26 0 55.667 -14.667 89 -44l120 -106c38.667 21.333 81 37.833 127 49.5s96 17.5 150 17.5c52 0 99.667 -6.66699 143 -20s82 -32.666 116 -57.999l68 47
c22 15.333 42.667 28.833 62 40.5s37 21 53 28s30 10.5 42 10.5c10.667 0 21 -2.83301 31 -8.5s18.833 -12.834 26.5 -21.501s13.834 -18.667 18.501 -30s7 -22.333 7 -33c0 -16.667 -6.16699 -33 -18.5 -49s-32.166 -33.333 -59.499 -52l-115 -79
c24.667 -57.333 37 -121 37 -191c0 -44 -3.83301 -88.333 -11.5 -133s-19.167 -88.334 -34.5 -131.001s-34.333 -83.5 -57 -122.5s-48.667 -74.833 -78 -107.5l99 -89c38 -34.667 57.333 -64.667 58 -90c0 -11.333 -3.16699 -23.166 -9.5 -35.499s-14.333 -23.5 -24 -33.5
s-20.334 -18.333 -32.001 -25s-23.167 -10 -34.5 -10c-13.333 0 -28.333 4.66699 -45 14s-34.5 21.5 -53.5 36.5s-38.667 32 -59 51l-61.5 56.5c-34 -17.333 -70.333 -30.5 -109 -39.5s-79.667 -13.5 -123 -13.5zM696.002 644.998c38 0 72.166 7.33398 102.499 22.001
s57.333 34.5 81 59.5s44.167 53.833 61.5 86.5s31.5 66.834 42.5 102.501s19.167 71.5 24.5 107.5s8 70 8 102c0 30.667 -4.33301 59.667 -13 87s-21.167 51 -37.5 71s-36.5 35.833 -60.5 47.5s-51 17.5 -81 17.5c-56 0 -105.833 -11.333 -149.5 -34
s-80.5 -53.834 -110.5 -93.501s-52.833 -86.834 -68.5 -141.501s-23.5 -114 -23.5 -178c0 -40 5.16699 -75.833 15.5 -107.5s25.333 -58.5 45 -80.5s43.334 -38.833 71.001 -50.5s58.5 -17.5 92.5 -17.5z" />
    <glyph glyph-name="yen" unicode="&#xa5;" horiz-adv-x="1793" 
d="M1239 545c12.667 0 27.0059 -0.831055 43.0059 -2.49805s31 -4.83398 45 -9.50098s25.667 -11.167 35 -19.5s14 -19.166 14 -32.499c0 -10.667 -2 -21.667 -6 -33s-12.5 -21.666 -25.5 -30.999s-31.667 -17 -56 -23s-56.833 -9 -97.5 -9h-246
c-18.667 -58.667 -37.834 -109 -57.501 -151s-39.5 -77.167 -59.5 -105.5s-40.667 -51 -62 -68s-43.333 -29.833 -66 -38.5s-45.834 -14.334 -69.501 -17.001s-48.167 -4 -73.5 -4c-20 0 -38.667 2.66699 -56 8s-32.5 12.666 -45.5 21.999s-23.167 20.666 -30.5 33.999
s-11 27.666 -11 42.999c0 13.333 2 26.333 6 39s9.16699 23.834 15.5 33.501s13.666 17.5 21.999 23.5s17.166 9 26.499 9c14 0 28 -1.33301 42 -4s27.667 -7.33398 41 -14.001c8.66699 -5.33301 19.667 -8 33 -8c9.33301 0 21.166 18 35.499 54s30.166 84 47.499 144h-94
c-30.667 0 -55.334 3.16699 -74.001 9.5s-33 14 -43 23s-16.5 18.833 -19.5 29.5s-4.5 20 -4.5 28c0 7.33301 1.5 15 4.5 23s9.33301 15.5 19 22.5s23.834 12.833 42.501 17.5s43.667 7 75 7h136l24 96h-155c-32 0 -57.667 3.16699 -77 9.5s-34 14 -44 23
s-16.667 18.833 -20 29.5s-5 20 -5 28c0 7.33301 1.5 15 4.5 23s9.66699 15.5 20 22.5s25.166 12.833 44.499 17.5s45 7 77 7h149c-10.667 56.667 -21.834 112.667 -33.501 168s-23.834 107.833 -36.501 157.5s-26.167 95.667 -40.5 138s-29.5 78.833 -45.5 109.5
s-32.833 54.667 -50.5 72s-36.5 26 -56.5 26c-23.333 0 -59.5 -15.5 -108.5 -46.5s-105.167 -79.833 -168.5 -146.5c-3.33301 2 -10 7.66699 -20 17l-38 36c-16.667 16 -39 38.667 -67 68c40 47.333 80.667 89.166 122 125.499s81.833 66.666 121.5 90.999
s77.5 42.833 113.5 55.5s68.667 19 98 19c56 0 105 -21.833 147 -65.5s78.833 -103 110.5 -178s59.5 -162.167 83.5 -261.5s46 -205 66 -317l152 225.5l136 207l113 174.5l82 127c6 8 13.667 15.333 23 22s19.833 12.334 31.5 17.001s24.167 8.33398 37.5 11.001
s26.666 4 39.999 4c14 0 27.333 -1.5 40 -4.5s23.834 -8 33.501 -15s17.334 -16 23.001 -27s8.5 -24.5 8.5 -40.5s-3.5 -34.5 -10.5 -55.5s-18.5 -44.833 -34.5 -71.5c-18 -30 -43 -67.167 -75 -111.5l-110 -149.5l-134.5 -179.5l-147.5 -201.5h118
c13.333 0 28.333 -0.833008 45 -2.5s32.167 -4.83398 46.5 -9.50098s26.333 -11.167 36 -19.5s14.5 -19.166 14.5 -32.499c0 -10.667 -2.16699 -21.667 -6.5 -33s-13.166 -21.666 -26.499 -30.999s-32.666 -17 -57.999 -23s-59 -9 -101 -9h-174l-35 -96h232z" />
    <glyph glyph-name="brokenbar" unicode="&#xa6;" horiz-adv-x="1025" 
d="M575 1728c10.667 42.667 26.832 74.3359 48.499 95.0029s44.167 31 67.5 31c14.667 0 29.167 -4 43.5 -12s26.833 -19.833 37.5 -35.5s19.334 -35.167 26.001 -58.5s10 -50 10 -80v-22.5c0 -7.66699 -0.666992 -15.5 -2 -23.5
c-2.66699 -11.333 -5.66699 -28.666 -9 -51.999l-11.5 -81c-4.33301 -30.667 -8.66602 -63.834 -12.999 -99.501l-13.5 -107c-4.66699 -35.667 -9 -70.334 -13 -104.001l-11 -90.5c-3.33301 -26 -8.83301 -48.167 -16.5 -66.5s-17 -33.333 -28 -45s-23 -20.167 -36 -25.5
s-26.167 -8 -39.5 -8c-16.667 0 -33 3.83301 -49 11.5s-30.333 18.167 -43 31.5s-22.834 29.5 -30.501 48.5s-11.5 39.833 -11.5 62.5v13.5c0 4.33301 0.666992 9.16602 2 14.499c3.33301 28 7.33301 59.333 12 94l15 108l16.5 114l17 111l16.5 98.5
c5.33301 30.333 10.333 56.166 15 77.499zM399.998 608.002c3.33301 23.333 9.33301 43.832 18 61.499s19 32.334 31 44.001s25.333 20.5 40 26.5s29.334 9 44.001 9c15.333 0 30.166 -3.33301 44.499 -10s27.166 -16.834 38.499 -30.501s20.5 -30.834 27.5 -51.501
s10.5 -44.667 10.5 -72c0 -8 -0.333008 -16.167 -1 -24.5s-1.66699 -17.166 -3 -26.499c-11.333 -77.333 -20.333 -142.666 -27 -195.999l-18 -144c-5.33301 -42.667 -11 -83.834 -17 -123.501s-13.333 -84.5 -22 -134.5c-3.33301 -21.333 -8.66602 -38.5 -15.999 -51.5
s-16 -23 -26 -30s-20.667 -11.5 -32 -13.5s-22.333 -3 -33 -3c-8 0 -15.667 0.333008 -23 1s-14.333 1 -21 1c-16 0 -30.5 4.33301 -43.5 13s-24.333 20.334 -34 35.001s-17 31.667 -22 51s-7.5 40 -7.5 62c0 10 0.333008 20.667 1 32s2 23.333 4 36
c4 28 7.66699 52.5 11 73.5s6.83301 41.667 10.5 62l11.5 64.5l13.5 80l17.5 108.5z" />
    <glyph glyph-name="section" unicode="&#xa7;" horiz-adv-x="1440" 
d="M1228 625c0 -52 -12 -98.4941 -36 -139.494s-57 -77.5 -99 -109.5c16 -24.667 28.5 -51.5 37.5 -80.5s13.5 -60.833 13.5 -95.5c0 -52 -13.5 -97.667 -40.5 -137s-62.333 -72.333 -106 -99s-93.167 -46.834 -148.5 -60.501s-111.333 -20.5 -168 -20.5
c-58 0 -114.5 7 -169.5 21s-103.667 35.167 -146 63.5s-76.5 63.666 -102.5 105.999s-39 92.166 -39 149.499c0 30 4.83301 56.667 14.5 80s21.834 42.666 36.501 57.999s30.5 27 47.5 35s32.833 12 47.5 12c24 0 43.833 -4.16699 59.5 -12.5s23.5 -21.166 23.5 -38.499
c0 -16 -3 -34.5 -9 -55.5s-9 -46.833 -9 -77.5c0 -28 7 -52.167 21 -72.5s32.667 -37.166 56 -50.499s50.166 -23.166 80.499 -29.499s61.833 -9.5 94.5 -9.5c24 0 48.167 3.16699 72.5 9.5s46.333 15.666 66 27.999s35.667 27.833 48 46.5s18.5 40 18.5 64
c0 30.667 -8 58 -24 82s-37.167 46.167 -63.5 66.5s-56.333 39.5 -90 57.5l-103 54.5c-35 18.333 -69.167 37.5 -102.5 57.5s-63.166 42.333 -89.499 67s-47.5 52.167 -63.5 82.5s-24 65.166 -24 104.499c0 42 12.167 82.833 36.5 122.5s61.833 75.167 112.5 106.5
c-25.333 26 -45.833 54.167 -61.5 84.5s-23.5 64.166 -23.5 101.499c0 36 9.66699 71.5 29 106.5s48.333 66.333 87 94s87 50.167 145 67.5s125.667 26 203 26c46.667 0 93.5 -8.16699 140.5 -24.5s89.5 -39.5 127.5 -69.5s68.833 -65.833 92.5 -107.5
s35.5 -87.834 35.5 -138.501c0 -27.333 -3.33301 -50.5 -10 -69.5s-15.334 -34.667 -26.001 -47s-22.667 -21.333 -36 -27s-26.666 -8.5 -39.999 -8.5c-22.667 0 -42.667 7.16699 -60 21.5s-26 34.166 -26 59.499c0 10.667 1.66699 21.834 5 33.501s5 23.167 5 34.5
c0 25.333 -6.5 48.166 -19.5 68.499s-30.5 37.5 -52.5 51.5s-47.333 24.833 -76 32.5s-58.334 11.5 -89.001 11.5c-33.333 0 -61.666 -4.33301 -84.999 -13s-42.333 -19.5 -57 -32.5s-25.334 -26.833 -32.001 -41.5s-10 -28 -10 -40c0 -19.333 8.33301 -37.5 25 -54.5
s38.667 -34 66 -51s58.333 -34.333 93 -52l106.5 -56.5c36.333 -20 71.833 -41.5 106.5 -64.5s65.667 -48.5 93 -76.5s49.333 -58.833 66 -92.5s25 -71.167 25 -112.5zM1006 625.006c0 28 -12 53.6699 -36 77.0029s-54.667 46 -92 68s-78.833 44.167 -124.5 66.5
s-90.5 46.166 -134.5 71.499c-21.333 -18 -37.333 -37.333 -48 -58s-16 -41.667 -16 -63c0 -16.667 5.83301 -32.334 17.5 -47.001s27.5 -28.834 47.5 -42.501s43.333 -27.334 70 -41.001l84.5 -42.5l91 -46.5c31 -16.333 60.833 -34.166 89.5 -53.499
c16 15.333 28.5 32.333 37.5 51s13.5 38.667 13.5 60z" />
    <glyph glyph-name="dieresis" unicode="&#xa8;" horiz-adv-x="1025" 
d="M898 1306c0 -2.66699 -0.333984 -8.83301 -1.00098 -18.5s-2.5 -21 -5.5 -34s-7.83301 -26.5 -14.5 -40.5s-16 -27 -28 -39s-27.167 -22 -45.5 -30s-40.833 -12 -67.5 -12c-41.333 0 -75.166 11.5 -101.499 34.5s-39.5 60.833 -39.5 113.5c0 22 3 43.5 9 64.5
s15.5 39.5 28.5 55.5s29.333 29 49 39s43.5 15 71.5 15c47.333 0 83.333 -12.667 108 -38s37 -62 37 -110zM430.999 1306c0 -2.66699 -0.332031 -8.83301 -0.999023 -18.5s-2.66699 -21 -6 -34s-8.33301 -26.5 -15 -40.5s-16 -27 -28 -39s-27.167 -22 -45.5 -30
s-40.5 -12 -66.5 -12c-42.667 0 -76.834 11.5 -102.501 34.5s-38.5 60.833 -38.5 113.5c0 22 3 43.5 9 64.5s15.333 39.5 28 55.5s29 29 49 39s44 15 72 15c46.667 0 82.5 -12.667 107.5 -38s37.5 -62 37.5 -110z" />
    <glyph glyph-name="copyright" unicode="&#xa9;" horiz-adv-x="1792" 
d="M834 32c-122.667 0 -229.499 17.335 -320.499 52.002s-166.667 81 -227 139s-105.333 124.667 -135 200s-44.5 153.333 -44.5 234c0 62.667 8.5 125.5 25.5 188.5s42.167 123.5 75.5 181.5s74.833 112.167 124.5 162.5s107.167 94 172.5 131s138.333 66.167 219 87.5
s169 32 265 32c76 0 144.5 -7.83301 205.5 -23.5s115.167 -37.334 162.5 -65.001s88 -60.334 122 -98.001s61.833 -78.834 83.5 -123.501s37.667 -91.834 48 -141.501s15.5 -99.834 15.5 -150.501c0 -63.333 -7.83301 -127.166 -23.5 -191.499s-39 -126.333 -70 -186
s-69 -115.667 -114 -168s-96.833 -97.666 -155.5 -135.999s-123.834 -68.666 -195.501 -90.999s-149.5 -33.5 -233.5 -33.5zM838.001 192.002c66 0 126.832 8.99902 182.499 26.999s105.834 42.667 150.501 74s83.834 68 117.501 110s61.834 86.667 84.501 134
s39.667 96.333 51 147s17 100.334 17 149.001c0 60 -9 116.833 -27 170.5s-46.667 100.834 -86 141.501s-89.833 73 -151.5 97s-136.167 36 -223.5 36c-70.667 0 -135.834 -8.66699 -195.501 -26s-114 -41.166 -163 -71.499s-92.333 -65.833 -130 -106.5
s-69.334 -84.334 -95.001 -131.001s-45 -95.334 -58 -146.001s-19.5 -101 -19.5 -151c0 -60 10.833 -117.333 32.5 -172s55 -103 100 -145s101.833 -75.333 170.5 -100s149.667 -37 243 -37zM830 323.001c-53.333 0 -100 9.50293 -140 28.5029s-73.5 44.5 -100.5 76.5
s-47.167 69 -60.5 111s-20 86.333 -20 133c0 33.333 3.83301 68.333 11.5 105s19 73 34 109s33.5 70.5 55.5 103.5s47.333 62 76 87s60.667 44.833 96 59.5s74 22 116 22c33.333 0 64 -5 92 -15s52 -24 72 -42s35.667 -39.167 47 -63.5s17 -50.5 17 -78.5
c0 -21.333 -3 -42.333 -9 -63s-14.5 -39.334 -25.5 -56.001s-24.5 -30.167 -40.5 -40.5s-33.667 -15.5 -53 -15.5c-26 0 -43.333 6.5 -52 19.5s-13 31.167 -13 54.5c0 12.667 1 27.167 3 43.5s3 30.166 3 41.499c0 12.667 -1.5 23 -4.5 31s-9.16699 12 -18.5 12
c-26.667 0 -49.667 -6.5 -69 -19.5s-35.5 -29.5 -48.5 -49.5s-23.5 -42 -31.5 -66s-14 -47.5 -18 -70.5s-6.66699 -43.833 -8 -62.5s-2 -32.334 -2 -41.001c0 -20.667 2 -41.667 6 -63s11.167 -40.833 21.5 -58.5s24.333 -32 42 -43s40.167 -16.5 67.5 -16.5
c16 0 33.667 2.83301 53 8.5s39 12.834 59 21.501s39.333 18 58 28s35 19.333 49 28c6.66699 3.33301 12.667 5 18 5c8 0 15.5 -2.83301 22.5 -8.5s13.333 -12.834 19 -21.501s10 -18.5 13 -29.5s4.5 -21.833 4.5 -32.5c0 -11.333 -2 -22 -6 -32s-10.667 -17.667 -20 -23
c-28.667 -22 -60 -41.667 -94 -59c-29.333 -14.667 -63 -28 -101 -40s-78.333 -18 -121 -18z" />
    <glyph glyph-name="ordfeminine" unicode="&#xaa;" horiz-adv-x="928" 
d="M1024 1016c-13.333 -18.667 -31.0039 -40.499 -53.0039 -65.499s-47 -48.667 -75 -71s-57.667 -41.333 -89 -57s-63 -23.5 -95 -23.5c-38 0 -69.667 12.333 -95 37s-47.333 60.334 -66 107.001c-14 -16 -31.167 -32.333 -51.5 -49s-42.333 -31.834 -66 -45.501
s-48.5 -24.834 -74.5 -33.501s-52 -13 -78 -13c-28 0 -55 5.5 -81 16.5s-49 27 -69 48s-36.167 46.667 -48.5 77s-18.5 64.833 -18.5 103.5c0 43.333 6 87.833 18 133.5s28.667 90.167 50 133.5s46.666 84.166 75.999 122.499s61.166 72 95.499 101s70.666 52 108.999 69
s77.5 25.5 117.5 25.5c12.667 0 22.834 -2.5 30.501 -7.5s14 -10.833 19 -17.5l14.5 -20c4.66699 -6.66699 10.667 -11.334 18 -14.001c9.33301 -4 19.333 -6 30 -6s21.334 0.166992 32.001 0.5s20.834 0.333008 30.501 0s18.334 -3 26.001 -8s13.834 -13.167 18.501 -24.5
s7 -27.333 7 -48c0 -28 -2.83301 -58.833 -8.5 -92.5s-12 -68.167 -19 -103.5s-13.333 -70.833 -19 -106.5s-8.5 -69.167 -8.5 -100.5c0 -27.333 2.33301 -48.666 7 -63.999s15 -23 31 -23c12 0 24.667 3 38 9s26.833 13.833 40.5 23.5s27.334 20.834 41.001 33.501
s26.5 25.667 38.5 39c28.667 30.667 57.334 65.667 86.001 105zM284.996 1084c0 -14.667 0.998047 -28.8311 2.99805 -42.498s5.5 -25.834 10.5 -36.501s12 -19.334 21 -26.001s20.167 -10 33.5 -10c14 0 27.333 4.33301 40 13s24.334 20 35.001 34s20.167 29.833 28.5 47.5
s15.5 35.5 21.5 53.5s11 35.5 15 52.5s6.66699 31.5 8 43.5l53 254c-35.333 0 -69.166 -12.833 -101.499 -38.5s-61 -57.667 -86 -96s-44.833 -79.833 -59.5 -124.5s-22 -86 -22 -124z" />
    <glyph glyph-name="guillemotleft" unicode="&#xab;" horiz-adv-x="1440" 
d="M638 87c-51.333 30 -94.9971 58.334 -130.997 85.001s-67.833 52 -95.5 76s-52.667 47.333 -75 70l-68.5 67c-26.667 25.333 -46 50.333 -58 75s-18 49 -18 73c0 22.667 4.83301 45 14.5 67s23 43.167 40 63.5s37.167 40.166 60.5 59.499s48.333 37.666 75 54.999l26 18
l55 39l69 49.5l69 49l54 38c14.667 10.333 23 15.833 25 16.5c9.33301 4 18.5 6.83301 27.5 8.5s17.5 2.5 25.5 2.5c16 0 30.833 -2.66699 44.5 -8s25.5 -12.833 35.5 -22.5s17.833 -20.667 23.5 -33s8.5 -25.5 8.5 -39.5c0 -20.667 -8.33301 -40.5 -25 -59.5
s-41.334 -40.167 -74.001 -63.5l-326 -229l269 -231c8 -7.33301 19.167 -15.666 33.5 -24.999s28.166 -20.333 41.499 -33s25 -27 35 -43s15 -34 15 -54c0 -8.66699 -2.66699 -18 -8 -28s-12.833 -19.167 -22.5 -27.5s-21.334 -15.333 -35.001 -21s-29.167 -8.5 -46.5 -8.5
c-20 0 -41.333 4.66699 -64 14zM1214 87.001c-51.333 30 -94.9971 58.334 -130.997 85.001s-67.833 52 -95.5 76s-52.667 47.333 -75 70l-68.5 67c-26.667 25.333 -46 50.333 -58 75s-18 49 -18 73c0 22.667 4.83301 45 14.5 67s23 43.167 40 63.5
s37.167 40.166 60.5 59.499s48.333 37.666 75 54.999l26 18l55 39l69 49.5l69 49l54 38c14.667 10.333 23 15.833 25 16.5c9.33301 4 18.5 6.83301 27.5 8.5s17.5 2.5 25.5 2.5c16 0 30.833 -2.66699 44.5 -8s25.5 -12.833 35.5 -22.5s17.833 -20.667 23.5 -33
s8.5 -25.5 8.5 -39.5c0 -20.667 -8.33301 -40.5 -25 -59.5s-41.334 -40.167 -74.001 -63.5l-326 -229l269 -231c8 -7.33301 19.167 -15.666 33.5 -24.999s28.166 -20.333 41.499 -33s25 -27 35 -43s15 -34 15 -54c0 -8.66699 -2.66699 -18 -8 -28
s-12.833 -19.167 -22.5 -27.5s-21.334 -15.333 -35.001 -21s-29.167 -8.5 -46.5 -8.5c-20 0 -41.333 4.66699 -64 14z" />
    <glyph glyph-name="logicalnot" unicode="&#xac;" horiz-adv-x="1216" 
d="M1015 353c-1.33301 -22 -5.16602 -41.335 -11.499 -58.002s-14.333 -30.5 -24 -41.5s-20.5 -19.333 -32.5 -25s-24 -8.5 -36 -8.5c-11.333 0 -22.333 2.33301 -33 7s-20.167 11.834 -28.5 21.501s-15 21.834 -20 36.501s-7.5 31.667 -7.5 51c0 2 0.166992 4 0.5 6
s0.5 4.33301 0.5 7l13 227h-543c-20.667 0 -38.667 2.5 -54 7.5s-28.166 11.667 -38.499 20s-18 18 -23 29s-7.5 22.167 -7.5 33.5c0 12 3 24.167 9 36.5s14.667 23.333 26 33s25.666 17.5 42.999 23.5s37.666 9 60.999 9h631c33.333 0 57.5 -7.66699 72.5 -23
s22.5 -33.333 22.5 -54v-6z" />
    <glyph glyph-name="registered" unicode="&#xae;" horiz-adv-x="1760" 
d="M855 38c-132 0 -247.001 19.4961 -345.001 58.4961s-179.5 91 -244.5 156s-113.667 139.333 -146 223s-48.5 170.5 -48.5 260.5c0 66.667 8.83301 133.167 26.5 199.5s43.834 129.833 78.501 190.5s78.167 117.334 130.5 170.001s112.833 98.334 181.5 137.001
s145.834 69 231.501 91s179.5 33 281.5 33c80.667 0 153.667 -8.16699 219 -24.5s123.166 -39.166 173.499 -68.499s93.666 -63.833 129.999 -103.5s66.333 -83.167 90 -130.5s41 -97.166 52 -149.499s16.5 -105.5 16.5 -159.5c0 -70 -8.33301 -140.333 -25 -211
s-41 -138.667 -73 -204s-71.667 -126.5 -119 -183.5s-101.666 -106.5 -162.999 -148.5s-129.333 -75.167 -204 -99.5s-155.667 -36.5 -243 -36.5zM849.999 201.996c70 0 134.502 10.1719 193.502 30.5049s112.167 48.333 159.5 84s88.833 77.167 124.5 124.5
s65.5 98 89.5 152s42 109.667 54 167s18 114 18 170c0 62.667 -8.66699 122 -26 178s-44.666 105.167 -81.999 147.5s-85.333 76 -144 101s-129 37.5 -211 37.5c-82.667 0 -159.334 -9.33301 -230.001 -28s-134.834 -44.334 -192.501 -77.001
s-108.5 -70.834 -152.5 -114.501s-80.833 -90.834 -110.5 -141.501s-52.167 -103.334 -67.5 -158.001s-23 -109 -23 -163c0 -66.667 12 -130.834 36 -192.501s60.667 -116 110 -163s111.666 -84.5 186.999 -112.5s164.333 -42 267 -42zM423.001 500.001
c6.66699 -4.66699 13.9961 -8.00781 21.9961 -10.0078s15.667 -3 23 -3c15.333 0 29.833 7.16699 43.5 21.5s26.167 32.833 37.5 55.5s21.833 47.667 31.5 75s18 54 25 80s12.833 49.333 17.5 70s8 36 10 46c-19.333 11.333 -33.333 21.666 -42 30.999s-13 20 -13 32
c0 2.66699 0.5 6.33398 1.5 11.001s2.66699 9.33398 5 14.001s5.33301 8.66699 9 12s8.16699 5 13.5 5c2 0 5.83301 -0.5 11.5 -1.5l17.5 -3c6 -1 11.5 -1.83301 16.5 -2.5s8.16699 -1 9.5 -1l3 10c2.66699 11.333 6.66699 27.333 12 48s11.833 43 19.5 67
s16.334 48.5 26.001 73.5s20.334 47.5 32.001 67.5s24 36.5 37 49.5s26.833 19.5 41.5 19.5c24.667 2 48 4 70 6l59.5 4c20.333 1.33301 37.833 2 52.5 2c44.667 0 83.834 -6.16699 117.501 -18.5s61.5 -29 83.5 -50s38.5 -45 49.5 -72s16.5 -55.167 16.5 -84.5
c0 -28 -6.5 -56 -19.5 -84s-32.333 -53.5 -58 -76.5s-57.334 -42.167 -95.001 -57.5s-81.5 -24.333 -131.5 -27c22.667 -10 39.834 -23.667 51.501 -41s19.834 -36.166 24.501 -56.499s7.16699 -41.166 7.5 -62.499s0.833008 -40.666 1.5 -57.999s3 -31.5 7 -42.5
s11.667 -16.5 23 -16.5c10.667 0 22.667 2.33301 36 7s27.333 11.167 42 19.5s29.334 18.333 44.001 30s28.667 24.5 42 38.5l39 -113c0 0.666992 -8.5 -5.66602 -25.5 -18.999s-39.333 -28 -67 -44s-58.834 -30.667 -93.501 -44s-70 -20 -106 -20
c-30.667 0 -53.834 10.167 -69.501 30.5s-27 45.833 -34 76.5s-11.167 63.834 -12.5 99.501s-3 68.834 -5 99.501s-6 56.167 -12 76.5s-17.333 30.5 -34 30.5h-30c-18.667 -67.333 -37.667 -127.666 -57 -180.999s-40.333 -98.333 -63 -135s-47.834 -64.667 -75.501 -84
s-59.167 -29 -94.5 -29c-17.333 0 -36.666 1.33301 -57.999 4s-39.666 9.66699 -54.999 21zM896.997 1142.99l-18.002 -81l-17 -73.5c-6 -25.667 -11.667 -48.834 -17 -69.501c14.667 -2 29.334 -3 44.001 -3c32.667 0 62.334 4 89.001 12s49.167 18.167 67.5 30.5
s32.5 26 42.5 41s15 29.833 15 44.5c0 26.667 -11.667 49.834 -35 69.501s-60 29.5 -110 29.5h-61z" />
    <glyph glyph-name="degree" unicode="&#xb0;" horiz-adv-x="737" 
d="M64 1317c0 51.333 12.1699 96.6699 36.5029 136.003s55.166 72.166 92.499 98.499s78 46.333 122 60s85.667 20.5 125 20.5c28 0 55.833 -4.66699 83.5 -14s52.5 -23.5 74.5 -42.5s39.833 -42.833 53.5 -71.5s20.5 -62.334 20.5 -101.001
c0 -59.333 -10.833 -110.666 -32.5 -153.999s-49.334 -79.5 -83.001 -108.5s-71 -50.5 -112 -64.5s-81.167 -21 -120.5 -21c-28 0 -57.167 4.5 -87.5 13.5s-58.333 23.667 -84 44s-46.834 47.166 -63.501 80.499s-25 74.666 -25 123.999zM413.003 1489
c-33.333 0 -62.3311 -5.33496 -86.998 -16.002s-45.334 -24.167 -62.001 -40.5s-29 -34.833 -37 -55.5s-12 -41 -12 -61c0 -15.333 2.33301 -29.666 7 -42.999s11.5 -25.333 20.5 -36s20.333 -19 34 -25s29.5 -9 47.5 -9c29.333 0 55.5 5.83301 78.5 17.5
s42.333 26.5 58 44.5s27.667 37.833 36 59.5s12.5 42.834 12.5 63.501c0 27.333 -7.83301 51 -23.5 71s-39.834 30 -72.501 30z" />
    <glyph glyph-name="plusminus" unicode="&#xb1;" horiz-adv-x="1503" 
d="M673 612l-224.002 0.00195312c-21.333 0 -40.166 2.66699 -56.499 8s-29.833 12.5 -40.5 21.5s-18.667 19.167 -24 30.5s-8 23 -8 35s2.83301 23.833 8.5 35.5s14 22 25 31s24.833 16.333 41.5 22s36 8.5 58 8.5h220v228c0 18.667 3.16699 35.334 9.5 50.001
s14.833 27.167 25.5 37.5s22.334 18.166 35.001 23.499s25.667 8 39 8c21.333 0 40.5 -8 57.5 -24s25.5 -41.333 25.5 -76v-247h250c34.667 0 60 -8.5 76 -25.5s24 -36.167 24 -57.5c0 -13.333 -2.66699 -26.333 -8 -39s-13.166 -24.334 -23.499 -35.001
s-22.833 -19.167 -37.5 -25.5s-31.334 -9.5 -50.001 -9.5h-231v-223c0 -22 -2.83301 -41.333 -8.5 -58s-13 -30.5 -22 -41.5s-19.333 -19.333 -31 -25s-23.5 -8.5 -35.5 -8.5s-23.667 2.66699 -35 8s-21.5 13.333 -30.5 24s-16.167 24.167 -21.5 40.5s-8 35.166 -8 56.499
v227zM999.998 194.002c8.66699 0 18.668 -0.999023 30.001 -2.99902s21.666 -5.83301 30.999 -11.5s17.333 -13.334 24 -23.001s10 -22.5 10 -38.5c0 -13.333 -1.5 -26.833 -4.5 -40.5s-9 -26 -18 -37s-21.833 -20.167 -38.5 -27.5s-39 -11 -67 -11h-415
c-21.333 0 -38.333 3.83301 -51 11.5s-22.5 17 -29.5 28s-11.5 22.833 -13.5 35.5s-3 24 -3 34c0 8.66699 1 17.834 3 27.501s6.33301 18.667 13 27s16.5 15.166 29.5 20.499s30.167 8 51.5 8h448z" />
    <glyph glyph-name="twosuperior" unicode="&#xb2;" horiz-adv-x="992" 
d="M765 609c-39.333 0 -79.001 9.33008 -119.001 27.9971s-79.333 40.334 -118 65.001c-36.667 -26 -76 -47.167 -118 -63.5s-86.667 -26.166 -134 -29.499c-34 0 -65.5 5 -94.5 15s-54.167 23.333 -75.5 40s-38.166 35.834 -50.499 57.501s-18.5 44.167 -18.5 67.5
c0 20 3.5 41 10.5 63s17.833 42.167 32.5 60.5s33.5 33.5 56.5 45.5s50.833 18 83.5 18c50.667 0 95.167 -5.5 133.5 -16.5s74.166 -24.167 107.499 -39.5c30.667 40 56.5 83.667 77.5 131s31.5 94 31.5 140c0 36 -3.83301 65.333 -11.5 88s-17.667 40.334 -30 53.001
s-25.833 21.167 -40.5 25.5s-29 6.5 -43 6.5c-16 0 -31.5 -2.33301 -46.5 -7s-28 -11.167 -39 -19.5s-19.833 -18.5 -26.5 -30.5s-10 -25 -10 -39c0 -10 6.66699 -20.333 20 -31s35.333 -22.334 66 -35.001c0.666992 -1.33301 1.33398 -2.5 2.00098 -3.5s1 -2.16699 1 -3.5
c0 -6.66699 -7.83301 -14 -23.5 -22s-35.334 -15.333 -59.001 -22s-49.334 -12.334 -77.001 -17.001s-53.5 -7 -77.5 -7c-4 5.33301 -8.33301 8.33301 -13 9s-8.66699 1 -12 1c-24.667 19.333 -42.834 40.166 -54.501 62.499s-17.5 46.166 -17.5 71.499
c0 32 10 63.667 30 95s47.5 59.5 82.5 84.5s75.833 45.333 122.5 61s97 23.5 151 23.5c14 0 32.833 -1.33301 56.5 -4s49.167 -8.16699 76.5 -16.5s55 -20 83 -35s53.5 -34.667 76.5 -59s41.667 -54.166 56 -89.499s21.5 -77 21.5 -125c0 -22.667 -4 -49.334 -12 -80.001
s-19.5 -63 -34.5 -97s-33.5 -69 -55.5 -105s-47 -70.333 -75 -103c20.667 -8 42.334 -14.167 65.001 -18.5s47.334 -6.5 74.001 -6.5c8 0 16.833 4.5 26.5 13.5s19.167 18.667 28.5 29l26 29c8 9 14 13.5 18 13.5c19.333 0 32.833 -1.66699 40.5 -5
s11.5 -10.666 11.5 -21.999c0 -9.33301 -2 -22.5 -6 -39.5s-8.66699 -39.167 -14 -66.5c-2.66699 -15.333 -7.5 -31.166 -14.5 -47.499s-16.833 -31.166 -29.5 -44.499s-28.667 -24.5 -48 -33.5s-42.666 -13.5 -69.999 -13.5zM262.999 773.997
c25.333 0 55.667 12.999 91 38.999c-14 7.33301 -27.333 13.333 -40 18s-24.334 7 -35.001 7c-25.333 0 -43.666 -2.33301 -54.999 -7s-17 -10.667 -17 -18c0 -9.33301 5.83301 -18.166 17.5 -26.499s24.5 -12.5 38.5 -12.5z" />
    <glyph glyph-name="threesuperior" unicode="&#xb3;" horiz-adv-x="768" 
d="M221 937c0 -28.667 7.16602 -49.1611 21.499 -61.4941s31.166 -18.5 50.499 -18.5c14 0 28.167 2.66699 42.5 8s27.333 13 39 23s21.167 21.833 28.5 35.5s11 28.5 11 44.5c0 30.667 -3.66699 56.334 -11 77.001s-18.666 37.5 -33.999 50.5s-34.5 23 -57.5 30
s-50.167 12.167 -81.5 15.5c-17.333 1.33301 -29.666 5 -36.999 11s-11 13.333 -11 22c0 8 0.833008 16.5 2.5 25.5s4.66699 17.333 9 25s9.83301 14 16.5 19s15 7.5 25 7.5c20 0 37.833 3.66699 53.5 11s29 16.5 40 27.5s19.5 23.333 25.5 37s9 26.834 9 39.501
c0 20.667 -5 38.5 -15 53.5s-25.667 22.5 -47 22.5c-19.333 0 -35.5 -4.5 -48.5 -13.5s-19.5 -19.833 -19.5 -32.5c0 -4.66699 2 -9.33398 6 -14.001s8.33301 -9.33398 13 -14.001l13 -12.5c4 -3.66699 6 -6.83398 6 -9.50098c0 -4 -3.83301 -8 -11.5 -12
s-16.5 -7.5 -26.5 -10.5s-19.667 -5.5 -29 -7.5s-15.333 -3 -18 -3c-6 0 -12.333 1.33301 -19 4s-12.5 7.5 -17.5 14.5s-9.16699 16.5 -12.5 28.5s-5 27 -5 45c0 28 6.66699 52.167 20 72.5s31.166 37.166 53.499 50.499s47.833 23.166 76.5 29.499s58.334 9.5 89.001 9.5
c31.333 0 62.166 -4 92.499 -12s57.333 -19.833 81 -35.5s42.834 -34.834 57.501 -57.501s22 -48.334 22 -77.001c0 -13.333 -2.16699 -28 -6.5 -44s-12.666 -31.833 -24.999 -47.5s-29.5 -30.667 -51.5 -45s-51 -26.5 -87 -36.5c38 -8 70.5 -20.5 97.5 -37.5
s49.167 -36.833 66.5 -59.5s30 -47.334 38 -74.001s12 -54 12 -82s-8 -56 -24 -84s-38.167 -53.167 -66.5 -75.5s-62.166 -40.5 -101.499 -54.5s-82.333 -21 -129 -21c-50 0 -92.833 5.5 -128.5 16.5s-64.667 26.333 -87 46s-38.833 43.167 -49.5 70.5
s-16 57.666 -16 90.999c0 20 3 36.833 9 50.5s14.167 24.667 24.5 33s22.166 14.333 35.499 18s27.333 5.5 42 5.5c12.667 0 26.667 -1.5 42 -4.5s29.666 -6.83301 42.999 -11.5s24.5 -10 33.5 -16s13.5 -11.667 13.5 -17c0 -4 -4.66699 -7.5 -14 -10.5
s-19.5 -6.66699 -30.5 -11s-21 -10.166 -30 -17.499s-13.5 -17.333 -13.5 -30z" />
    <glyph glyph-name="acute" unicode="&#xb4;" horiz-adv-x="609" 
d="M112 1203c4 8.66699 9.66406 21.832 16.9971 39.499l25.5 60l31 72.5l33.5 77l85 194c8.66699 22.667 21.834 39 39.501 49s36.167 15 55.5 15c17.333 0 34.666 -3.33301 51.999 -10s32.833 -16 46.5 -28s24.834 -26.333 33.501 -43s13 -35 13 -55
c0 -31.333 -12.333 -63.666 -37 -96.999l-43.5 -57.5l-51 -66l-54 -68.5l-52.5 -64.5l-45.5 -55.5l-32.5 -40c-11.333 -13.333 -22.666 -22.833 -33.999 -28.5s-22.666 -8.5 -33.999 -8.5c-16 0 -29.667 6.16699 -41 18.5s-17 28.5 -17 48.5c0 7.33301 0.833008 15 2.5 23
s4.16699 16.333 7.5 25z" />
    <glyph glyph-name="mu" unicode="&#xb5;" horiz-adv-x="962" 
d="M876 895c0 -18 -2.00098 -42.4961 -6.00098 -73.4961s-9.16699 -65 -15.5 -102l-20.5 -114.5l-20.5 -110c-6.33301 -34 -11.5 -63.833 -15.5 -89.5s-6 -43.5 -6 -53.5c0 -18.667 0.333008 -35.834 1 -51.501s2.66699 -29.334 6 -41.001s8.5 -20.667 15.5 -27
s17.167 -9.5 30.5 -9.5c14.667 0 32.5 3.66699 53.5 11s43.333 17.166 67 29.499s47.834 26.333 72.501 42s48.167 32.167 70.5 49.5s42.666 34.5 60.999 51.5s33.166 32.833 44.499 47.5c0 -22 0.166992 -42 0.5 -60s0.5 -35.167 0.5 -51.5s0.166992 -33.166 0.5 -50.499
s0.5 -36.666 0.5 -57.999c-14.667 -14.667 -32.834 -30.334 -54.501 -47.001s-45.667 -33.334 -72 -50.001s-54.333 -32.667 -84 -48s-59.5 -28.833 -89.5 -40.5s-59.667 -21 -89 -28s-56.666 -10.5 -81.999 -10.5s-47 5 -65 15s-33.5 24 -46.5 42s-24 39.5 -33 64.5
s-16.833 52.833 -23.5 83.5c-32.667 -48 -68.834 -85.833 -108.501 -113.5s-79.167 -41.5 -118.5 -41.5c-20 0 -39 4 -57 12c-6 -54.667 -11.5 -102.5 -16.5 -143.5s-12.833 -75.167 -23.5 -102.5s-25.5 -47.833 -44.5 -61.5s-45.833 -20.5 -80.5 -20.5
c-35.333 0 -60.166 10.5 -74.499 31.5s-21.5 53.167 -21.5 96.5c0 32 2.66699 74.333 8 127s12.5 110.167 21.5 172.5s19 127.166 30 194.499l33 192.5c11 61 21.5 116.5 31.5 166.5s18.333 89 25 117c5.33301 21.333 10.333 39.333 15 54s12 26.667 22 36
s24.167 16 42.5 20s43.5 6.33301 75.5 7c32.667 -1.33301 57.334 -5.5 74.001 -12.5s25 -15.833 25 -26.5v-3l-19.5 -118l-21.5 -131l-21 -128.5l-18 -111.5c-5.33301 -32.667 -9.5 -59 -12.5 -79s-4.5 -30.333 -4.5 -31c0 -12 1.16699 -23.5 3.5 -34.5
s5.83301 -20.833 10.5 -29.5s10.667 -15.667 18 -21s16 -8 26 -8c14.667 0 29.667 3.83301 45 11.5s29.833 18.667 43.5 33s25.834 32 36.501 53s18.667 44.833 24 71.5l99 508c3.33301 16 16.833 29.5 40.5 40.5s50.5 16.5 80.5 16.5c34 0 61 -6 81 -18s30 -27.333 30 -46z
" />
    <glyph glyph-name="paragraph" unicode="&#xb6;" horiz-adv-x="1308" 
d="M914 127c12.667 73.333 24.498 146.671 35.498 220.004l31.5 213.5l29 198c9.33301 63 19 120.5 29 172.5c-24 -2.66699 -51.167 -5.16699 -81.5 -7.5s-59.5 -5.5 -87.5 -9.5l-57 -310l-25 -137.5l-26.5 -143l-26 -140l-23.5 -128.5c-4 -10.667 -10 -19.834 -18 -27.501
s-17.5 -14.167 -28.5 -19.5s-23.167 -9.33301 -36.5 -12s-26.666 -4 -39.999 -4c-15.333 0 -30.5 1.83301 -45.5 5.5s-28.333 9.16699 -40 16.5s-21 16.5 -28 27.5s-10.5 24.167 -10.5 39.5c0 10 2 21 6 33c0.666992 6.66699 3.16699 23.5 7.5 50.5l15.5 100l20 131
l22 145.5l59 385c-89.333 0 -165.5 11 -228.5 33s-114.5 50.667 -154.5 86s-69.333 74.833 -88 118.5s-28 87.5 -28 131.5c0 40 9.33301 78.833 28 116.5s44.834 73.167 78.501 106.5s74 63.666 121 90.999s98.833 51 155.5 71s117.167 35.5 181.5 46.5
s130.833 16.5 199.5 16.5c78.667 0 144.667 -2.5 198 -7.5s96.333 -10.5 129 -16.5c38 -7.33301 68 -15 90 -23c24.667 -10 47 -23.333 67 -40c16.667 -14 32 -32.333 46 -55s21 -50 21 -82c0 -14.667 -2 -30.334 -6 -47.001c-4.66699 -20.667 -11 -53.167 -19 -97.5
l-27.5 -157l-34 -197l-37 -217l-37.5 -218l-35.5 -198.5c-11 -60.667 -21.167 -113.834 -30.5 -159.501s-17 -79.5 -23 -101.5s-14.5 -40.833 -25.5 -56.5s-23.333 -28.667 -37 -39s-28 -18 -43 -23s-29.833 -7.5 -44.5 -7.5c-27.333 0 -51 8.16699 -71 24.5
s-30 39.833 -30 70.5c0 11.333 1.33301 22 4 32z" />
    <glyph glyph-name="periodcentered" unicode="&#xb7;" horiz-adv-x="704" 
d="M672 191c0 -2.66699 -0.331055 -9.33301 -0.998047 -20s-2.83398 -23 -6.50098 -37s-9.33398 -28.833 -17.001 -44.5s-18.5 -30.167 -32.5 -43.5s-31.667 -24.333 -53 -33s-47.333 -13 -78 -13c-24.667 0 -47 3.16699 -67 9.5s-37.167 16 -51.5 29s-25.5 29.667 -33.5 50
s-12 44.833 -12 73.5c0 24 3.5 47.5 10.5 70.5s17.833 43.5 32.5 61.5s33.667 32.333 57 43s51 16 83 16c55.333 0 97.333 -14 126 -42s43 -68 43 -120z" />
    <glyph glyph-name="cedilla" unicode="&#xb8;" horiz-adv-x="1184" 
d="M684 46l-15.998 -165.494c-4 -41.667 -7.33301 -74.334 -10 -98.001s-4.83398 -40.834 -6.50098 -51.501s-3.16699 -19.5 -4.5 -26.5l-4.5 -23c-1.66699 -8.33301 -3.83398 -22.166 -6.50098 -41.499c-3.33301 -24.667 -10.5 -46.334 -21.5 -65.001
s-24 -34.334 -39 -47.001s-31.5 -22.334 -49.5 -29.001s-35.667 -10 -53 -10c-14.667 0 -28.667 2.33301 -42 7s-25.166 12 -35.499 22s-18.5 22.5 -24.5 37.5s-9 32.5 -9 52.5c0 28 5.66699 57.167 17 87.5s26.666 63.166 45.999 98.499s42 73.666 68 114.999l83 137
c5.33301 13.333 14 25 26 35s24.667 15 38 15c12.667 0 23.5 -2.66699 32.5 -8s13.5 -14.333 13.5 -27c0 -3.33301 -0.666992 -8.33301 -2 -15z" />
    <glyph glyph-name="onesuperior" unicode="&#xb9;" horiz-adv-x="704" 
d="M153 1350l-2.00195 -1.00293l4 1c-7.33301 -2 -13.666 -3 -18.999 -3c-10.667 0 -20.834 2.66699 -30.501 8s-18.334 12.5 -26.001 21.5s-13.667 19 -18 30s-6.5 22.167 -6.5 33.5c0 18.667 4.5 32.834 13.5 42.501s26.5 18.834 52.5 27.501s62.167 18.667 108.5 30
s106.833 28 181.5 50c12 3.33301 24.5 5.83301 37.5 7.5s25.5 2.5 37.5 2.5c14.667 0 29.334 -2.16699 44.001 -6.5s27.834 -10.833 39.501 -19.5s21 -19.5 28 -32.5s10.5 -27.833 10.5 -44.5c0 -0.666992 -1.33301 -10.5 -4 -29.5s-8.16699 -52.167 -16.5 -99.5l-35.5 -193
l-60 -310l-3 -8l1 2c-2 -9.33301 -5.16699 -22.666 -9.5 -39.999s-11.166 -34.5 -20.499 -51.5s-22 -31.833 -38 -44.5s-36.333 -19 -61 -19c-35.333 0 -64 7.5 -86 22.5s-33 39.5 -33 73.5c0 5.33301 0.5 11 1.5 17l3.5 20h-1l41 197.5l38 183.5l40 188z" />
    <glyph glyph-name="ordmasculine" unicode="&#xba;" horiz-adv-x="799" 
d="M483 1631c40.667 0 76.166 -9 106.499 -27s55.333 -42.167 75 -72.5s34.334 -65.333 44.001 -105s14.5 -81.5 14.5 -125.5c0 -58 -8.16699 -116.667 -24.5 -176s-40 -113 -71 -161s-69.5 -87.167 -115.5 -117.5s-98.333 -45.5 -157 -45.5c-50.667 0 -94 11 -130 33
s-65.5 51 -88.5 87s-39.833 76.5 -50.5 121.5s-16 90.5 -16 136.5c0 63.333 11.167 122.5 33.5 177.5s52.5 102.833 90.5 143.5s82 72.667 132 96s102.333 35 157 35zM382.999 967c20 0 39.167 9.83105 57.5 29.498s34.333 44.667 48 75s24.667 63.833 33 100.5
s12.5 71.667 12.5 105c0 26.667 -2 51.334 -6 74.001s-10 42.5 -18 59.5s-18.333 30.333 -31 40s-28 14.5 -46 14.5c-24 0 -46.5 -10.167 -67.5 -30.5s-39.5 -46.166 -55.5 -77.499s-28.667 -66 -38 -104s-14 -74.667 -14 -110c0 -24 2.16699 -46.667 6.5 -68
s11.5 -40 21.5 -56s23 -28.667 39 -38s35.333 -14 58 -14z" />
    <glyph glyph-name="guillemotright" unicode="&#xbb;" horiz-adv-x="1440" 
d="M975 87c-22.667 -9.33301 -43.9971 -14.001 -63.9971 -14.001c-17.333 0 -32.833 2.83301 -46.5 8.5s-25.334 12.667 -35.001 21s-17.167 17.5 -22.5 27.5s-8 19.333 -8 28c0 20 5 38 15 54s21.667 30.333 35 43s27.166 23.667 41.499 33s25.5 17.666 33.5 24.999
l269 231l-326 229c-32.667 23.333 -57.334 44.5 -74.001 63.5s-25 38.833 -25 59.5c0 14 2.83301 27.167 8.5 39.5s13.5 23.333 23.5 33s21.833 17.167 35.5 22.5s28.5 8 44.5 8c8 0 16.5 -0.833008 25.5 -2.5s18.167 -4.5 27.5 -8.5c2 -0.666992 10.333 -6.16699 25 -16.5
l54 -38l69 -49l69 -49.5l54.5 -39c15 -10.667 23.833 -16.667 26.5 -18c26.667 -17.333 51.667 -35.666 75 -54.999s43.5 -39.166 60.5 -59.499s30.333 -41.5 40 -63.5s14.5 -44.333 14.5 -67c0 -24 -6 -48.333 -18 -73s-31.333 -49.667 -58 -75l-68.5 -67
c-22.333 -22.667 -47.333 -46 -75 -70s-59.667 -49.333 -96 -76s-79.833 -55 -130.5 -85zM399.003 86.999c-22.667 -9.33301 -43.9971 -14.001 -63.9971 -14.001c-17.333 0 -32.833 2.83301 -46.5 8.5s-25.334 12.667 -35.001 21s-17.167 17.5 -22.5 27.5s-8 19.333 -8 28
c0 20 5 38 15 54s21.667 30.333 35 43s27.166 23.667 41.499 33s25.5 17.666 33.5 24.999l269 231l-326 229c-32.667 23.333 -57.334 44.5 -74.001 63.5s-25 38.833 -25 59.5c0 14 2.83301 27.167 8.5 39.5s13.5 23.333 23.5 33s21.833 17.167 35.5 22.5s28.5 8 44.5 8
c8 0 16.5 -0.833008 25.5 -2.5s18.167 -4.5 27.5 -8.5c2 -0.666992 10.333 -6.16699 25 -16.5l54 -38l69 -49l69 -49.5l54.5 -39c15 -10.667 23.833 -16.667 26.5 -18c26.667 -17.333 51.667 -35.666 75 -54.999s43.5 -39.166 60.5 -59.499s30.333 -41.5 40 -63.5
s14.5 -44.333 14.5 -67c0 -24 -6 -48.333 -18 -73s-31.333 -49.667 -58 -75l-68.5 -67c-22.333 -22.667 -47.333 -46 -75 -70s-59.667 -49.333 -96 -76s-79.833 -55 -130.5 -85z" />
    <glyph glyph-name="onequarter" unicode="&#xbc;" horiz-adv-x="1759" 
d="M992 1408c5.33301 9.33301 12.833 17.833 22.5 25.5s20.5 14.334 32.5 20.001s24.667 10.167 38 13.5s26 5 38 5c21.333 0 39.833 -5.33301 55.5 -16s23.5 -28.667 23.5 -54c0 -13.333 -2.83301 -29.833 -8.5 -49.5s-15.5 -41.167 -29.5 -64.5l-100.5 -177.5
l-127.5 -228.5l-157 -274l-189 -314c-13.333 -22 -29.333 -38 -48 -48s-36.667 -15 -54 -15c-23.333 0 -43.833 8 -61.5 24s-26.5 38.667 -26.5 68c0 13.333 2.33301 28.166 7 44.499s12.667 33.833 24 52.5l36.5 64l58.5 104l74.5 132.5l83.5 149.5l87 155l84.5 149
l75.5 131.5zM1554 -39c-26.667 0 -53.667 -0.998047 -81 -2.99805s-53.666 -3 -78.999 -3c-19.333 0 -36.5 1.33301 -51.5 4s-27.667 7.83398 -38 15.501s-18.166 18.167 -23.499 31.5s-8 30.666 -8 51.999c0 23.333 3 50.5 9 81.5s13.667 63.5 23 97.5
c-38 0 -73.167 -3.83301 -105.5 -11.5s-62.666 -16 -90.999 -25s-55.333 -17.167 -81 -24.5s-50.834 -11 -75.501 -11c-11.333 0 -19.333 3.83301 -24 11.5s-7 17.167 -7 28.5c0 15.333 5 33.333 15 54s22.667 42.667 38 66l36 91c10.667 28 20.334 55.167 29.001 81.5
s16.834 52.833 24.501 79.5s15 55 22 85s14.167 62.333 21.5 97l24 116c3.33301 9.33301 10.666 17.333 21.999 24s25 12.167 41 16.5s33.5 7.5 52.5 9.5s37.833 3 56.5 3c15.333 0 30 -0.666992 44 -2s26.167 -3.33301 36.5 -6s18.5 -5.66699 24.5 -9s9 -7.33301 9 -12
c-6.66699 -45.333 -16.334 -90.5 -29.001 -135.5s-27.5 -90.5 -44.5 -136.5s-35.833 -92.5 -56.5 -139.5l-65 -143.5c23.333 -0.666992 42.833 -1.16699 58.5 -1.5s30.167 -0.5 43.5 -0.5h12l37.5 111.5l34.5 102.5c4 15.333 11 28.5 21 39.5s21.5 20 34.5 27
s26.333 12 40 15s26.167 4.5 37.5 4.5c29.333 0 49 -4.33301 59 -13s15 -20.667 15 -36c0 -9.33301 -2 -22 -6 -38s-9.33301 -34.167 -16 -54.5s-14.334 -42.333 -23.001 -66l-26 -72.5l83 14.5c24.667 4.33301 45.667 6.5 63 6.5c8 0 13.667 -3.33301 17 -10
s5 -15.334 5 -26.001c0 -25.333 -2.33301 -45.666 -7 -60.999s-10 -27.333 -16 -36s-12.167 -14.334 -18.5 -17.001s-10.833 -4 -13.5 -4c-23.333 0 -47.833 0.5 -73.5 1.5s-52.5 2.16699 -80.5 3.5c-10.667 -40.667 -17.334 -76.334 -20.001 -107.001v-17
c0 -10.667 4.5 -22.834 13.5 -36.501s18.667 -27 29 -40l29 -36.5c9 -11.333 13.5 -20.333 13.5 -27c0 -3.33301 -0.833008 -5.66602 -2.5 -6.99902s-5.5 -2 -11.5 -2zM153 1350l-2.00195 -1.00293l4 1c-7.33301 -2 -13.666 -3 -18.999 -3
c-10.667 0 -20.834 2.66699 -30.501 8s-18.334 12.5 -26.001 21.5s-13.667 19 -18 30s-6.5 22.167 -6.5 33.5c0 18.667 4.5 32.834 13.5 42.501s26.5 18.834 52.5 27.501s62.167 18.667 108.5 30s106.833 28 181.5 50c12 3.33301 24.5 5.83301 37.5 7.5s25.5 2.5 37.5 2.5
c14.667 0 29.334 -2.16699 44.001 -6.5s27.834 -10.833 39.501 -19.5s21 -19.5 28 -32.5s10.5 -27.833 10.5 -44.5c0 -0.666992 -1.33301 -10.5 -4 -29.5s-8.16699 -52.167 -16.5 -99.5l-35.5 -193l-60 -310l-3 -8l1 2c-2 -9.33301 -5.16699 -22.666 -9.5 -39.999
s-11.166 -34.5 -20.499 -51.5s-22 -31.833 -38 -44.5s-36.333 -19 -61 -19c-35.333 0 -64 7.5 -86 22.5s-33 39.5 -33 73.5c0 5.33301 0.5 11 1.5 17l3.5 20h-1l41 197.5l38 183.5l40 188z" />
    <glyph glyph-name="onehalf" unicode="&#xbd;" horiz-adv-x="1729" 
d="M1561 1c-39.333 0 -79.001 9.33008 -119.001 27.9971s-79.333 40.334 -118 65.001c-36.667 -26 -76 -47.167 -118 -63.5s-86.667 -26.166 -134 -29.499c-34 0 -65.5 5 -94.5 15s-54.167 23.333 -75.5 40s-38.166 35.834 -50.499 57.501s-18.5 44.167 -18.5 67.5
c0 20 3.5 41 10.5 63s17.833 42.167 32.5 60.5s33.5 33.5 56.5 45.5s50.833 18 83.5 18c50.667 0 95.167 -5.5 133.5 -16.5s74.166 -24.167 107.499 -39.5c30.667 40 56.5 83.667 77.5 131s31.5 94 31.5 140c0 36 -3.83301 65.333 -11.5 88s-17.667 40.334 -30 53.001
s-25.833 21.167 -40.5 25.5s-29 6.5 -43 6.5c-16 0 -31.5 -2.33301 -46.5 -7s-28 -11.167 -39 -19.5s-19.833 -18.5 -26.5 -30.5s-10 -25 -10 -39c0 -10 6.66699 -20.333 20 -31s35.333 -22.334 66 -35.001c0.666992 -1.33301 1.33398 -2.5 2.00098 -3.5s1 -2.16699 1 -3.5
c0 -6.66699 -7.83301 -14 -23.5 -22s-35.334 -15.333 -59.001 -22s-49.334 -12.334 -77.001 -17.001s-53.5 -7 -77.5 -7c-4 5.33301 -8.33301 8.33301 -13 9s-8.66699 1 -12 1c-24.667 19.333 -42.834 40.166 -54.501 62.499s-17.5 46.166 -17.5 71.499
c0 32 10 63.667 30 95s47.5 59.5 82.5 84.5s75.833 45.333 122.5 61s97 23.5 151 23.5c14 0 32.833 -1.33301 56.5 -4s49.167 -8.16699 76.5 -16.5s55 -20 83 -35s53.5 -34.667 76.5 -59s41.667 -54.166 56 -89.499s21.5 -77 21.5 -125c0 -22.667 -4 -49.334 -12 -80.001
s-19.5 -63 -34.5 -97s-33.5 -69 -55.5 -105s-47 -70.333 -75 -103c20.667 -8 42.334 -14.167 65.001 -18.5s47.334 -6.5 74.001 -6.5c8 0 16.833 4.5 26.5 13.5s19.167 18.667 28.5 29l26 29c8 9 14 13.5 18 13.5c19.333 0 32.833 -1.66699 40.5 -5
s11.5 -10.666 11.5 -21.999c0 -9.33301 -2 -22.5 -6 -39.5s-8.66699 -39.167 -14 -66.5c-2.66699 -15.333 -7.5 -31.166 -14.5 -47.499s-16.833 -31.166 -29.5 -44.499s-28.667 -24.5 -48 -33.5s-42.666 -13.5 -69.999 -13.5zM940.999 1408
c5.33301 9.33301 12.833 17.833 22.5 25.5s20.5 14.334 32.5 20.001s24.667 10.167 38 13.5s26 5 38 5c21.333 0 39.833 -5.33301 55.5 -16s23.5 -28.667 23.5 -54c0 -13.333 -2.83301 -29.833 -8.5 -49.5s-15.5 -41.167 -29.5 -64.5l-100.5 -177.5l-127.5 -228.5l-157 -274
l-189 -314c-13.333 -22 -29.333 -38 -48 -48s-36.667 -15 -54 -15c-23.333 0 -43.833 8 -61.5 24s-26.5 38.667 -26.5 68c0 13.333 2.33301 28.166 7 44.499s12.667 33.833 24 52.5l36.5 64l58.5 104l74.5 132.5l83.5 149.5l87 155l84.5 149l75.5 131.5zM152.999 1416
l-2.00195 -1.00293l4 1c-7.33301 -2 -13.666 -3 -18.999 -3c-10.667 0 -20.834 2.66699 -30.501 8s-18.334 12.5 -26.001 21.5s-13.667 19 -18 30s-6.5 22.167 -6.5 33.5c0 18.667 4.5 32.834 13.5 42.501s26.5 18.834 52.5 27.501s62.167 18.667 108.5 30
s106.833 28 181.5 50c12 3.33301 24.5 5.83301 37.5 7.5s25.5 2.5 37.5 2.5c14.667 0 29.334 -2.16699 44.001 -6.5s27.834 -10.833 39.501 -19.5s21 -19.5 28 -32.5s10.5 -27.833 10.5 -44.5c0 -0.666992 -1.33301 -10.5 -4 -29.5s-8.16699 -52.167 -16.5 -99.5l-35.5 -193
l-60 -310l-3 -8l1 2c-2 -9.33301 -5.16699 -22.666 -9.5 -39.999s-11.166 -34.5 -20.499 -51.5s-22 -31.833 -38 -44.5s-36.333 -19 -61 -19c-35.333 0 -64 7.5 -86 22.5s-33 39.5 -33 73.5c0 5.33301 0.5 11 1.5 17l3.5 20h-1l41 197.5l38 183.5l40 188zM1059 165.994
c25.333 0 55.667 12.999 91 38.999c-14 7.33301 -27.333 13.333 -40 18s-24.334 7 -35.001 7c-25.333 0 -43.666 -2.33301 -54.999 -7s-17 -10.667 -17 -18c0 -9.33301 5.83301 -18.166 17.5 -26.499s24.5 -12.5 38.5 -12.5z" />
    </font>
</defs>
</svg>
